<svg xmlns="http://www.w3.org/2000/svg" fill="none" viewBox="-0.625 -0.625 20 20" id="Ai-Redo-Spark--Streamline-Ultimate.svg" height="20" width="20"><desc>Ai Redo Spark Streamline Icon: https://streamlinehq.com</desc><path stroke="#ffffff" stroke-linecap="round" stroke-linejoin="round" d="M4.8843359374999995 9.37390625c2.2384296875 -0.44999999999999996 4.040664062499999 -2.2741171875 4.4912890625 -4.5704375 0.450703125 2.2963203125000002 2.2525 4.1204375 4.4909375 4.5704375m0 0.002578125c-2.2384375000000003 0.44999999999999996 -4.0406249999999995 2.274140625 -4.491328125 4.57046875 -0.450703125 -2.296328125 -2.2524687500000002 -4.120468750000001 -4.4908984375 -4.57046875" stroke-width="1.25"></path><path stroke="#ffffff" stroke-linecap="round" d="M17.629609375 7.887578125c0.468046875 2.610625 -0.30671875 5.400390625 -2.324296875 7.417968749999999 -3.275390625 3.275390625 -8.5857890625 3.275390625 -11.86115625 0 -3.27536640625 -3.2753125 -3.27536640625 -8.5857578125 0 -11.861125 3.2753671875 -3.275365625 8.585765625 -3.275365625 11.86115625 0l0.692265625 0.692234375" stroke-width="1.25"></path><path stroke="#ffffff" stroke-linecap="round" stroke-linejoin="round" d="M13.0340625 4.226687500000001h2.999609375V1.2270390625" stroke-width="1.25"></path></svg>