<svg width="20" height="20" viewBox="0 0 20 20" fill="none" xmlns="http://www.w3.org/2000/svg">
<path fill-rule="evenodd" clip-rule="evenodd" d="M5.86409 9.99943C5.86409 11.2987 4.81084 12.3524 3.51086 12.3524C2.21203 12.3524 1.1582 11.2987 1.1582 9.99943C1.1582 8.70018 2.21203 7.64648 3.51086 7.64648C4.81084 7.64648 5.86409 8.70018 5.86409 9.99943Z" stroke="#E4E5E7" stroke-width="1.25" stroke-linecap="round" stroke-linejoin="round"/>
<path fill-rule="evenodd" clip-rule="evenodd" d="M19.0406 4.82353C19.0406 6.38263 17.7767 7.64706 16.2167 7.64706C14.6581 7.64706 13.3936 6.38263 13.3936 4.82353C13.3936 3.26443 14.6581 2 16.2167 2C17.7767 2 19.0406 3.26443 19.0406 4.82353Z" stroke="#E4E5E7" stroke-width="1.25" stroke-linecap="round" stroke-linejoin="round"/>
<path fill-rule="evenodd" clip-rule="evenodd" d="M19.0406 15.1761C19.0406 16.7352 17.7767 17.9996 16.2167 17.9996C14.6581 17.9996 13.3936 16.7352 13.3936 15.1761C13.3936 13.617 14.6581 12.3525 16.2167 12.3525C17.7767 12.3525 19.0406 13.617 19.0406 15.1761Z" stroke="#E4E5E7" stroke-width="1.25" stroke-linecap="round" stroke-linejoin="round"/>
<path d="M13.3936 5.76476C9.54327 5.76476 8.68767 8.57697 8.68767 9.93405C8.68682 11.35 9.97108 14.2354 13.3936 14.2354" stroke="#E4E5E7" stroke-width="1.25" stroke-linecap="round" stroke-linejoin="round"/>
</svg>
