<svg width="20" height="20" viewBox="0 0 20 20" fill="none" xmlns="http://www.w3.org/2000/svg">
<g clip-path="url(#clip0_6607_1466)">
<path d="M13.4283 17.9436L18.1536 13.4697C18.9391 12.726 18.8784 11.4096 18.0196 10.5654C17.1812 9.74118 15.9024 9.68454 15.1633 10.4389L10.5668 15.1306L9.81056 17.9491C9.69751 18.3703 10.1204 18.797 10.5432 18.6881L13.4257 17.9462" stroke="white" stroke-width="1.25" stroke-linecap="round" stroke-linejoin="round"/>
<path d="M5.00977 6.55859L6.24156 7.70411C6.8212 6.20261 7.30394 5.54375 8.39721 4.64941" stroke="white" stroke-width="1.25" stroke-linecap="round" stroke-linejoin="round"/>
<path d="M5.00977 11.583L6.24156 12.7285C6.8212 11.227 7.30394 10.5681 8.39721 9.67383" stroke="white" stroke-width="1.25" stroke-linecap="round" stroke-linejoin="round"/>
<path d="M15.9744 6.69147C14.5658 4.53153 13.597 3.34359 11.865 1.89245C11.4285 1.52674 10.8777 1.32592 10.3084 1.31291C9.78626 1.30098 9.24133 1.29492 8.66051 1.29492C6.84214 1.29492 5.37553 1.35429 3.85756 1.46741C2.56807 1.5635 1.5517 2.59831 1.47444 3.88908C1.35652 5.85901 1.29443 7.90356 1.29443 10.0003C1.29443 12.097 1.35652 14.1416 1.47444 16.1114C1.5517 17.4022 2.56803 18.4371 3.85752 18.5331C4.68559 18.5949 5.49837 18.6405 6.3613 18.6693" stroke="white" stroke-width="1.25" stroke-linecap="round" stroke-linejoin="round"/>
</g>
<defs>
<clipPath id="clip0_6607_1466">
<rect width="20" height="20" fill="white"/>
</clipPath>
</defs>
</svg>
