<svg width="20" height="20" viewBox="0 0 20 20" fill="none" xmlns="http://www.w3.org/2000/svg">
<path fill-rule="evenodd" clip-rule="evenodd" d="M5.51487 1.80737C6.02018 1.29215 6.70863 1 7.42959 1C8.15055 1 8.839 1.29215 9.34431 1.80737C9.69425 2.16418 9.93683 2.60764 10.0527 3.08675H14.5936C15.5498 3.08702 16.467 3.4606 17.1574 4.12656C17.8473 4.7921 18.2587 5.69888 18.3112 6.6597C18.3637 7.62047 18.0537 8.56736 17.4415 9.3059C16.9446 9.90521 16.2787 10.3308 15.538 10.5282C15.436 11.0546 15.1827 11.5443 14.8027 11.9318C14.2974 12.447 13.609 12.7391 12.888 12.7391C12.167 12.7391 11.4786 12.447 10.9733 11.9318C10.6233 11.5749 10.3807 11.1312 10.2648 10.652L5.72402 10.652C5.72396 10.652 5.72408 10.652 5.72402 10.652C5.11108 10.6522 4.51862 10.8915 4.06919 11.325C3.61929 11.759 3.34685 12.355 3.31206 12.9916C3.27726 13.6282 3.48309 14.2522 3.88378 14.7355C4.14719 15.0533 4.48126 15.2941 4.85257 15.4415C4.9808 15.0266 5.20595 14.6441 5.51487 14.3291C6.02018 13.8139 6.70863 13.5217 7.42959 13.5217C8.15055 13.5217 8.839 13.8139 9.34431 14.3291C9.69435 14.686 9.9369 15.1298 10.0527 15.609H17.3351C17.2483 15.4861 17.151 15.3691 17.0467 15.2627C16.7078 14.9172 16.42 14.8066 16.2993 14.8066C15.9382 14.8066 15.6454 14.5146 15.6454 14.1545C15.6454 13.7943 15.9382 13.5023 16.2993 13.5023C16.9455 13.5023 17.5528 13.9135 17.9815 14.3506C18.4316 14.8095 18.8201 15.4312 18.9811 16.0861C18.9943 16.1398 19.0006 16.1948 18.9999 16.2497C19 16.2535 19 16.2574 19 16.2612C19 16.3483 18.9829 16.4314 18.9518 16.5074C18.7767 17.1215 18.4071 17.6993 17.9825 18.1323C17.5535 18.5697 16.9459 18.9806 16.2993 18.9806C15.9382 18.9806 15.6454 18.6886 15.6454 18.3284C15.6454 17.9682 15.9382 17.6762 16.2993 17.6762C16.4209 17.6762 16.7091 17.5654 17.0477 17.2202C17.1408 17.1252 17.2282 17.0219 17.3076 16.9134H10.0527C9.93682 17.3925 9.69422 17.8358 9.34431 18.1926C8.839 18.7078 8.15055 19 7.42959 19C6.70863 19 6.02018 18.7078 5.51487 18.1926C5.13485 17.8052 4.8816 17.3155 4.7796 16.7891C4.03887 16.5917 3.37288 16.1661 2.87601 15.5667C2.26374 14.8282 1.95379 13.8813 2.00631 12.9206C2.05882 11.9597 2.47016 11.0529 3.1601 10.3874C3.85047 9.72145 4.76755 9.34787 5.72366 9.34761H10.2648C10.3807 8.86846 10.6234 8.425 10.9733 8.06823C11.4786 7.553 12.167 7.26085 12.888 7.26085C13.609 7.26085 14.2974 7.553 14.8027 8.06823C15.1116 8.3832 15.3368 8.76571 15.465 9.18058C15.8363 9.03318 16.1703 8.79239 16.4337 8.47469C16.8344 7.99136 17.0402 7.36735 17.0054 6.73071C16.9706 6.09411 16.6982 5.49815 16.2483 5.06416C15.7989 4.63063 15.2066 4.39132 14.5936 4.3911C14.5936 4.3911 14.5937 4.3911 14.5936 4.3911H10.0527C9.93688 4.87032 9.69432 5.31404 9.34431 5.67092C8.839 6.18615 8.15055 6.4783 7.42959 6.4783C6.70863 6.4783 6.02018 6.18615 5.51487 5.67092C5.16476 5.31395 4.92243 4.87021 4.80671 4.3911H2.65385C2.29274 4.3911 2 4.09911 2 3.73893C2 3.37874 2.29274 3.08675 2.65385 3.08675H4.80673C4.92248 2.60776 5.16484 2.16427 5.51487 1.80737ZM14.2809 9.9827C14.2764 9.60394 14.1269 9.24436 13.8679 8.98035C13.6055 8.7128 13.2527 8.5652 12.888 8.5652C12.5232 8.5652 12.1705 8.7128 11.9081 8.98035C11.645 9.24857 11.4948 9.61495 11.4948 9.99978C11.4948 10.3848 11.6451 10.7515 11.9081 11.0197C12.1705 11.2872 12.5232 11.4348 12.888 11.4348C13.2527 11.4348 13.6055 11.2872 13.8679 11.0197C14.1308 10.7516 14.281 10.3851 14.281 10C14.281 9.99631 14.281 9.99261 14.2809 9.98892M7.42959 2.30435C7.06484 2.30435 6.71205 2.45195 6.44965 2.71949C6.18684 2.98747 6.0368 3.35374 6.0368 3.73893C6.0368 4.12426 6.18694 4.49093 6.44965 4.7588C6.71205 5.02635 7.06484 5.17395 7.42959 5.17395C7.79433 5.17395 8.14712 5.02635 8.40952 4.7588C8.67243 4.49074 8.82272 4.12399 8.82272 3.73893C8.82272 3.35401 8.67253 2.98766 8.40952 2.71949C8.14712 2.45195 7.79433 2.30435 7.42959 2.30435ZM7.42959 14.826C7.06484 14.826 6.71205 14.9737 6.44965 15.2412C6.18678 15.5092 6.03661 15.8757 6.03661 16.2609C6.03661 16.646 6.18678 17.0125 6.44965 17.2805C6.71205 17.548 7.06484 17.6957 7.42959 17.6957C7.79433 17.6957 8.14712 17.548 8.40952 17.2805C8.67256 17.0123 8.82272 16.6461 8.82272 16.2612C8.82272 15.8761 8.67239 15.5092 8.40952 15.2412C8.14712 14.9737 7.79433 14.826 7.42959 14.826Z" fill="white"/>
</svg>
