<svg width="21" height="20" viewBox="0 0 21 20" fill="none" xmlns="http://www.w3.org/2000/svg">
<path d="M15.2734 8.76797C15.2399 8.68835 15.1836 8.62041 15.1116 8.57272C15.0396 8.52503 14.9551 8.49973 14.8687 8.5H6.11871C6.03233 8.49973 5.94781 8.52503 5.8758 8.57272C5.80378 8.62041 5.74749 8.68835 5.71402 8.76797C5.6825 8.84878 5.6745 8.93687 5.69096 9.02203C5.70741 9.1072 5.74764 9.18596 5.80699 9.24922L10.182 13.6242C10.2656 13.7051 10.3774 13.7503 10.4937 13.7503C10.61 13.7503 10.7218 13.7051 10.8054 13.6242L15.1804 9.24922C15.2398 9.18596 15.28 9.1072 15.2965 9.02203C15.3129 8.93687 15.3049 8.84878 15.2734 8.76797V8.76797Z" fill="#C5C5C5"/>
</svg>
