<svg width="20" height="20" viewBox="0 0 20 20" fill="none" xmlns="http://www.w3.org/2000/svg">
<path fill-rule="evenodd" clip-rule="evenodd" d="M2.42166 4.28544C1.79684 4.86563 1.37838 5.80703 1.37838 7.28378V13.7162C1.37838 15.193 1.79684 16.1344 2.42166 16.7146C3.05573 17.3033 4.01105 17.6216 5.28378 17.6216H14.473C15.7457 17.6216 16.701 17.3033 17.3351 16.7146C17.9599 16.1344 18.3784 15.193 18.3784 13.7162V7.28378C18.3784 5.80703 17.9599 4.86563 17.3351 4.28544C16.701 3.69666 15.7457 3.37838 14.473 3.37838H5.28378C4.01105 3.37838 3.05573 3.69666 2.42166 4.28544ZM1.48374 3.27537C2.45778 2.37091 3.79976 2 5.28378 2H14.473C15.957 2 17.299 2.37091 18.273 3.27537C19.2563 4.18842 19.7568 5.54432 19.7568 7.28378V13.7162C19.7568 15.4557 19.2563 16.8116 18.273 17.7246C17.299 18.6291 15.957 19 14.473 19H5.28378C3.79976 19 2.45778 18.6291 1.48374 17.7246C0.500457 16.8116 0 15.4557 0 13.7162V7.28378C0 5.54432 0.500457 4.18842 1.48374 3.27537Z" fill="#FAFAFA"/>
<path fill-rule="evenodd" clip-rule="evenodd" d="M15.0116 7.31281C15.2492 7.61022 15.2007 8.04388 14.9032 8.28143L12.0262 10.5794C10.8285 11.5329 8.91942 11.5329 7.72171 10.5794L7.72001 10.5781L4.85299 8.28076C4.55595 8.04275 4.5081 7.60901 4.74611 7.31197C4.98412 7.01494 5.41786 6.96709 5.71489 7.2051L8.58101 9.50167C9.27628 10.0545 10.4723 10.0543 11.1673 9.5013C11.1674 9.50121 11.1672 9.50138 11.1673 9.5013L14.043 7.20442C14.3404 6.96688 14.7741 7.01541 15.0116 7.31281Z" fill="#FAFAFA"/>
</svg>
