<svg width="20" height="20" viewBox="0 0 20 20" fill="none" xmlns="http://www.w3.org/2000/svg">
<g clip-path="url(#clip0_6607_1487)">
<path d="M1.29443 16.6965V14.4005C1.29443 13.291 2.19386 12.3916 3.30336 12.3916H7.32122C8.43072 12.3916 9.33015 13.291 9.33015 14.4005V16.6965C9.33015 17.8059 8.43072 18.7054 7.32122 18.7054H3.30336C2.19386 18.7054 1.29443 17.8059 1.29443 16.6965Z" stroke="white" stroke-width="1.25" stroke-linecap="round" stroke-linejoin="round"/>
<path d="M5.3125 10.5957V12.3917" stroke="white" stroke-width="1.25" stroke-linecap="round" stroke-linejoin="round"/>
<path d="M3.77344 15.2812V15.8168" stroke="white" stroke-width="1.25" stroke-linecap="round" stroke-linejoin="round"/>
<path d="M6.85107 15.2812V15.8168" stroke="white" stroke-width="1.25" stroke-linecap="round" stroke-linejoin="round"/>
<path d="M11.8003 18.7043C13.4098 18.6951 14.7544 18.6365 16.1419 18.5331C17.4313 18.4371 18.4477 17.4022 18.525 16.1114C18.643 14.1416 18.705 12.097 18.705 10.0003C18.705 9.39285 18.6998 8.78979 18.6896 8.19165C18.6727 7.21025 18.3793 6.2496 17.8126 5.44813C16.8037 4.0211 15.9119 3.03893 14.5436 1.89245C14.107 1.52674 13.5562 1.32592 12.9869 1.31291C12.4647 1.30098 11.9198 1.29492 11.339 1.29492C9.5206 1.29492 8.05399 1.35429 6.53602 1.46741C5.24652 1.5635 4.23015 2.59831 4.15289 3.88908C4.06501 5.3573 4.00814 6.86697 3.98486 8.40879" stroke="white" stroke-width="1.25" stroke-linecap="round" stroke-linejoin="round"/>
</g>
<defs>
<clipPath id="clip0_6607_1487">
<rect width="20" height="20" fill="white"/>
</clipPath>
</defs>
</svg>
