<svg width="20" height="20" viewBox="0 0 20 20" fill="none" xmlns="http://www.w3.org/2000/svg">
<path d="M7.25708 3.66461C6.65589 3.06341 6.56283 2.51191 6.12609 1.95616C5.78421 1.52112 5.13698 1.52112 4.7951 1.95616C4.35836 2.51191 4.2653 3.06341 3.66411 3.66461C3.06292 4.26578 2.51142 4.35885 1.95567 4.79558C1.52064 5.13746 1.52064 5.78471 1.95567 6.12659C2.51142 6.56333 3.06289 6.6564 3.66407 7.25758C4.26525 7.85875 4.35832 8.41027 4.79504 8.96601C5.13692 9.40105 5.78417 9.40105 6.12605 8.96601C6.56278 8.41027 6.65585 7.85875 7.25703 7.25758C7.85822 6.65638 8.40972 6.56333 8.96547 6.12659C9.40051 5.78471 9.40051 5.13746 8.96547 4.79558C8.40972 4.35885 7.85826 4.26578 7.25708 3.66461Z" stroke="white" stroke-width="1.25" stroke-linecap="round" stroke-linejoin="round"/>
<path d="M15.4213 10.2147C14.55 9.34335 14.415 8.54401 13.782 7.73852C13.2865 7.108 12.3484 7.10799 11.8529 7.73852C11.2199 8.54401 11.0851 9.34335 10.2137 10.2147C9.34236 11.086 8.54302 11.2209 7.73755 11.8539C7.10701 12.3494 7.10701 13.2875 7.73755 13.783C8.54302 14.416 9.34232 14.5509 10.2136 15.4222C11.085 16.2935 11.2199 17.093 11.8529 17.8984C12.3484 18.5289 13.2865 18.5289 13.782 17.8984C14.415 17.093 14.5498 16.2935 15.4212 15.4222C16.2925 14.5509 17.0919 14.416 17.8974 13.783C18.5279 13.2875 18.5279 12.3494 17.8974 11.8539C17.0919 11.2209 16.2927 11.086 15.4213 10.2147Z" stroke="white" stroke-width="1.25" stroke-linecap="round" stroke-linejoin="round"/>
</svg>
