<svg width="20" height="20" viewBox="0 0 20 20" fill="none" xmlns="http://www.w3.org/2000/svg">
<path d="M11.2988 6.60612V5.18569C11.2988 4.07618 12.1983 3.17676 13.3078 3.17676H16.3617C17.4712 3.17676 18.3706 4.07618 18.3706 5.18569V6.60612C18.3706 7.71561 17.4712 8.61505 16.3617 8.61505H13.3078C12.1983 8.61505 11.2988 7.71561 11.2988 6.60612Z" stroke="white" stroke-width="1.25" stroke-linecap="round" stroke-linejoin="round"/>
<path d="M14.835 1.62988V3.17684" stroke="white" stroke-width="1.25" stroke-linecap="round" stroke-linejoin="round"/>
<path d="M13.48 5.66504V6.12713" stroke="white" stroke-width="1.25" stroke-linecap="round" stroke-linejoin="round"/>
<path d="M16.188 5.66504V6.12713" stroke="white" stroke-width="1.25" stroke-linecap="round" stroke-linejoin="round"/>
<path d="M1.74712 3.30236C1.83358 2.49422 2.48356 1.84423 3.29133 1.7542C3.89129 1.68732 4.50732 1.62988 5.13539 1.62988C5.76345 1.62988 6.37948 1.68732 6.97944 1.7542C7.7872 1.84423 8.43718 2.49422 8.52365 3.30236C8.58748 3.89895 8.64137 4.51144 8.64137 5.13587C8.64137 5.76031 8.58748 6.37279 8.52365 6.96938C8.43718 7.77752 7.7872 8.42751 6.97944 8.51755C6.37948 8.58442 5.76345 8.64187 5.13539 8.64187C4.50732 8.64187 3.89129 8.58442 3.29131 8.51755C2.48356 8.42751 1.83358 7.77752 1.74712 6.96938C1.68329 6.37279 1.62939 5.76031 1.62939 5.13587C1.62939 4.51144 1.68329 3.89895 1.74712 3.30236Z" stroke="white" stroke-width="1.25" stroke-linecap="round" stroke-linejoin="round"/>
<path d="M1.74712 13.0319C1.83358 12.2237 2.48356 11.5737 3.29133 11.4837C3.89129 11.4168 4.50732 11.3594 5.13539 11.3594C5.76345 11.3594 6.37948 11.4168 6.97944 11.4837C7.7872 11.5737 8.43718 12.2237 8.52365 13.0319C8.58748 13.6284 8.64137 14.241 8.64137 14.8654C8.64137 15.4897 8.58748 16.1023 8.52365 16.6989C8.43718 17.507 7.7872 18.1571 6.97944 18.2471C6.37948 18.3139 5.76345 18.3714 5.13539 18.3714C4.50732 18.3714 3.89129 18.3139 3.29131 18.2471C2.48356 18.1571 1.83358 17.507 1.74712 16.6989C1.68329 16.1023 1.62939 15.4897 1.62939 14.8654C1.62939 14.241 1.68329 13.6284 1.74712 13.0319Z" stroke="white" stroke-width="1.25" stroke-linecap="round" stroke-linejoin="round"/>
<path d="M11.4761 13.0319C11.5626 12.2237 12.2126 11.5737 13.0203 11.4837C13.6203 11.4168 14.2364 11.3594 14.8644 11.3594C15.4925 11.3594 16.1084 11.4168 16.7084 11.4837C17.5162 11.5737 18.1663 12.2237 18.2526 13.0319C18.3165 13.6284 18.3704 14.241 18.3704 14.8654C18.3704 15.4897 18.3165 16.1023 18.2526 16.6989C18.1663 17.507 17.5162 18.1571 16.7084 18.2471C16.1084 18.3139 15.4925 18.3714 14.8644 18.3714C14.2364 18.3714 13.6203 18.3139 13.0203 18.2471C12.2126 18.1571 11.5626 17.507 11.4761 16.6989C11.4123 16.1023 11.3584 15.4897 11.3584 14.8654C11.3584 14.241 11.4123 13.6284 11.4761 13.0319Z" stroke="white" stroke-width="1.25" stroke-linecap="round" stroke-linejoin="round"/>
</svg>
