<svg width="20" height="20" viewBox="0 0 20 20" fill="none" xmlns="http://www.w3.org/2000/svg">
<g clip-path="url(#clip0_6607_1518)">
<path d="M1.29492 11.667H11.0307" stroke="white" stroke-width="1.25" stroke-linecap="round" stroke-linejoin="round"/>
<path d="M11.0381 11.6739C11.0381 15.5572 8.33079 18.7052 8.33079 18.7052C8.33079 18.7052 5.62354 15.5572 5.62354 11.6739C5.62354 8.94675 6.95882 6.58219 7.75384 5.41602" stroke="white" stroke-width="1.25" stroke-linecap="round" stroke-linejoin="round"/>
<path d="M10.6699 7.39567V5.09975C10.6699 3.99026 11.5693 3.09082 12.6789 3.09082H16.6967C17.8062 3.09082 18.7056 3.99026 18.7056 5.09976V7.39567C18.7056 8.50518 17.8062 9.4046 16.6967 9.4046H12.6789C11.5693 9.4046 10.6699 8.50518 10.6699 7.39567Z" stroke="white" stroke-width="1.25" stroke-linecap="round" stroke-linejoin="round"/>
<path d="M14.688 1.29492V3.09092" stroke="white" stroke-width="1.25" stroke-linecap="round" stroke-linejoin="round"/>
<path d="M13.1484 5.98047V6.51605" stroke="white" stroke-width="1.25" stroke-linecap="round" stroke-linejoin="round"/>
<path d="M16.2261 5.98047V6.51605" stroke="white" stroke-width="1.25" stroke-linecap="round" stroke-linejoin="round"/>
<path d="M7.78029 4.66309C4.15266 4.93851 1.29492 7.96923 1.29492 11.6674C1.29492 15.547 4.43999 18.6922 8.31963 18.6922C11.979 18.6922 14.9849 15.894 15.3144 12.3206" stroke="white" stroke-width="1.25" stroke-linecap="round"/>
</g>
<defs>
<clipPath id="clip0_6607_1518">
<rect width="20" height="20" fill="white"/>
</clipPath>
</defs>
</svg>
