<svg width="20" height="20" viewBox="0 0 20 20" fill="none" xmlns="http://www.w3.org/2000/svg">
<path d="M4.92069 1.98278C6.66526 1.78508 8.57914 1.62988 10.3348 1.62988C12.0906 1.62988 14.0059 1.78511 15.7514 1.98285C16.953 2.11896 17.8961 3.07069 18.0271 4.27279C18.216 6.00825 18.3705 7.92017 18.3705 9.6656C18.3705 11.4115 18.216 13.3271 18.0269 15.0647C17.8961 16.2668 16.953 17.2185 15.7512 17.3534C14.0058 17.5493 12.0905 17.7013 10.3348 17.7013C8.80359 17.7013 7.15206 17.5857 5.59744 17.4262L1.62939 18.371L2.54906 14.1406C2.40522 12.6636 2.29909 11.1068 2.29909 9.6656C2.29909 7.92015 2.45474 6.00821 2.64453 4.27274C2.77597 3.07069 3.71916 2.11895 4.92069 1.98278Z" stroke="white" stroke-width="1.25" stroke-linecap="round" stroke-linejoin="round"/>
<path d="M8.53906 9.68848V10.3133" stroke="white" stroke-width="1.25" stroke-linecap="round" stroke-linejoin="round"/>
<path d="M12.1294 9.68848V10.3133" stroke="white" stroke-width="1.25" stroke-linecap="round" stroke-linejoin="round"/>
<path d="M10.3348 14.0181C9.37512 14.0181 8.13732 13.9266 7.1747 13.8392C6.27178 13.7573 5.55206 13.0614 5.45528 12.16C5.38054 11.4639 5.3125 10.6513 5.3125 10.0003C5.3125 9.34923 5.38054 8.53671 5.45528 7.8406C5.55206 6.93915 6.27178 6.24327 7.1747 6.16134C8.13732 6.07398 9.37512 5.98242 10.3348 5.98242C11.2945 5.98242 12.5323 6.07398 13.4949 6.16134C14.3978 6.24327 15.1175 6.93915 15.2144 7.8406C15.2891 8.53671 15.3571 9.34923 15.3571 10.0003C15.3571 10.6513 15.2891 11.4639 15.2144 12.16C15.1175 13.0614 14.3978 13.7573 13.4949 13.8392C12.5323 13.9266 11.2945 14.0181 10.3348 14.0181Z" stroke="white" stroke-width="1.25" stroke-linecap="round" stroke-linejoin="round"/>
<path d="M10.335 4.30859V5.9827" stroke="white" stroke-width="1.25" stroke-linecap="round" stroke-linejoin="round"/>
</svg>
