<svg width="151" height="67" viewBox="0 0 151 67" fill="none" xmlns="http://www.w3.org/2000/svg">
<path d="M58.9126 23.2537C58.9126 22.0078 59.9182 21 61.1562 21C62.3983 21 63.4079 22.0078 63.4079 23.2537C63.4079 24.498 62.3983 25.5069 61.1562 25.5069C59.9182 25.5069 58.9126 24.498 58.9126 23.2537Z" fill="white"/>
<path d="M94.3795 38.244C94.3795 36.9975 95.3845 35.9887 96.6225 35.9887C97.8642 35.9887 98.8735 36.9975 98.8735 38.244C98.8735 39.4873 97.8642 40.4972 96.6225 40.4972C95.3845 40.4972 94.3795 39.4873 94.3795 38.244Z" fill="white"/>
<path d="M22.0202 37.2699C20.0842 37.2699 18.7389 35.7324 18.7389 33.5353C18.7389 31.3387 20.0842 29.8022 22.0202 29.8022C23.9673 29.8022 25.3274 31.3387 25.3274 33.5353C25.3274 35.7671 23.9956 37.2699 22.0202 37.2699ZM22.0202 26.52C17.9244 26.52 14.952 29.4711 14.952 33.5353C14.952 37.5994 17.9244 40.5501 22.0202 40.5501C26.1313 40.5501 29.1161 37.5994 29.1161 33.5353C29.1161 29.4711 26.1313 26.52 22.0202 26.52Z" fill="white"/>
<path d="M54.5589 33.8861C54.3997 33.5865 54.2171 33.3328 54.0227 33.1315L53.8988 33.0001L54.0292 32.8752C54.2172 32.677 54.4094 32.442 54.5947 32.1697L58.2091 26.7966H53.8214L51.1057 30.9996C50.9519 31.2249 50.6416 31.3387 50.177 31.3387H49.558V23.3925C49.558 21.8032 48.5679 21.5869 47.4982 21.5869H45.667L45.6701 40.3434H49.558V34.7171H49.9222C50.3654 34.7171 50.6673 34.7684 50.8056 35.0092L52.9504 39.0574C53.5494 40.1559 54.1465 40.3434 55.2697 40.3434H58.2492L56.0302 36.6728L54.5589 33.8861Z" fill="white"/>
<path d="M73.4331 26.49C71.4555 26.49 70.1937 27.3685 69.4866 28.1114L69.2505 28.3501L69.1672 28.0254C68.9595 27.2297 68.2593 26.7918 67.2056 26.7918H65.4632L65.4741 40.3386H69.3355V34.0949C69.3355 33.4845 69.4149 32.9547 69.5763 32.4714C70.0062 31.0086 71.2051 30.0991 72.7037 30.0991C73.9091 30.0991 74.3801 30.7352 74.3801 32.379V38.2792C74.3801 39.6822 75.0289 40.3386 76.433 40.3386H78.2706L78.2644 31.7227C78.2644 28.2994 76.5937 26.49 73.4331 26.49Z" fill="white"/>
<path d="M61.2073 26.7977H59.377L59.3895 37.2721L59.3883 40.3418H61.3419C61.3665 40.3418 61.3862 40.3444 61.4108 40.3444L62.3207 40.3418H63.2265V40.3365H63.2328L63.2407 28.8543C63.2407 27.469 62.5783 26.7977 61.2086 26.7977" fill="white"/>
<path d="M37.1878 37.2699C35.252 37.2699 33.904 35.7324 33.904 33.5353C33.904 31.3387 35.252 29.8022 37.1878 29.8022C39.1308 29.8022 40.4947 31.3387 40.4947 33.5353C40.4947 35.7671 39.1633 37.2699 37.1878 37.2699ZM37.1878 26.52C33.0879 26.52 30.1149 29.4711 30.1149 33.5353C30.1149 37.5994 33.0879 40.5501 37.1878 40.5501C41.2947 40.5501 44.2843 37.5994 44.2843 33.5353C44.2843 29.4711 41.2947 26.52 37.1878 26.52Z" fill="white"/>
<path d="M119.958 37.2699C118.023 37.2699 116.674 35.7324 116.674 33.5353C116.674 31.3387 118.023 29.8022 119.958 29.8022C121.902 29.8022 123.266 31.3387 123.266 33.5353C123.266 35.7671 121.934 37.2699 119.958 37.2699ZM119.958 26.52C115.859 26.52 112.886 29.4711 112.886 33.5353C112.886 37.5994 115.859 40.5501 119.958 40.5501C124.066 40.5501 127.055 37.5994 127.055 33.5353C127.055 29.4711 124.066 26.52 119.958 26.52Z" fill="white"/>
<path d="M86.4064 36.6739C84.2953 36.6739 83.5438 34.832 83.5438 33.1059C83.5438 32.3454 83.7361 29.8669 86.2035 29.8669C87.4297 29.8669 89.0639 30.2183 89.0639 33.2336C89.0639 36.0774 87.6177 36.6739 86.4064 36.6739ZM91.0687 26.7614C90.336 26.7614 89.772 27.0535 89.4895 27.587L89.3827 27.7942L89.2038 27.6388C88.5804 27.0994 87.4629 26.4596 85.6481 26.4596C82.0373 26.4596 79.6064 29.1715 79.6064 33.2074C79.6064 37.2384 82.1217 40.0555 85.7207 40.0555C86.9501 40.0555 87.9216 39.7687 88.6916 39.1856L88.9897 38.9618V39.3383C88.9897 41.1477 87.8195 42.1458 85.6984 42.1458C84.6676 42.1458 83.7293 41.8948 83.1018 41.6673C82.2825 41.4201 81.8024 41.6246 81.4702 42.4465L81.1637 43.2049L80.73 44.3125L80.9987 44.4556C82.3562 45.176 84.1234 45.606 85.7207 45.606C89.0094 45.606 92.8492 43.9226 92.8492 39.1856L92.8633 26.7614H91.0687Z" fill="white"/>
<path d="M7.63903 37.1145L4.49567 37.1114V33.3533C4.49567 32.55 4.80705 32.1324 5.49537 32.0363H7.63903C9.16908 32.0363 10.1577 33.0013 10.1588 34.5623C10.1577 36.1645 9.19365 37.1135 7.63903 37.1145ZM4.49567 25.9875C4.49567 25.1218 4.86198 24.7101 5.66582 24.6572H7.27424C8.65369 24.6572 9.47991 25.4828 9.47991 26.8639C9.47991 27.9171 8.91435 29.1459 7.32497 29.1459H4.49567V25.9875ZM11.6536 30.7272L11.0853 30.4079L11.5813 29.9838C12.1582 29.4877 13.1254 28.3726 13.1254 26.4457C13.1254 23.4978 10.8386 21.5949 7.29937 21.5949H3.26036L2.8005 21.5939C1.7512 21.6323 0.911643 22.4857 0.899902 23.5416V40.275H2.75349C2.75819 40.2761 2.75976 40.275 2.76133 40.2761L7.37915 40.275C11.3135 40.275 13.8529 38.1335 13.8529 34.8165C13.8529 33.0306 13.033 31.5037 11.6536 30.7272Z" fill="white"/>
<path d="M144.305 26.5339C142.702 26.5339 141.153 27.2842 140.159 28.5425L139.879 28.8971L139.66 28.5003C138.945 27.1961 137.714 26.5339 136.002 26.5339C134.207 26.5339 133.003 27.5352 132.444 28.1307L132.078 28.527L131.937 28.0057C131.733 27.2554 131.065 26.842 130.053 26.842H128.43L128.415 40.3365H132.102V34.3797C132.102 33.8579 132.167 33.3415 132.298 32.8015C132.65 31.3623 133.617 29.8141 135.244 29.9689C136.247 30.0651 136.736 30.84 136.736 32.3369V40.3365H140.45V34.3797C140.45 33.7276 140.511 33.2395 140.658 32.7497C140.957 31.3756 141.967 29.9668 143.536 29.9668C144.671 29.9668 145.091 30.6098 145.091 32.3369V38.3637C145.091 39.7271 145.699 40.3365 147.062 40.3365H148.797L148.8 31.7217C148.8 28.2803 147.286 26.5339 144.305 26.5339Z" fill="white"/>
<path d="M110.752 35.6512C110.741 35.6645 109.154 37.3378 107.064 37.3378C105.161 37.3378 103.238 36.1698 103.238 33.5625C103.238 31.3115 104.729 29.7382 106.863 29.7382C107.556 29.7382 108.345 29.9865 108.468 30.4041L108.486 30.4747C108.77 31.4215 109.631 31.4723 109.8 31.4723L111.82 31.4745V29.7083C111.82 27.3788 108.857 26.5339 106.863 26.5339C102.599 26.5339 99.5053 29.5027 99.5053 33.5909C99.5053 37.6775 102.566 40.642 106.785 40.642C110.446 40.642 112.437 38.2356 112.456 38.2115L112.562 38.0812L110.962 35.427L110.752 35.6512Z" fill="white"/>
</svg>
