<svg width="140" height="67" viewBox="0 0 140 67" fill="none" xmlns="http://www.w3.org/2000/svg">
<path d="M49.5869 44.9997C44.6489 44.9997 40.065 43.5189 37.0053 40.7725C34.6936 38.6977 33.5828 35.8794 33.5828 32.9786C33.5828 30.1133 34.7415 27.2755 37.005 25.2116C39.8466 22.6218 44.8635 21 49.5869 21C54.8141 21 58.9977 22.3166 62.196 25.2187C64.4715 27.2837 65.5716 30.1089 65.5716 32.9789C65.5716 35.7608 64.4042 38.7234 62.196 40.7725C59.2178 43.5366 54.5376 44.9997 49.5869 44.9997V41.8343C52.2079 41.8343 54.6392 40.9294 56.3371 39.2399C58.0233 37.562 58.8089 35.4994 58.8089 32.9786C58.8089 30.5638 57.9614 28.3061 56.3371 26.7048C54.6619 25.0547 52.1726 24.1263 49.5869 24.1263C46.9934 24.1263 44.5024 25.0452 42.8258 26.7048C41.2103 28.3055 40.3606 30.5698 40.3606 32.9786C40.3606 35.3801 41.2202 37.643 42.8258 39.2402C44.5038 40.9094 46.986 41.8346 49.5869 41.8346V45V44.9997ZM13.4947 21.0115C10.8532 21.0115 7.85233 21.5056 5.30255 22.6443C2.9493 23.6943 1.02307 25.3925 1.02307 28.2078C1.02198 30.7434 2.63342 32.2284 2.58962 32.1873C3.27504 32.8182 4.37844 33.8926 7.26327 34.5236C8.55253 34.8055 11.309 35.2386 14.0539 35.5254C16.7786 35.8128 19.4601 36.086 20.5523 36.3625C21.42 36.5834 22.8776 36.8842 22.8776 38.5195C22.8776 40.1482 21.342 40.6452 21.0751 40.7531C20.8085 40.8585 18.9663 41.7038 15.6547 41.7038C13.2098 41.7038 10.2705 40.9685 9.19908 40.5853C7.96401 40.1457 6.66846 39.5643 5.45994 38.0881C5.15939 37.7221 4.68529 36.7156 4.68529 35.7189H1.68823V44.117H5.01951V42.9823C5.01951 42.8531 5.18101 42.3218 5.74024 42.5745C6.43606 42.8906 8.47863 43.7039 10.6143 44.1498C12.3653 44.516 13.4944 44.7786 15.6714 44.7786C19.2233 44.7786 21.1315 44.1999 22.4506 43.8232C23.6933 43.4674 25.2289 42.8285 26.4763 41.8338C27.1519 41.2959 28.6333 39.9171 28.6333 37.4144C28.6333 35.0122 27.344 33.5212 26.8904 33.0676C26.2726 32.4495 25.518 31.9705 24.7315 31.6012C24.0464 31.2788 22.9652 30.8915 22.0805 30.6749C20.3634 30.2534 16.4808 29.7333 14.6241 29.539C12.6771 29.3356 9.29954 29.0558 7.9506 28.6384C7.54165 28.5117 6.70787 28.1145 6.70787 27.1466C6.70787 26.4582 7.08918 25.8746 7.84275 25.4029C9.03895 24.6535 11.4552 24.1876 13.9737 24.1876C16.9514 24.1766 19.4729 24.8574 21.077 25.5746C21.6225 25.8182 22.2609 26.168 22.7678 26.5819C23.3399 27.0483 24.143 28.0176 24.4335 29.3695H27.1242V22.0593H24.1198V22.909C24.1198 23.1833 23.8365 23.5397 23.3008 23.2451C21.9562 22.5397 18.1547 21.0178 13.4942 21.0115H13.4947ZM79.3358 22.3399L93.9918 35.5665L93.8412 26.6613C93.8265 25.4935 93.6113 25.006 92.3483 25.006H89.5927V22.3421H102.124V25.006H99.436C98.1478 25.006 98.0665 25.418 98.0509 26.6613L98.2781 43.6771H93.9866L77.1057 28.611L77.1093 39.3034C77.1241 40.4657 77.1785 41.0131 78.3761 41.0131H81.3858V43.676H69.0789V41.0134H71.9558C73.0305 41.0134 72.9878 39.9888 72.9878 39.2429V26.7625C72.9878 25.957 72.8747 25.0079 71.1874 25.0079H68.8531V22.3399H79.3358ZM116.444 41.0082C116.561 41.0082 117.084 40.9932 117.185 40.9622C117.475 40.8719 117.671 40.6655 117.762 40.4504C117.8 40.36 117.819 39.9604 117.819 39.8736L117.822 35.6637C117.822 35.5624 117.814 35.5186 117.642 35.293C117.453 35.0467 109.966 26.5611 109.623 26.1874C109.197 25.7235 108.45 25.0063 107.314 25.0063H104.71V22.3413H119.406V25.003H117.635C117.225 25.003 116.952 25.3917 117.303 25.8237C117.303 25.8237 122.247 31.7381 122.294 31.8C122.34 31.8629 122.379 31.878 122.442 31.8205C122.504 31.7617 127.51 25.8778 127.55 25.8313C127.788 25.5461 127.626 25.006 127.113 25.006H125.296V22.3413H137.34V25.006H134.649C133.673 25.006 133.276 25.1867 132.542 26.0169C132.206 26.3968 124.638 35.0349 124.432 35.2689C124.324 35.3913 124.334 35.5618 124.334 35.6631V39.8725C124.334 39.9579 124.353 40.3581 124.391 40.4479C124.482 40.6641 124.68 40.8705 124.969 40.9598C125.07 40.991 125.586 41.0063 125.703 41.0063H128.455V43.6708H113.835V41.006L116.444 41.0082H116.444Z" fill="white"/>
</svg>
