<svg width="152" height="67" viewBox="0 0 152 67" fill="none" xmlns="http://www.w3.org/2000/svg">
<path fill-rule="evenodd" clip-rule="evenodd" d="M34.1802 40.9091C31.1256 40.9275 28.3615 39.1017 27.1798 36.2849C25.998 33.4681 26.632 30.2167 28.7854 28.0502C30.9388 25.8837 34.1864 25.23 37.0103 26.3947C39.8342 27.5593 41.6767 30.3123 41.6768 33.367C41.6837 37.5174 38.3307 40.8908 34.1802 40.9091ZM34.1802 23.0001C29.9874 22.9783 26.1954 25.4872 24.5757 29.3546C22.9561 33.222 23.8286 37.6844 26.7857 40.6569C29.7427 43.6295 34.2005 44.5252 38.0763 42.9258C41.9521 41.3263 44.4807 37.5474 44.4808 33.3545C44.4809 27.6569 39.8778 23.0298 34.1802 23.0001Z" fill="white"/>
<path fill-rule="evenodd" clip-rule="evenodd" d="M70.6618 24.1504C70.5685 24.1512 70.4822 24.1985 70.4341 24.2755L60.0126 37.8959L49.5911 24.2755C49.5422 24.1974 49.4541 24.1498 49.3593 24.1504C49.2082 24.1504 49.085 24.267 49.0828 24.4123V42.5585H51.8396V31.8419L59.8499 42.238C59.8901 42.2845 59.9497 42.3113 60.0126 42.3113C60.0755 42.3113 60.1351 42.2845 60.1752 42.238L68.1855 31.8419V42.5585H70.9424V24.4123C70.9413 24.3418 70.9112 24.2746 70.8585 24.2255C70.8059 24.1764 70.7352 24.1494 70.6618 24.1504Z" fill="white"/>
<path fill-rule="evenodd" clip-rule="evenodd" d="M87.9643 33.3034H81.6944V26.8157H87.9643C89.7812 26.8157 91.2541 28.2663 91.2541 30.0556C91.2541 31.845 89.7812 33.2956 87.9643 33.2956M87.9643 24.1504H78.9959V42.5585H81.6865V35.9691H87.9564C91.268 35.9691 93.9525 33.3251 93.9525 30.0636C93.9525 26.8021 91.268 24.1582 87.9564 24.1582" fill="white"/>
<path fill-rule="evenodd" clip-rule="evenodd" d="M11.1924 40.8968C7.63882 40.9167 4.54917 38.4737 3.76342 35.0226C2.97767 31.5716 4.70714 28.0406 7.9219 26.5324C11.1367 25.0243 14.9721 25.9446 17.1442 28.7453L19.1697 26.7532C16.3744 23.3901 11.761 22.1342 7.63621 23.6134C3.51144 25.0927 0.761597 28.9893 0.761597 33.3549C0.761597 37.7205 3.51144 41.6171 7.63621 43.0964C11.761 44.5757 16.3744 43.3198 19.1697 39.9566L17.1442 37.9645C15.7279 39.8125 13.5269 40.8969 11.1924 40.8968Z" fill="white"/>
<path fill-rule="evenodd" clip-rule="evenodd" d="M128.234 31.0656L126.105 30.5925C123.817 30.1115 123.645 28.5882 123.645 28.1111C123.645 26.5678 124.904 25.6818 127.098 25.6818C129.353 25.6818 131.001 27.1771 131.506 27.6862L133.462 25.8061C131.625 23.922 129.546 23 127.098 23C123.371 23 120.865 25.0485 120.865 28.0991C120.865 29.0692 120.865 32.0196 125.876 33.2263L128.205 33.7634C130.366 34.3447 131.416 35.3669 131.416 36.8822C131.416 38.6581 129.665 39.8968 127.163 39.8968C124.486 39.8968 122.837 38.0969 122.345 37.4916L120.414 39.3516C121.73 40.8188 123.977 42.5586 127.192 42.5586C131.198 42.5586 134.22 40.1133 134.22 36.8742C134.22 33.9719 132.17 31.9595 128.254 31.0575" fill="white"/>
<path fill-rule="evenodd" clip-rule="evenodd" d="M145.508 31.0623L143.379 30.5894C141.091 30.1086 140.919 28.5859 140.919 28.109C140.919 26.5663 142.178 25.6807 144.372 25.6807C146.627 25.6807 148.275 27.1754 148.776 27.6843L150.736 25.805C148.899 23.9216 146.816 23 144.372 23C140.644 23 138.139 25.0476 138.139 28.097C138.139 29.0667 138.139 32.0159 143.15 33.2221L145.491 33.747C147.648 34.328 148.698 35.3498 148.698 36.8645C148.698 38.6397 146.951 39.8778 144.45 39.8778C141.772 39.8778 140.12 38.0787 139.632 37.4736L137.672 39.3529C138.988 40.8195 141.235 42.5586 144.45 42.5586C148.456 42.5586 151.478 40.1143 151.478 36.8765C151.478 33.9754 149.428 31.9639 145.512 31.0623" fill="white"/>
<path fill-rule="evenodd" clip-rule="evenodd" d="M102.287 35.241L105.46 29.5078L108.636 35.241H102.287ZM105.46 24.1504C105.351 24.1513 105.252 24.2116 105.206 24.3053L95.103 42.5585H98.239L100.823 37.8828H110.092L112.68 42.5585H115.812L105.713 24.3053C105.667 24.2122 105.568 24.1522 105.46 24.1504Z" fill="white"/>
<path fill-rule="evenodd" clip-rule="evenodd" d="M29.5242 35.8921L31.5873 37.9565L38.7283 30.8168L36.6609 28.7525L29.5242 35.8921Z" fill="white"/>
</svg>
