<svg width="125" height="67" viewBox="0 0 125 67" fill="none" xmlns="http://www.w3.org/2000/svg">
<path d="M17.8136 47.8729C15.9783 48.1955 14.1108 48.2922 12.1789 48.5497L6.28647 31.2764V49.2911C4.45123 49.4844 2.77695 49.7422 1.03821 50V17H5.93251L12.6296 35.7239V17H17.8136V47.8729ZM27.9561 29.085C29.9526 29.085 33.0114 28.9883 34.8466 28.9883V34.1444C32.5604 34.1444 29.8881 34.1444 27.9561 34.2411V41.9112C30.9829 41.7179 34.0095 41.4598 37.0682 41.3631V46.3257L22.8042 47.4539V17H37.0682V22.1563H27.9561V29.085V29.085ZM56.2263 22.1564H50.8814V45.8751C49.1427 45.8751 47.4039 45.8751 45.7299 45.9394V22.1564H40.385V17H56.2265L56.2263 22.1564V22.1564ZM64.5978 28.7306H71.6494V33.8867H64.5978V45.5851H59.5423V17H73.9355V22.1563H64.5978V28.7306V28.7306ZM82.307 41.0732C85.2372 41.1375 88.1992 41.3635 91.065 41.5243V46.6162C86.4607 46.326 81.8563 46.0363 77.1554 45.9394V17H82.307V41.0732ZM95.4118 46.9707C97.0539 47.0675 98.7926 47.1642 100.467 47.3573V17H95.4118V46.9707V46.9707ZM123.038 17L116.502 32.6944L123.038 50C121.106 49.7422 119.174 49.3877 117.242 49.0654L113.54 39.5265L109.773 48.2922C107.905 47.9696 106.102 47.8729 104.235 47.6151L110.867 32.5008L104.878 17H110.416L113.797 25.669L117.403 17H123.038V17Z" fill="white"/>
</svg>
