<svg  width="152" height="67" viewBox="-20 0 100 70" fill="none" xmlns="http://www.w3.org/2000/svg">
  <path fill-rule="evenodd" clip-rule="evenodd"
    d="M0.361694 14.6781H8.62259V37.0525C8.62259 40.5933 10.2275 42.7025 11.4966 43.6066C10.153 44.812 6.04731 45.8667 2.98671 43.3052C1.18229 41.7953 0.361694 39.3125 0.361694 36.977V14.6781ZM51.989 33.264V30.9126H54.5085V22.6636H51.7417C50.6795 17.7111 46.3105 14 41.0855 14C35.0663 14 30.1869 18.9245 30.1869 24.9989V44.2628C31.9018 44.506 33.9447 44.2326 35.6829 42.7779C37.4871 41.2678 38.3077 38.7853 38.3077 36.4498V35.7401H42.4335V27.4911H38.3077V24.9989H38.3176C38.3176 23.4563 39.5567 22.2057 41.0855 22.2057C42.614 22.2057 43.8581 23.4563 43.8581 24.9989V33.264C43.8581 39.3383 48.7426 44.2628 54.7616 44.2628V36.0571C53.2331 36.0571 51.989 34.8065 51.989 33.264ZM20.702 22.6636V34.7699C20.702 35.4572 20.137 36.0144 19.4398 36.0144C18.7426 36.0144 18.1776 35.4572 18.1776 34.7699V22.6636H10.0035V36.9019C10.0035 39.4631 10.8642 42.7025 14.7812 43.7572C18.7022 44.8131 20.9768 42.6273 20.9768 42.6273C20.7696 44.0673 19.4258 45.122 17.2611 45.3481C15.6232 45.5189 13.5286 44.9714 12.4837 44.5194V52.0628C15.1461 52.8552 17.9621 53.1112 20.718 52.5715C25.7193 51.5922 28.8758 47.3735 28.8758 41.7609V22.6636H20.702Z"
    fill="white" />
</svg>