<svg width="174" height="67" viewBox="0 0 174 67" fill="none" xmlns="http://www.w3.org/2000/svg">
<path fill-rule="evenodd" clip-rule="evenodd" d="M3.20583 16L6.93264 22.3427L0.399902 28.6752H11.6944L12.756 26.1372H6.52417L10.295 22.3259L8.0924 18.5372H18.3685L9.34742 40.1956H12.4384L22.5255 16H3.20583Z" fill="white"/>
<path fill-rule="evenodd" clip-rule="evenodd" d="M143.21 30.1146H146.228V44.2287H143.21V30.1146Z" fill="white"/>
<path fill-rule="evenodd" clip-rule="evenodd" d="M143.21 26.0817H146.228V29.1062H143.21V26.0817Z" fill="white"/>
<path fill-rule="evenodd" clip-rule="evenodd" d="M139.511 26.0817L136.261 40.9619H136.143L132.775 30.9221H130.437L126.592 40.9619H126.474L123.898 26.0817H121.085L124.61 45.2366H127.226L131.387 34.6311H131.505L135.113 45.2366H137.727L142.205 26.0817H139.511Z" fill="white"/>
<path fill-rule="evenodd" clip-rule="evenodd" d="M102.976 42.0049C100.432 42.0049 98.684 40.0478 98.684 37.2098C98.684 34.5637 100.194 32.2996 102.659 32.2996C105.48 32.2996 106.236 34.6019 106.315 36.0216H101.437L100.524 38.093H108.977C109.016 37.555 109.016 37.4025 109.016 37.1335C109.016 33.2209 106.99 30.1146 102.618 30.1146C98.8427 30.1146 95.9422 33.1051 95.9422 37.2098C95.9422 41.4295 98.7229 44.2287 102.697 44.2287C105.083 44.2287 107.189 43.3858 108.461 41.8898L106.871 40.3931C105.838 41.4295 104.486 42.0049 102.976 42.0049Z" fill="white"/>
<path fill-rule="evenodd" clip-rule="evenodd" d="M92.3215 29.99C92.3215 28.2597 93.1664 27.2759 94.7758 27.2759C95.3796 27.2759 96.345 27.4337 97.1095 27.7095L97.9536 25.7816C96.908 25.2705 95.6608 25.0735 94.6954 25.0735C91.9995 25.0735 89.6665 26.4107 89.6665 29.99V30.423H87.8965V32.626H89.6665V44.2284H92.3215V32.626H95.0167L95.9426 30.423H92.3215V29.99Z" fill="white"/>
<path fill-rule="evenodd" clip-rule="evenodd" d="M68.5142 30.1146C66.7733 30.1146 65.1904 30.7784 64.3989 32.1427H64.2812V30.388H61.7481V44.2287H64.3594V36.7443C64.3594 34.0143 65.7448 32.3759 67.9217 32.3759C69.9778 32.3759 71.2053 33.4675 71.2053 36.0015V44.2287H73.8166V35.5343C73.8166 32.0257 71.7597 30.1146 68.5142 30.1146Z" fill="white"/>
<path fill-rule="evenodd" clip-rule="evenodd" d="M56.1558 38.7208C56.1558 40.747 54.4261 42.048 52.0122 42.048C50.5644 42.048 49.3173 41.3982 49.3173 39.7909C49.3173 38.3005 50.6045 37.3058 52.5759 37.3058C54.3458 37.3058 55.5125 37.6113 56.1558 38.0703V38.7208ZM52.4145 30.1146C50.8462 30.1146 49.3574 30.3434 48.2316 30.7644L48.674 32.8314C49.9613 32.4484 51.0068 32.2949 52.0531 32.2949C54.3056 32.2949 56.1558 33.2897 56.1558 35.5081V35.8903C55.4322 35.6235 54.3056 35.2786 52.6562 35.2786C49.0354 35.2786 46.6625 37.0379 46.6625 39.9068C46.6625 42.8904 48.9953 44.2287 51.6099 44.2287C53.7828 44.2287 55.2708 43.3881 56.036 42.3926H56.1558V43.9619H58.731V35.4701C58.731 31.7606 56.2368 30.1146 52.4145 30.1146Z" fill="white"/>
<path fill-rule="evenodd" clip-rule="evenodd" d="M23.5312 26.0817V28.6634H29.631V45.2366H32.517V28.6634H38.6168V26.0817H23.5312Z" fill="white"/>
<path fill-rule="evenodd" clip-rule="evenodd" d="M46.6625 30.5086C45.7825 30.1538 44.8189 30.1146 44.2736 30.1146C42.7228 30.1146 41.2154 30.706 40.4183 31.7691H40.2928V30.2329H37.6111V44.2287H40.3773V36.5802C40.3773 33.6232 41.8854 32.4403 44.1063 32.4403C44.8607 32.4403 45.3635 32.5194 46.0343 32.6769L46.6625 30.5086Z" fill="white"/>
<path fill-rule="evenodd" clip-rule="evenodd" d="M120.079 30.5485C119.215 30.1944 118.269 30.1146 117.734 30.1146C116.212 30.1146 114.566 30.706 113.786 31.7713H113.66V30.2329H111.028V44.2287H113.744V36.581C113.744 33.6239 115.389 32.4418 117.569 32.4418C118.31 32.4418 118.804 32.5194 119.462 32.6776L120.079 30.5485Z" fill="white"/>
<path fill-rule="evenodd" clip-rule="evenodd" d="M167.342 42.0049C164.798 42.0049 163.05 40.0478 163.05 37.2098C163.05 34.5637 164.56 32.2996 167.023 32.2996C169.846 32.2996 170.6 34.6019 170.68 36.0216H165.802L164.888 38.093H173.343C173.382 37.555 173.382 37.4025 173.382 37.1335C173.382 33.2209 171.356 30.1146 166.984 30.1146C163.209 30.1146 160.308 33.1051 160.308 37.2098C160.308 41.4295 163.089 44.2287 167.063 44.2287C169.449 44.2287 171.555 43.3858 172.826 41.8898L171.236 40.3931C170.203 41.4295 168.852 42.0049 167.342 42.0049Z" fill="white"/>
<path fill-rule="evenodd" clip-rule="evenodd" d="M82.0284 36.1364C79.9616 35.8674 78.7458 35.4834 78.7458 34.1795C78.7458 32.9906 79.9616 32.2621 81.4613 32.2621C82.6763 32.2621 84.2165 32.7231 85.1881 33.4135L86.4855 31.5717C85.2705 30.6123 83.3251 30.1146 81.501 30.1146C78.381 30.1146 76.0707 31.9176 76.0707 34.2945C76.0707 37.0188 77.8948 37.9005 80.9751 38.3608C82.7175 38.6291 84.2165 38.8211 84.2165 40.2401C84.2165 41.4289 83 42.0812 81.3804 42.0812C79.7998 42.0812 78.381 41.659 77.0026 40.6234L75.828 42.6558C76.8408 43.5383 78.9488 44.2287 81.2987 44.2287C84.5409 44.2287 86.8908 42.4264 86.8908 40.0099C86.8908 37.0951 84.46 36.4435 82.0284 36.1364Z" fill="white"/>
<path fill-rule="evenodd" clip-rule="evenodd" d="M154.439 36.1364C152.372 35.8674 151.156 35.4834 151.156 34.1795C151.156 32.9906 152.372 32.2621 153.872 32.2621C155.087 32.2621 156.628 32.7231 157.6 33.4135L158.897 31.571C157.681 30.6123 155.736 30.1146 153.912 30.1146C150.792 30.1146 148.482 31.9169 148.482 34.2945C148.482 37.0181 150.305 37.8998 153.385 38.3601C155.128 38.6291 156.628 38.8204 156.628 40.2394C156.628 41.4282 155.412 42.0812 153.791 42.0812C152.21 42.0812 150.792 41.659 149.413 40.6227L148.239 42.6566C149.251 43.5383 151.358 44.2287 153.71 44.2287C156.952 44.2287 159.302 42.4257 159.302 40.0099C159.302 37.0951 156.871 36.4428 154.439 36.1364Z" fill="white"/>
</svg>
