<svg width="489" height="198" viewBox="0 0 489 198" fill="none" xmlns="http://www.w3.org/2000/svg">
<path fill-rule="evenodd" clip-rule="evenodd" d="M19.6469 43.4988H16.9849V53H12.9938V43.5H11V40.2253H12.9938V38.2594C12.9938 35.5882 14.1197 34 17.3178 34H19.981V37.2747H18.3165C17.0717 37.2747 16.9885 37.7331 16.9885 38.5857L16.9849 40.2253H20L19.6469 43.4988Z" fill="#CCCCCC"/>
<path d="M11.7336 63.6187C8.95855 64.5938 6.55855 66.6939 5.20855 69.3189C4.75855 70.219 4.38355 71.1937 4.23355 72.2437C3.70855 74.7188 4.08355 77.419 5.20855 79.669C5.95855 81.169 7.00855 82.4438 8.35855 83.4937C9.55855 84.4688 10.9836 85.219 12.5586 85.594C14.5086 86.1189 16.5336 86.119 18.4086 85.669C20.1336 85.294 21.7836 84.469 23.1336 83.194C24.5586 81.919 25.5336 80.2688 26.0586 78.3939C26.6586 76.4439 26.7336 74.344 26.3586 72.319C22.7586 72.319 19.1586 72.319 15.5586 72.319C15.5586 73.819 15.5586 75.319 15.5586 76.819C17.6586 76.819 19.7586 76.819 21.7836 76.819C21.5586 78.244 20.6586 79.594 19.4586 80.344C18.7086 80.8689 17.8086 81.169 16.9086 81.319C16.0086 81.469 15.0336 81.469 14.1336 81.319C13.2336 81.169 12.3336 80.719 11.5836 80.194C10.3836 79.3689 9.40855 78.094 8.95855 76.6689C8.43355 75.2439 8.43355 73.6689 8.95855 72.1689C9.33355 71.1939 9.85855 70.219 10.6086 69.469C11.5086 68.494 12.7086 67.8189 14.0586 67.594C15.1836 67.369 16.3086 67.3688 17.4336 67.7438C18.3336 68.0438 19.2336 68.5689 19.9086 69.1689C20.5836 68.4939 21.3336 67.744 22.0086 67.0689C22.3836 66.6939 22.7586 66.3189 23.1336 65.9439C22.0836 64.9689 20.8086 64.1437 19.4586 63.6187C16.9836 62.7937 14.2086 62.7937 11.7336 63.6187Z" fill="white"/>
<path d="M11.7336 63.6187C14.2086 62.7937 16.984 62.7941 19.459 63.6941C20.809 64.2191 22.084 64.9691 23.134 66.0191C22.759 66.3941 22.384 66.7691 22.009 67.1441C21.334 67.8191 20.584 68.5691 19.909 69.2441C19.234 68.5691 18.334 68.0441 17.434 67.8191C16.384 67.5191 15.184 67.4441 14.059 67.6691C12.784 67.9691 11.584 68.6441 10.609 69.5441C9.85898 70.2941 9.25898 71.2691 8.95898 72.2441C7.68398 71.2691 6.48355 70.2939 5.20855 69.3189C6.55855 66.6939 8.95855 64.5938 11.7336 63.6187Z" fill="#EA4335"/>
<path d="M4.23355 72.2437C4.45855 71.2687 4.75855 70.2939 5.20855 69.3189C6.48355 70.2939 7.68398 71.2691 8.95898 72.2441C8.43398 73.6691 8.43355 75.2439 8.95855 76.7439C7.68355 77.7189 6.48355 78.694 5.20855 79.669C4.08355 77.344 3.70855 74.7187 4.23355 72.2437Z" fill="#FBBC05"/>
<path d="M15.4834 72.3189C19.0834 72.3189 22.6834 72.3189 26.2834 72.3189C26.6584 74.3439 26.5834 76.4439 25.9834 78.3939C25.4584 80.1939 24.4834 81.8439 23.0584 83.1939C21.8584 82.2189 20.6584 81.3189 19.3834 80.3439C20.5834 79.5189 21.4084 78.2439 21.7084 76.8189C19.6084 76.8189 17.5084 76.8189 15.4834 76.8189C15.4834 75.3189 15.4834 73.8189 15.4834 72.3189Z" fill="#4285F4"/>
<path d="M5.20855 79.669C6.48355 78.694 7.68355 77.7189 8.95855 76.7439C9.40855 78.1689 10.384 79.444 11.584 80.269C12.334 80.794 13.234 81.169 14.134 81.394C15.034 81.544 15.934 81.544 16.909 81.394C17.809 81.244 18.709 80.869 19.459 80.419C20.659 81.394 21.859 82.294 23.134 83.269C21.784 84.469 20.209 85.2939 18.409 85.7439C16.459 86.1939 14.434 86.194 12.559 85.669C11.059 85.294 9.63398 84.544 8.35898 83.569C7.08398 82.444 5.95855 81.094 5.20855 79.669Z" fill="#34A853"/>
<path fill-rule="evenodd" clip-rule="evenodd" d="M49.6469 43.4988H46.9849V53H42.9938V43.5H41V40.2253H42.9938V38.2594C42.9938 35.5882 44.1197 34 47.3178 34H49.981V37.2747H48.3165C47.0717 37.2747 46.9885 37.7331 46.9885 38.5857L46.9849 40.2253H50L49.6469 43.4988Z" fill="#007DF0"/>
<path fill-rule="evenodd" clip-rule="evenodd" d="M55.1174 8.25017C55.0296 8.39742 54.5783 8.91398 54.0962 9.38542C53.2792 10.1965 53.2353 10.2844 53.2353 10.9636C53.2353 12.0098 52.7401 14.1936 52.2437 15.387C51.3246 17.629 49.3557 19.9447 47.3856 21.1108C44.614 22.7472 40.9233 23.1616 37.8156 22.2021C36.7801 21.8767 35 21.0514 35 20.9042C35 20.859 35.5391 20.8009 36.197 20.7854C37.5686 20.7569 38.9401 20.3745 40.1062 19.6941L40.8936 19.2215L39.9887 18.9127C38.705 18.4698 37.5531 17.4521 37.261 16.4938C37.1731 16.1839 37.2028 16.1684 38.0186 16.1684L38.8641 16.1542L38.1493 15.8145C37.3026 15.3859 36.5295 14.665 36.1507 13.9264C35.874 13.3956 35.5237 12.0537 35.6258 11.9504C35.6555 11.9065 35.9619 11.9955 36.311 12.1131C37.3168 12.4824 37.4486 12.3934 36.8656 11.7735C35.7719 10.6525 35.4358 8.98642 35.9607 7.40823L36.2089 6.70048L37.1719 7.65879C39.142 9.59085 41.4612 10.7415 44.1152 11.08L44.8444 11.1679L44.8004 10.4447C44.6698 8.57198 45.8217 6.86079 47.6457 6.19698C48.3166 5.96067 49.4554 5.93217 50.1988 6.1376C50.4909 6.22548 51.0443 6.52117 51.4386 6.78598L52.1534 7.27285L52.9408 7.0211C53.3789 6.88929 53.962 6.66723 54.2244 6.51998C54.4726 6.38698 54.6911 6.31335 54.6911 6.35729C54.6911 6.60785 54.1508 7.46404 53.6996 7.93548C53.0856 8.59929 53.2614 8.65867 54.5011 8.21573C55.2481 7.96992 55.2635 7.96992 55.1174 8.25017Z" fill="#00BDFF"/>
<path d="M72.9927 21.0712C72.6399 21.0719 72.3013 20.9321 72.0518 20.6826L66.4069 15.0364C66.0608 14.7025 65.9217 14.2079 66.0432 13.7425C66.1646 13.2772 66.5277 12.9136 66.9929 12.7915C67.458 12.6694 67.9529 12.8078 68.2873 13.1534L72.9913 17.8575L81.4613 9.39017C81.9809 8.8702 82.8237 8.86991 83.3436 9.3895C83.8636 9.9091 83.8639 10.7518 83.3443 11.2718L73.9335 20.6826C73.684 20.9321 73.3455 21.0719 72.9927 21.0712Z" fill="#FF2D60" stroke="#FF2D60"/>
<path fill-rule="evenodd" clip-rule="evenodd" d="M65 45C65 50.523 69.477 55 75 55C80.523 55 85 50.523 85 45C85 39.477 80.523 35 75 35C69.477 35 65 39.477 65 45ZM80.001 45C80.001 45.2654 79.8952 45.5199 79.707 45.707L75.464 49.95C75.0716 50.329 74.4479 50.3236 74.0622 49.9378C73.6764 49.5521 73.671 48.9284 74.05 48.536L76.586 46H71C70.4477 46 70 45.5523 70 45C70 44.4477 70.4477 44 71 44H76.586L74.05 41.464C73.671 41.0716 73.6764 40.4479 74.0622 40.0622C74.4479 39.6764 75.0716 39.671 75.464 40.05L79.707 44.293C79.8952 44.4801 80.001 44.7346 80.001 45Z" fill="#FF2D60"/>
<path fill-rule="evenodd" clip-rule="evenodd" d="M25.1174 8.25017C25.0296 8.39742 24.5783 8.91398 24.0962 9.38542C23.2792 10.1965 23.2353 10.2844 23.2353 10.9636C23.2353 12.0098 22.7401 14.1936 22.2437 15.387C21.3246 17.629 19.3557 19.9447 17.3856 21.1108C14.614 22.7472 10.9233 23.1616 7.81556 22.2021C6.78006 21.8767 5 21.0514 5 20.9042C5 20.859 5.53913 20.8009 6.197 20.7854C7.56856 20.7569 8.94012 20.3745 10.1062 19.6941L10.8936 19.2215L9.98869 18.9127C8.705 18.4698 7.55312 17.4521 7.261 16.4938C7.17313 16.1839 7.20281 16.1684 8.01863 16.1684L8.86413 16.1542L8.14925 15.8145C7.30256 15.3859 6.5295 14.665 6.15069 13.9264C5.874 13.3956 5.52369 12.0537 5.62581 11.9504C5.6555 11.9065 5.96187 11.9955 6.311 12.1131C7.31681 12.4824 7.44863 12.3934 6.86556 11.7735C5.77188 10.6525 5.43581 8.98642 5.96069 7.40823L6.20887 6.70048L7.17194 7.65879C9.142 9.59085 11.4612 10.7415 14.1152 11.08L14.8444 11.1679L14.8004 10.4447C14.6698 8.57198 15.8217 6.86079 17.6457 6.19698C18.3166 5.96067 19.4554 5.93217 20.1988 6.1376C20.4909 6.22548 21.0443 6.52117 21.4386 6.78598L22.1534 7.27285L22.9408 7.0211C23.3789 6.88929 23.962 6.66723 24.2244 6.51998C24.4726 6.38698 24.6911 6.31335 24.6911 6.35729C24.6911 6.60785 24.1508 7.46404 23.6996 7.93548C23.0856 8.59929 23.2614 8.65867 24.5011 8.21573C25.2481 7.96992 25.2635 7.96992 25.1174 8.25017Z" fill="#CCCCCC"/>
<path opacity="0.904851" d="M35 169H13V171H35V169Z" fill="white"/>
<path opacity="0.904851" d="M35 175H13V177H35V175Z" fill="white"/>
<path opacity="0.904851" d="M35 181H13V183H35V181Z" fill="white"/>
<path d="M83 169H61V171H83V169Z" fill="white"/>
<path d="M83 175H61V177H83V175Z" fill="white"/>
<path d="M83 181H61V183H83V181Z" fill="white"/>
<path d="M128.556 181.556L113 166L111.586 167.414L127.142 182.971L128.556 181.556Z" fill="white"/>
<path d="M127.556 166.444L112 182L113.414 183.414L128.971 167.858L127.556 166.444Z" fill="white"/>
<path fill-rule="evenodd" clip-rule="evenodd" d="M176.111 182.574C174.047 182.574 174.209 179.66 176.111 179.66C178.014 179.66 178.175 182.574 176.111 182.574ZM159.055 182.574C156.991 182.574 157.153 179.66 159.055 179.66C160.957 179.66 161.119 182.574 159.055 182.574ZM182.348 171.809H181.648C180.394 171.809 179.317 171.059 178.835 169.985C178.353 171.059 177.276 171.809 176.022 171.809C174.768 171.809 173.691 171.059 173.209 169.985C172.727 171.059 171.65 171.809 170.396 171.809C169.142 171.809 168.065 171.059 167.583 169.985C167.101 171.059 166.024 171.809 164.77 171.809C163.516 171.809 162.439 171.059 161.957 169.985C161.475 171.059 160.398 171.809 159.144 171.809C157.89 171.809 156.813 171.059 156.331 169.985C155.849 171.059 154.772 171.809 153.518 171.809H152.827C151.778 172.937 152.443 173.89 155.033 173.89V179.685C155.033 185.131 161.305 187.854 167.576 187.854C173.848 187.854 180.119 185.131 180.119 179.685V173.89C182.712 173.89 183.388 172.937 182.348 171.809Z" fill="black"/>
<path fill-rule="evenodd" clip-rule="evenodd" d="M167.784 153.167C166.866 153.167 165.987 153.455 165.257 153.961C164.75 153.763 164.204 153.659 163.643 153.659C163.256 153.659 162.869 153.71 162.493 153.81C161.604 154.048 160.829 154.555 160.254 155.234C160.092 155.216 159.928 155.207 159.764 155.207C158.989 155.207 158.223 155.412 157.549 155.801C156.753 156.261 156.135 156.951 155.756 157.755C154.825 157.895 153.966 158.326 153.288 159.004C152.637 159.655 152.219 160.482 152.061 161.358C151.209 161.733 150.48 162.372 150.002 163.2C149.542 163.997 149.352 164.903 149.426 165.789C148.703 166.368 148.164 167.171 147.914 168.104C147.676 168.992 147.727 169.917 148.028 170.754C147.479 171.5 147.166 172.416 147.166 173.381C147.166 174.301 147.455 175.18 147.962 175.911C147.625 176.774 147.56 177.739 147.81 178.672C148.048 179.56 148.554 180.335 149.233 180.909C149.132 181.83 149.318 182.779 149.801 183.615C150.26 184.41 150.949 185.029 151.755 185.409C151.896 186.325 152.321 187.193 153.004 187.875C153.654 188.525 154.471 188.949 155.358 189.106C155.731 189.953 156.366 190.679 157.2 191.161C157.875 191.55 158.641 191.756 159.416 191.756C159.543 191.756 159.668 191.751 159.792 191.74C160.371 192.462 161.173 193 162.105 193.249C162.48 193.35 162.867 193.401 163.254 193.401C163.774 193.401 164.283 193.31 164.759 193.139C165.505 193.685 166.419 193.997 167.382 193.997C168.301 193.997 169.18 193.709 169.909 193.203C170.416 193.401 170.962 193.505 171.524 193.505C171.911 193.505 172.297 193.454 172.673 193.353C173.562 193.115 174.337 192.608 174.912 191.929C175.074 191.948 175.238 191.957 175.402 191.957C176.177 191.957 176.944 191.751 177.617 191.362C178.414 190.903 179.031 190.213 179.41 189.409C180.341 189.269 181.2 188.837 181.878 188.159C182.529 187.509 182.947 186.681 183.105 185.805C183.957 185.43 184.686 184.792 185.164 183.963C185.624 183.167 185.814 182.261 185.74 181.375C186.463 180.795 187.002 179.993 187.252 179.06C187.49 178.171 187.439 177.247 187.138 176.41C187.687 175.663 188 174.748 188 173.783C188 172.863 187.711 171.983 187.204 171.253C187.541 170.39 187.606 169.425 187.356 168.492C187.118 167.604 186.612 166.829 185.933 166.254C186.035 165.334 185.848 164.385 185.365 163.548C184.906 162.754 184.218 162.134 183.411 161.754C183.27 160.839 182.845 159.971 182.162 159.288C181.512 158.638 180.695 158.215 179.808 158.058C179.436 157.211 178.801 156.484 177.966 156.002C177.292 155.613 176.526 155.408 175.75 155.408C175.624 155.408 175.498 155.413 175.374 155.423C174.795 154.702 173.993 154.164 173.062 153.914C172.686 153.814 172.299 153.763 171.912 153.763C171.392 153.763 170.884 153.853 170.407 154.025C169.661 153.479 168.747 153.167 167.784 153.167ZM167.784 155.355C168.707 155.355 169.499 155.911 169.846 156.706C169.881 156.786 169.958 156.829 170.036 156.829C170.091 156.829 170.146 156.807 170.186 156.759C170.61 156.254 171.241 155.951 171.912 155.951C172.104 155.951 172.3 155.976 172.495 156.028C173.388 156.268 174.01 157.012 174.138 157.871C174.154 157.974 174.245 158.041 174.34 158.041C174.379 158.041 174.418 158.03 174.453 158.005C174.834 157.739 175.288 157.596 175.75 157.596C176.131 157.596 176.517 157.693 176.872 157.898C177.672 158.36 178.08 159.239 177.981 160.103C177.967 160.225 178.069 160.326 178.184 160.326C178.206 160.326 178.228 160.322 178.251 160.314C178.5 160.223 178.763 160.177 179.025 160.177C179.6 160.177 180.176 160.396 180.615 160.836C181.268 161.49 181.435 162.445 181.116 163.253C181.064 163.384 181.167 163.528 181.304 163.528C181.31 163.528 181.316 163.527 181.322 163.527C181.387 163.521 181.453 163.518 181.519 163.518C182.297 163.518 183.053 163.92 183.47 164.643C183.932 165.443 183.845 166.409 183.328 167.107C183.241 167.225 183.312 167.399 183.456 167.425C184.292 167.572 185.008 168.185 185.242 169.058C185.482 169.952 185.148 170.862 184.468 171.403C184.353 171.494 184.376 171.68 184.509 171.743C185.278 172.101 185.811 172.879 185.811 173.783C185.811 174.706 185.256 175.497 184.461 175.845C184.324 175.904 184.294 176.089 184.407 176.185C185.058 176.73 185.373 177.619 185.138 178.493C184.899 179.386 184.155 180.008 183.295 180.136C183.15 180.158 183.077 180.331 183.161 180.451C183.648 181.146 183.721 182.086 183.269 182.869C182.852 183.591 182.096 183.993 181.318 183.993C181.233 183.993 181.148 183.989 181.063 183.979C181.056 183.978 181.048 183.978 181.041 183.978C180.906 183.978 180.805 184.118 180.852 184.248C181.143 185.045 180.97 185.973 180.33 186.612C179.891 187.051 179.316 187.27 178.741 187.27C178.46 187.27 178.178 187.218 177.913 187.113C177.889 187.104 177.865 187.1 177.842 187.1C177.729 187.1 177.629 187.198 177.639 187.319C177.714 188.164 177.307 189.015 176.523 189.467C176.169 189.671 175.783 189.768 175.402 189.768C174.921 189.768 174.448 189.614 174.058 189.326C174.023 189.299 173.982 189.287 173.942 189.287C173.849 189.287 173.759 189.352 173.741 189.453C173.594 190.289 172.98 191.005 172.107 191.239C171.912 191.292 171.716 191.316 171.524 191.316C170.834 191.316 170.186 190.996 169.762 190.465C169.723 190.415 169.665 190.391 169.607 190.391C169.532 190.391 169.458 190.431 169.423 190.506C169.064 191.275 168.286 191.808 167.382 191.808C166.459 191.808 165.667 191.252 165.32 190.458C165.285 190.378 165.208 190.335 165.131 190.335C165.075 190.335 165.02 190.357 164.98 190.404C164.557 190.91 163.925 191.212 163.255 191.212C163.062 191.212 162.866 191.188 162.671 191.135C161.778 190.896 161.157 190.152 161.028 189.292C161.013 189.189 160.921 189.123 160.826 189.123C160.788 189.123 160.748 189.134 160.713 189.158C160.333 189.425 159.879 189.568 159.417 189.568C159.035 189.568 158.649 189.471 158.295 189.266C157.494 188.804 157.087 187.924 157.185 187.061C157.199 186.939 157.097 186.838 156.983 186.838C156.961 186.838 156.938 186.841 156.915 186.85C156.666 186.941 156.404 186.986 156.142 186.986C155.566 186.986 154.991 186.767 154.552 186.328C153.898 185.674 153.732 184.719 154.05 183.91C154.102 183.78 154 183.636 153.862 183.636C153.856 183.636 153.851 183.636 153.845 183.637C153.779 183.643 153.713 183.646 153.647 183.646C152.87 183.646 152.113 183.243 151.696 182.521C151.234 181.72 151.321 180.755 151.838 180.056C151.925 179.938 151.855 179.764 151.71 179.739C150.875 179.592 150.158 178.978 149.924 178.105C149.685 177.212 150.018 176.302 150.699 175.761C150.813 175.67 150.79 175.483 150.657 175.421C149.888 175.063 149.355 174.285 149.355 173.381C149.355 172.458 149.911 171.666 150.706 171.319C150.842 171.259 150.873 171.074 150.759 170.979C150.108 170.434 149.794 169.544 150.028 168.67C150.267 167.777 151.011 167.156 151.871 167.027C152.016 167.006 152.089 166.833 152.005 166.712C151.518 166.018 151.445 165.077 151.898 164.295C152.314 163.572 153.07 163.17 153.848 163.17C153.933 163.17 154.018 163.175 154.103 163.185C154.111 163.186 154.118 163.186 154.126 163.186C154.26 163.186 154.362 163.046 154.314 162.915C154.024 162.118 154.196 161.191 154.836 160.552C155.275 160.112 155.85 159.893 156.426 159.893C156.707 159.893 156.988 159.946 157.254 160.05C157.277 160.06 157.301 160.064 157.325 160.064C157.437 160.064 157.538 159.965 157.527 159.845C157.453 159 157.86 158.149 158.643 157.697C158.997 157.492 159.383 157.395 159.765 157.395C160.245 157.395 160.718 157.55 161.108 157.838C161.144 157.864 161.184 157.876 161.224 157.876C161.317 157.876 161.408 157.811 161.426 157.71C161.573 156.875 162.186 156.158 163.059 155.924C163.255 155.872 163.45 155.847 163.643 155.847C164.332 155.847 164.981 156.167 165.404 156.699C165.444 156.749 165.501 156.773 165.559 156.773C165.634 156.773 165.709 156.733 165.744 156.658C166.102 155.889 166.88 155.355 167.784 155.355Z" fill="black"/>
<path d="M111.25 16.8222C111.25 13.3857 108.452 10.5999 105 10.5999C101.548 10.5999 98.75 13.3857 98.75 16.8222H100.536C100.536 14.3676 102.534 12.3777 105 12.3777C107.466 12.3777 109.464 14.3676 109.464 16.8222" fill="black" fill-opacity="0.1"/>
<path d="M104.955 19.0088C107.174 19.0088 108.973 17.218 108.973 15.0088C108.973 12.7997 107.174 11.0088 104.955 11.0088C102.736 11.0088 100.938 12.7997 100.938 15.0088C100.938 17.218 102.736 19.0088 104.955 19.0088Z" fill="#2287FF" stroke="white"/>
<path d="M113.929 10.5999C112.346 7.43045 109.193 5.33563 105.646 5.09777C102.099 4.85991 98.6912 6.51477 96.6963 9.44433L100.714 16.3777C100.291 15.038 100.529 13.5778 101.355 12.4397C102.182 11.3016 103.5 10.6194 104.911 10.5999" fill="#F13629"/>
<path d="M96.6966 9.44434C94.721 12.3784 94.4549 16.135 95.9974 19.3161C97.5399 22.4971 100.66 24.6262 104.196 24.911L108.393 17.7999C107.36 19.0465 105.729 19.6366 104.133 19.341C102.537 19.0454 101.228 17.9107 100.714 16.3777" fill="#00A250"/>
<path d="M104.196 24.911C107.773 25.1802 111.22 23.5219 113.231 20.5651C115.242 17.6083 115.508 13.8058 113.929 10.5999H104.911C106.618 10.6077 108.172 11.5846 108.913 13.1163C109.653 14.648 109.452 16.4661 108.393 17.7999" fill="#FFCC00"/>
<path fill-rule="evenodd" clip-rule="evenodd" d="M138.656 3C138.79 4.22955 138.3 5.46528 137.571 6.35297C136.841 7.24121 135.645 7.93109 134.473 7.83993C134.314 6.63472 134.905 5.37724 135.581 4.59159C136.335 3.70439 137.606 3.04248 138.656 3ZM142.996 18.4039C142.87 18.3529 140.227 17.2767 140.198 14.1566C140.175 11.5548 142.266 10.2761 142.445 10.1663C142.449 10.164 142.452 10.1622 142.454 10.1609C141.227 8.35444 139.316 8.10636 138.636 8.07786C137.641 7.97648 136.676 8.35932 135.888 8.67195C135.388 8.87045 134.959 9.04065 134.639 9.04065C134.282 9.04065 133.841 8.86469 133.346 8.66726C132.698 8.40875 131.958 8.11343 131.193 8.1281C129.42 8.15402 127.787 9.16446 126.873 10.7601C125.033 13.9733 126.403 18.7335 128.196 21.3407C129.074 22.6153 130.12 24.0509 131.493 23.9986C132.107 23.9743 132.544 23.7872 132.996 23.5937C133.517 23.3705 134.058 23.1389 134.913 23.1389C135.731 23.1389 136.248 23.3638 136.745 23.5801C137.22 23.7867 137.676 23.9853 138.359 23.9727C139.782 23.9463 140.685 22.6717 141.555 21.3924C142.529 19.9605 142.949 18.5727 142.997 18.4171C142.998 18.4119 142.999 18.4081 143 18.4056C142.999 18.4054 142.998 18.4048 142.996 18.4039Z" fill="#FF2D60"/>
<path d="M128.273 40.3496C127.57 40.3496 127 40.9198 127 41.6223V46.7132C127 47.4158 127.57 47.9859 128.273 47.9859C128.975 47.9859 129.545 47.4158 129.545 46.7132V41.6223C129.545 40.9191 128.975 40.3496 128.273 40.3496Z" fill="#FF2D60"/>
<path d="M142.273 40.3496C141.57 40.3496 141 40.9198 141 41.6223V46.7132C141 47.4158 141.57 47.9859 142.273 47.9859C142.975 47.9859 143.545 47.4158 143.545 46.7132V41.6223C143.545 40.9191 142.975 40.3496 142.273 40.3496Z" fill="#FF2D60"/>
<path d="M130.182 50.5316H131.455V53.7134C131.455 54.4159 132.025 54.9861 132.727 54.9861C133.43 54.9861 134 54.4159 134 53.7134V50.5316H136.545V53.7134C136.545 54.4159 137.116 54.9861 137.818 54.9861C138.521 54.9861 139.091 54.4159 139.091 53.7134V50.5316H140.364V40.9861H130.182V50.5316Z" fill="#FF2D60"/>
<path fill-rule="evenodd" clip-rule="evenodd" d="M138.278 36.2464L138.932 35.1143C139.02 34.9616 138.968 34.7675 138.815 34.679C138.663 34.5906 138.468 34.6428 138.38 34.7961L137.743 35.8996C137.011 35.4923 136.17 35.2588 135.273 35.2588C134.376 35.2588 133.535 35.4923 132.802 35.9002L132.165 34.7955C132.076 34.6434 131.883 34.5912 131.729 34.679C131.578 34.7668 131.526 34.9609 131.613 35.1137L132.267 36.2464C131.005 37.1729 130.182 38.6633 130.182 40.3497H140.364C140.364 38.6633 139.54 37.1729 138.278 36.2464ZM133.364 38.4406C133.012 38.4406 132.727 38.1561 132.727 37.8042C132.727 37.4523 133.012 37.1678 133.364 37.1678C133.716 37.1678 134 37.4523 134 37.8042C134 38.1561 133.716 38.4406 133.364 38.4406ZM136.545 37.8042C136.545 38.1561 136.83 38.4406 137.182 38.4406C137.534 38.4406 137.818 38.1561 137.818 37.8042C137.818 37.4523 137.534 37.1678 137.182 37.1678C136.83 37.1678 136.545 37.4523 136.545 37.8042Z" fill="#FF2D60"/>
<path fill-rule="evenodd" clip-rule="evenodd" d="M163.732 22.9452L156.341 21.8744V15.8745H163.732V22.9452Z" fill="#FF2D60"/>
<path fill-rule="evenodd" clip-rule="evenodd" d="M163.732 14.8644H156.342V8.86375L163.732 7.79297V14.8644Z" fill="#FF2D60"/>
<path fill-rule="evenodd" clip-rule="evenodd" d="M174.659 24.5283L164.743 23.0925V15.8745H174.659V24.5283Z" fill="#FF2D60"/>
<path fill-rule="evenodd" clip-rule="evenodd" d="M174.659 14.8642H164.743V7.64563L174.659 6.21045V14.8642Z" fill="#FF2D60"/>
<path d="M196.855 16.0981V9.47707L201.395 11.4949L196.855 16.0981ZM188.153 24.8L193.765 14.3325L196.224 16.7917L188.153 24.8ZM185 5L196.476 9.16178V16.4764L185 5Z" fill="#FF2D60"/>
<path d="M203.728 9.16162H197.107L205.62 13.0081L203.728 9.16162Z" fill="#FF2D60"/>
<path fill-rule="evenodd" clip-rule="evenodd" d="M156.88 50.7497C157.373 50.5887 157.62 50.0142 157.439 49.5024C157.335 50.0662 156.976 50.4335 156.444 50.5261C156.305 50.5504 156.164 50.5627 156.023 50.575H156.022V50.5751C155.886 50.587 155.749 50.599 155.613 50.6217C155.233 50.6858 155.1 50.8588 155.14 51.2464C155.163 51.4714 155.219 51.6944 155.276 51.9139C155.393 52.3593 155.389 52.7819 155.198 53.2184C154.8 54.1268 154.979 54.4614 155.947 54.6851C156.262 54.758 156.579 54.8264 156.895 54.8949C157.45 55.0149 158.004 55.1348 158.553 55.2787C158.922 55.3755 159.283 55.5054 159.644 55.6354C159.852 55.7102 160.059 55.7849 160.269 55.8535C160.775 56.0191 161.247 55.9374 161.677 55.6177C161.765 55.5525 161.855 55.49 161.945 55.4275C161.988 55.397 162.032 55.3664 162.076 55.3355C162.533 55.0127 163.041 54.8545 163.597 54.8457C163.688 54.8443 163.778 54.8389 163.868 54.8335C163.976 54.8271 164.084 54.8207 164.192 54.821L164.452 54.8218H164.453C165.32 54.8243 166.188 54.8268 167.056 54.8415C167.336 54.8462 167.552 54.999 167.686 55.2517C167.918 55.6924 168.293 55.9162 168.77 55.9657C169.303 56.0209 169.847 56.0597 170.285 55.6648C171.096 54.9324 171.956 54.2815 172.966 53.8463C173.249 53.7243 173.512 53.5519 173.772 53.3821L173.786 53.3733C173.927 53.2809 174.056 53.1579 174.164 53.0268C174.375 52.7715 174.375 52.4998 174.144 52.2652C173.988 52.1061 173.804 51.9607 173.607 51.8596C172.996 51.5458 172.651 51.0489 172.534 50.3763C172.515 50.2673 172.498 50.1579 172.478 50.0279V50.0275V50.0272C172.468 49.9603 172.457 49.8879 172.444 49.8073C172.234 50.2329 172.257 50.6009 172.337 50.9692C172.447 51.4726 172.701 51.8521 173.22 52.0108C173.399 52.0655 173.571 52.1566 173.731 52.2564C174.167 52.5297 174.184 52.8427 173.75 53.1107C173.453 53.2938 173.127 53.443 172.795 53.5499C171.932 53.8284 171.152 54.2441 170.482 54.8636C170.409 54.9311 170.331 54.9952 170.248 55.049C169.75 55.3707 169.219 55.5436 168.675 55.2057C168.152 54.8807 168.083 54.3385 168.161 53.7793C168.298 52.7981 168.359 51.8304 168.093 50.851C168.001 50.5104 168.067 50.1106 168.127 49.7494C168.155 49.5849 168.32 49.3678 168.47 49.3182C168.67 49.2516 168.781 49.4342 168.88 49.5972C168.895 49.6215 168.909 49.6454 168.923 49.6679C168.959 49.7231 168.987 49.7833 169.015 49.8435C169.025 49.866 169.036 49.8885 169.047 49.9107C169.35 50.5299 169.794 50.7405 170.464 50.5951C170.908 50.4986 171.204 50.207 171.473 49.8635C171.568 49.7414 171.673 49.6274 171.779 49.5135V49.5133V49.5131C171.833 49.4556 171.886 49.3981 171.938 49.3395C171.972 49.3008 172.011 49.2635 172.05 49.2261C172.141 49.139 172.232 49.0516 172.267 48.9456C172.348 48.7 172.4 48.4263 172.386 48.1689C172.27 46.0966 171.624 44.202 170.244 42.6574C168.86 41.1075 168.192 39.3221 168.252 37.2738C168.318 35.0007 166.993 33.3338 164.774 33.0344C162.76 32.7628 161.301 34.1349 161.299 35.899C161.298 37.125 161.357 38.3514 161.415 39.577V39.5771V39.5772C161.425 39.7809 161.434 39.9845 161.444 40.1881C161.456 40.4633 161.454 40.7185 161.305 40.9469C161.194 41.1186 161.085 41.2926 160.977 41.4666V41.4667C160.68 41.9408 160.384 42.4152 160.033 42.8435C159.45 43.5547 159.066 44.3514 158.765 45.2049L158.698 45.3935C158.462 46.0684 158.226 46.7425 157.844 47.3553C157.745 47.513 157.681 47.7054 157.65 47.8903C157.592 48.2425 157.538 48.6034 157.707 48.9477C158.4 48.7177 158.607 48.7692 159.129 49.3084C159.286 49.4708 159.445 49.6376 159.571 49.8247C159.708 50.0281 159.845 50.231 159.983 50.434C160.498 51.193 161.013 51.9522 161.484 52.7376C161.73 53.146 161.868 53.6406 161.965 54.1148C162.09 54.7274 161.76 55.168 161.161 55.3452C160.696 55.4823 160.251 55.38 159.804 55.2604L159.304 55.1262C158.575 54.9305 157.846 54.7349 157.116 54.549C156.912 54.4973 156.706 54.4568 156.5 54.4163V54.4162C156.29 54.3751 156.081 54.3339 155.874 54.281C155.364 54.15 155.278 53.9483 155.494 53.4656C155.547 53.3495 155.602 53.2347 155.659 53.1211C155.831 52.7792 155.82 52.4381 155.663 52.0948C155.645 52.0574 155.628 52.0201 155.61 51.9829V51.9828C155.547 51.8471 155.483 51.7111 155.434 51.57C155.255 51.0487 155.43 50.8492 155.98 50.8653C156.28 50.874 156.596 50.8423 156.88 50.7497ZM168.988 43.5387V43.5386H168.987C168.923 43.4301 168.859 43.3217 168.796 43.2123C170.132 44.5467 170.534 46.1526 170.168 47.9926L170.287 48.074L170.288 48.0741C170.431 48.1716 170.581 48.2736 170.73 48.3781C170.745 48.3887 170.754 48.4075 170.77 48.44C170.78 48.46 170.792 48.4853 170.81 48.517C170.359 48.28 169.933 48.2054 169.489 48.2815C169.111 48.3463 168.809 48.5132 168.706 48.9309C168.693 48.9869 168.61 49.051 168.548 49.0657C168.085 49.1769 167.851 49.4019 167.801 49.8999C167.765 50.2592 167.737 50.6394 167.813 50.9865C168.041 52.0345 167.9 53.0515 167.664 54.07C167.641 54.172 167.621 54.2748 167.6 54.3783V54.3784C167.591 54.426 167.582 54.4738 167.572 54.5216C167.317 54.5219 167.251 54.3754 167.292 54.1801C167.316 54.0653 167.351 53.9526 167.386 53.8399C167.426 53.709 167.467 53.5781 167.49 53.4442C167.556 53.0709 167.601 52.6927 167.629 52.3146C167.635 52.2464 167.595 52.1749 167.555 52.1034C167.537 52.0705 167.519 52.0376 167.505 52.005C167.476 52.0242 167.443 52.0412 167.41 52.0582C167.34 52.0947 167.269 52.1313 167.23 52.1893C166.333 53.5271 164.996 53.618 163.598 53.4781C163.324 53.4506 163.043 53.2719 162.811 53.1003C162.603 52.9469 162.48 52.9869 162.325 53.1435C162.372 53.2266 162.425 53.3086 162.477 53.3906C162.737 53.795 162.994 54.1966 162.553 54.7085C162.598 53.8805 162.163 53.252 161.698 52.6113C161.728 52.6004 161.754 52.5911 161.776 52.5829V52.5827C161.817 52.5676 161.848 52.5563 161.879 52.5461C162.501 52.3413 162.663 51.6151 162.167 51.1825C161.928 50.9736 161.68 50.7745 161.433 50.5755L161.432 50.5754C161.221 50.4058 161.01 50.2362 160.804 50.0605L160.792 50.0503C160.287 49.619 159.78 49.1869 159.301 48.7269C158.949 48.3893 158.877 47.9085 158.825 47.4484C158.8 47.2197 158.833 46.9823 158.865 46.749V46.7489V46.7488C158.871 46.7113 158.876 46.6739 158.881 46.6366C158.89 46.5655 158.927 46.498 158.968 46.4242C158.987 46.3886 159.007 46.3515 159.026 46.3117C159.026 46.4386 159.021 46.5627 159.016 46.6841C159.005 46.9538 158.995 47.2106 159.041 47.4563C159.095 47.7439 159.233 48.018 159.368 48.2869V48.287C159.391 48.333 159.414 48.3787 159.437 48.4244C159.472 48.4955 159.622 48.552 159.708 48.5392C159.767 48.5302 159.841 48.3933 159.849 48.3081C159.876 48.0006 159.89 47.6907 159.888 47.3818C159.878 46.123 160.397 45.0535 161.049 44.031C161.087 43.9704 161.136 43.9166 161.191 43.8559C161.219 43.8253 161.248 43.7931 161.278 43.7574C161.002 43.2186 161.197 42.6973 161.47 42.1862C161.505 42.1193 161.542 42.0528 161.579 41.9862C161.8 41.5829 162.024 41.1763 162.053 40.6664C162.076 40.6923 162.098 40.7178 162.121 40.7433C162.171 40.7994 162.222 40.8554 162.267 40.9151C162.336 41.0061 162.403 41.0992 162.47 41.1924C162.599 41.3724 162.728 41.5524 162.875 41.7163C163.15 42.0239 163.408 42.0607 163.776 41.8739C163.906 41.8076 164.029 41.725 164.152 41.6424C164.209 41.6036 164.267 41.5649 164.325 41.5278C164.797 41.2281 165.269 40.9286 165.741 40.6293C165.766 40.6138 165.791 40.5994 165.817 40.585C165.87 40.5546 165.924 40.5242 165.969 40.4836C166.008 40.4478 166.05 40.3563 166.032 40.3286C166 40.2785 165.916 40.2206 165.867 40.2312C165.729 40.2614 165.592 40.3129 165.465 40.3766C165.331 40.4435 165.199 40.5152 165.068 40.5869V40.587C164.826 40.7186 164.585 40.8501 164.332 40.9514C164.072 41.0555 163.775 41.0881 163.491 41.1059C163.115 41.1294 162.86 40.9045 162.629 40.5764C162.665 40.5764 162.697 40.5751 162.725 40.5739C162.779 40.5717 162.823 40.5699 162.864 40.5781C163.405 40.6853 163.92 40.5989 164.423 40.3888C164.684 40.28 164.946 40.1739 165.207 40.0677V40.0676C165.455 39.9672 165.702 39.8668 165.949 39.7642C166.021 39.7343 166.108 39.6891 166.139 39.6263C166.167 39.5709 166.152 39.455 166.109 39.414C166.073 39.379 165.947 39.3827 165.904 39.4201C165.079 40.1328 164.082 40.2629 163.056 40.2873C162.801 40.2934 162.591 40.1761 162.422 39.9735C162.313 39.8422 162.194 39.7079 162.053 39.6173C161.823 39.4691 161.846 39.3008 161.967 39.1094C162.009 39.0419 162.071 38.984 162.132 38.9315C162.245 38.8347 162.358 38.7388 162.472 38.643V38.6429C162.646 38.4959 162.82 38.3489 162.991 38.1985C163.039 38.1565 163.089 38.0741 163.081 38.0181C163.051 37.7863 163.018 37.5508 162.947 37.3299C162.889 37.1488 162.715 37.0449 162.536 37.1027C162.389 37.1501 162.215 37.2541 162.148 37.3835C161.964 37.7393 162.138 38.2115 162.523 38.4336C162.495 38.4566 162.469 38.4828 162.444 38.5082C162.387 38.565 162.335 38.6178 162.278 38.6232C162.217 38.6289 162.119 38.5161 162.082 38.4353C161.841 37.9162 161.79 37.3863 162.043 36.8537C162.157 36.6147 162.307 36.4085 162.603 36.4068C162.906 36.4052 163.084 36.6028 163.188 36.8578C163.27 37.0572 163.316 37.2736 163.357 37.4866C163.379 37.6021 163.387 37.7205 163.394 37.8456C163.398 37.9029 163.401 37.9617 163.406 38.0222L164.386 38.0937L164.378 37.9911L164.352 37.6863C164.293 36.9742 164.58 36.5035 165.179 36.3317C165.657 36.1946 166.107 36.3809 166.355 36.8189C166.614 37.276 166.633 37.7759 166.574 38.2772C166.562 38.3794 166.413 38.5147 166.303 38.5456C166.044 38.6181 165.944 38.4875 166.047 38.2333C166.162 37.9503 166.134 37.6795 166.008 37.4144C165.881 37.1467 165.659 37.0285 165.371 37.052C165.095 37.0744 164.955 37.2556 164.883 37.4953C164.841 37.6324 164.828 37.7811 164.821 37.9256C164.809 38.18 164.871 38.3736 165.159 38.4635C165.368 38.5289 165.571 38.6157 165.774 38.7025C165.91 38.7608 166.046 38.819 166.185 38.8709C166.507 38.992 166.609 39.154 166.539 39.5C166.515 39.619 166.484 39.7365 166.453 39.854L166.435 39.924C166.328 40.3314 166.406 40.7128 166.653 41.0374C167.155 41.6955 167.427 42.4492 167.623 43.2423C167.644 43.3268 167.694 43.4044 167.743 43.4815C167.761 43.5098 167.779 43.538 167.796 43.5665C167.848 43.6552 167.904 43.7422 167.96 43.8291V43.8292C168.077 44.0093 168.193 44.1893 168.271 44.3849C168.594 45.1938 168.762 46.0399 168.769 46.9163C168.771 47.1621 168.78 47.4087 168.803 47.6532C168.826 47.894 168.867 48.1351 169.172 48.1802C169.514 48.231 169.812 48.091 169.925 47.7871C170 47.5854 170.047 47.3662 170.066 47.1512C170.159 46.1153 169.844 45.1705 169.394 44.2641C169.271 44.016 169.129 43.7773 168.988 43.5387ZM162.775 37.9696L162.897 37.9302C162.884 37.8891 162.872 37.8478 162.86 37.8066C162.821 37.6736 162.782 37.5407 162.733 37.4114C162.727 37.3956 162.678 37.3963 162.639 37.3969C162.623 37.3971 162.609 37.3973 162.6 37.3964L162.775 37.9696ZM165.84 37.7808C165.957 37.5087 165.808 37.2958 165.527 37.3138L165.84 37.7808Z" fill="#FF2D60"/>
<path d="M110.736 35.9092C110.247 36.4777 110.02 37.7572 110.515 39.0543C111.01 40.3513 111.769 40.0696 112.242 41.3923C112.866 43.1376 112.575 45.482 112.575 45.482C112.575 45.482 113.326 47.6556 113.849 45.3468C115.006 41.0101 110.736 36.9772 110.736 35.9092Z" fill="url(#paint0_radial_1522_15900)"/>
<path d="M104.995 55.0001C109.996 55.0001 114.048 50.7255 114.048 45.4547C114.048 40.1838 109.996 35.9092 105 35.9092C100.004 35.9092 95.9522 40.1838 95.9522 45.4547C95.9425 50.7306 99.9987 55.0001 104.995 55.0001Z" fill="url(#paint1_radial_1522_15900)"/>
<path d="M111.992 50.8675C111.791 51.0087 111.58 51.1354 111.36 51.2467C111.651 50.8233 111.919 50.385 112.164 49.9336C112.362 49.7152 112.544 49.5029 112.692 49.2734C112.764 49.1606 112.846 49.0215 112.932 48.8601C113.454 47.9236 114.031 46.4081 114.047 44.8514V44.8477C114.048 44.8094 114.048 44.771 114.047 44.7326C114.05 44.3419 114.01 43.952 113.928 43.5699C113.932 43.5998 113.936 43.6296 113.939 43.6594C113.935 43.6365 113.931 43.6133 113.926 43.5903C113.933 43.6327 113.94 43.6737 113.946 43.7151C114.053 44.6165 113.977 45.4957 113.596 46.1438C113.59 46.1533 113.584 46.1622 113.578 46.1714C113.776 45.1863 113.842 44.0986 113.622 43.0096C113.622 43.0096 113.534 42.4802 112.88 40.873C112.503 39.948 111.834 39.1895 111.244 38.637C110.726 37.9999 110.255 37.5724 109.996 37.301C109.454 36.7339 109.227 36.3088 109.134 36.0315C109.053 35.9912 108.019 34.9927 107.937 34.9546C107.486 35.6502 106.067 37.8261 106.742 39.859C107.048 40.7803 107.822 41.7364 108.631 42.2728C108.667 42.3132 109.113 42.7951 109.325 43.8821C109.544 45.005 109.429 45.8813 108.978 47.1771C108.448 48.3138 107.089 49.4377 105.816 49.5526C103.096 49.7983 102.1 48.1947 102.1 48.1947C103.072 48.5811 104.147 48.5002 104.801 48.0997C105.459 47.6945 105.858 47.3942 106.181 47.5126C106.5 47.6305 106.754 47.2883 106.526 46.9335C106.166 46.3828 105.511 46.099 104.86 46.2124C104.201 46.319 103.597 46.8383 102.733 46.3353C102.677 46.3031 102.623 46.2678 102.571 46.2298C102.514 46.1925 102.756 46.2864 102.699 46.2441C102.531 46.1533 102.234 45.9554 102.157 45.885C102.144 45.8733 102.287 45.9305 102.274 45.9187C101.466 45.2573 101.567 44.8105 101.593 44.5303C101.613 44.3061 101.76 44.0188 102.007 43.9023C102.126 43.9671 102.201 44.0166 102.201 44.0166C102.201 44.0166 102.15 43.9131 102.122 43.8586C102.132 43.8544 102.141 43.8555 102.151 43.8514C102.249 43.8984 102.465 44.0204 102.579 44.0948C102.727 44.1988 102.774 44.2916 102.774 44.2916C102.774 44.2916 102.814 44.2702 102.785 44.1795C102.774 44.1423 102.729 44.024 102.582 43.9047L102.591 43.9057C102.679 43.9555 102.763 44.0131 102.84 44.0776C102.882 43.9278 102.956 43.7714 102.94 43.4917C102.93 43.295 102.934 43.2441 102.9 43.1681C102.868 43.1029 102.917 43.0774 102.971 43.1452C102.962 43.0921 102.947 43.0403 102.925 42.9908V42.9857C102.993 42.7514 104.357 42.1419 104.456 42.0706C104.62 41.9559 104.756 41.808 104.858 41.6368C104.934 41.5166 104.991 41.348 105.005 41.0922C105.012 40.9077 104.926 40.7849 103.547 40.6413C103.169 40.6044 102.948 40.3326 102.822 40.0819C102.799 40.0279 102.776 39.9789 102.753 39.93C102.73 39.8728 102.712 39.814 102.699 39.7542C102.924 39.1102 103.303 38.5658 103.86 38.1544C103.891 38.127 103.739 38.1615 103.769 38.134C103.805 38.1019 104.036 38.0094 104.08 37.9885C104.133 37.9635 103.851 37.8446 103.603 37.8735C103.35 37.9019 103.296 37.9319 103.161 37.9889C103.217 37.9334 103.395 37.8606 103.353 37.8611C103.08 37.9027 102.741 38.0605 102.451 38.2391C102.451 38.208 102.457 38.1771 102.469 38.1484C102.334 38.2054 102.002 38.436 101.905 38.6311C101.909 38.5937 101.911 38.5561 101.911 38.5185C101.808 38.6038 101.715 38.7005 101.634 38.8067L101.629 38.8112C100.845 38.4974 100.156 38.477 99.5716 38.6178C99.4439 38.4903 99.3816 38.5835 99.0911 37.9489C99.1062 37.9867 99.0713 37.9107 99.0911 37.9489C99.1202 38.1131 99.0433 37.8259 99.0911 37.9489C98.6026 38.3321 97.96 38.7664 97.6515 39.0729C98.0114 38.9707 97.6477 39.0851 97.6515 39.0729C97.5255 39.1087 97.534 39.183 97.5148 39.855C97.5102 39.906 97.5143 39.963 97.5101 40.0089C97.2637 40.3211 97.0958 40.5854 97.0324 40.7224C96.7136 41.2684 96.3626 42.1196 96.0224 43.4661C96.1725 43.1012 96.3534 42.7495 96.5633 42.4149C96.2803 43.1296 96.0068 44.2519 95.9521 45.9803C96.0205 45.6236 96.1083 45.2709 96.215 44.9237C96.1482 46.3576 96.3969 47.7887 96.9438 49.1171C97.1395 49.5931 97.4633 50.3154 98.0144 51.1068C99.7457 52.918 102.188 54.0455 104.892 54.0455C107.715 54.0456 110.25 52.8175 111.992 50.8675Z" fill="url(#paint2_linear_1522_15900)"/>
<path d="M109.814 52.1305C113.577 51.7521 115.243 48.3848 113.104 48.3186C111.171 48.265 108.032 52.3091 109.814 52.1305Z" fill="url(#paint3_radial_1522_15900)"/>
<path d="M113.634 47.9725C115.408 46.5715 114.946 43.5454 114.946 43.5454C114.946 43.5454 114.261 44.6246 113.796 46.345C113.336 48.0485 112.567 48.8186 113.634 47.9725Z" fill="url(#paint4_radial_1522_15900)"/>
<path d="M105.839 54.7475C109.428 55.8231 112.512 53.1676 110.611 52.2807C108.882 51.481 104.136 54.2388 105.839 54.7475Z" fill="url(#paint5_radial_1522_15900)"/>
<path d="M112.946 48.8999C113.024 48.7838 113.129 48.412 113.222 48.2459C113.786 47.282 113.79 46.5134 113.79 46.4958C114.131 44.6941 114.1 43.9585 113.89 42.598C113.722 41.5025 112.983 39.9331 112.344 39.1773C111.685 38.3987 112.149 38.6524 111.511 38.0837C110.952 37.4278 110.409 36.7784 110.114 36.5172C107.98 34.6299 108.028 34.229 108.069 34.1606C108.062 34.1687 108.052 34.1806 108.039 34.1962C108.014 34.0896 107.996 34 107.996 34C107.996 34 106.829 35.234 106.584 37.2907C106.424 38.6334 106.899 40.0332 107.587 40.9278C107.945 41.3915 108.35 41.8125 108.794 42.1835C109.314 42.9732 109.6 43.9471 109.6 44.9954C109.6 47.6203 107.588 49.7481 105.105 49.7481C104.766 49.7483 104.429 49.7082 104.099 49.6287C102.928 49.3925 102.251 48.7674 101.914 48.3431C101.721 48.0999 101.638 47.9226 101.638 47.9226C102.688 48.3203 103.848 48.2371 104.554 47.8248C105.265 47.4077 105.696 47.0985 106.045 47.2204C106.389 47.3418 106.663 46.9895 106.417 46.6243C106.176 46.2596 105.55 45.7373 104.619 45.882C103.907 45.9917 103.255 46.5263 102.322 46.0085C102.262 45.9755 102.203 45.9392 102.147 45.8999C102.085 45.8615 102.347 45.9582 102.286 45.9146C102.104 45.8211 101.783 45.6174 101.699 45.545C101.685 45.5329 101.84 45.5918 101.826 45.5796C100.954 44.8988 101.063 44.4388 101.09 44.1504C101.112 43.9196 101.271 43.6238 101.538 43.5039C101.667 43.5706 101.747 43.6215 101.747 43.6215C101.747 43.6215 101.692 43.515 101.662 43.4589C101.673 43.4547 101.683 43.4557 101.693 43.4515C101.799 43.4999 102.032 43.6254 102.155 43.702C102.315 43.8091 102.366 43.9046 102.366 43.9046C102.366 43.9046 102.409 43.8826 102.377 43.7892C102.366 43.7509 102.317 43.6292 102.159 43.5064L102.169 43.5074C102.263 43.5582 102.353 43.6174 102.437 43.6844C102.482 43.5302 102.563 43.3692 102.545 43.0812C102.534 42.8788 102.539 42.8263 102.501 42.7481C102.468 42.681 102.52 42.6548 102.579 42.7246C102.569 42.6695 102.552 42.6161 102.529 42.5656V42.5604C102.602 42.3191 104.075 41.6917 104.182 41.6183C104.355 41.5036 104.503 41.3514 104.616 41.1717C104.698 41.048 104.759 40.8744 104.774 40.6111C104.779 40.4925 104.745 40.3986 104.355 40.3088C104.121 40.2549 103.759 40.2024 103.2 40.147C102.793 40.1089 102.554 39.8292 102.418 39.5711C102.393 39.5155 102.368 39.465 102.343 39.4147C102.319 39.3562 102.299 39.2957 102.285 39.2337C102.528 38.5588 102.967 37.9825 103.539 37.587C103.571 37.5587 103.408 37.5943 103.441 37.566C103.479 37.533 103.728 37.4377 103.775 37.4162C103.833 37.3905 103.529 37.2681 103.261 37.2978C102.987 37.327 102.929 37.3579 102.783 37.4166C102.844 37.3595 103.036 37.2846 102.991 37.2851C102.696 37.3279 102.33 37.4903 102.017 37.6742C102.016 37.642 102.023 37.61 102.036 37.5808C101.89 37.6395 101.532 37.8769 101.427 38.0777C101.432 38.0393 101.434 38.0005 101.433 37.9618C101.324 38.0484 101.223 38.1479 101.135 38.2584L101.129 38.2631C100.283 37.94 99.5382 37.9191 98.9081 38.0639C98.7702 37.9327 98.5486 37.7343 98.2349 37.081C98.2136 37.0417 98.2022 37.1623 98.1858 37.1235C98.0639 36.8245 97.9903 36.3345 98.0024 35.9967C98.0024 35.9967 97.7503 36.1183 97.5416 36.6259C97.5029 36.7171 97.478 36.7675 97.4532 36.8178C97.4418 36.8325 97.4791 36.6511 97.4731 36.661C97.4369 36.7259 97.3431 36.8167 97.3018 36.9341C97.2735 37.0212 97.2338 37.0699 97.2084 37.1785L97.2025 37.1885C97.2004 37.1565 97.21 37.0568 97.203 37.0773C97.1052 37.2863 97.021 37.5021 96.9511 37.7233C96.8388 38.114 96.708 38.6458 96.6873 39.3376C96.6823 39.39 96.6867 39.4488 96.6822 39.496C96.4161 39.8174 96.2348 40.0895 96.1663 40.2305C95.8223 40.7928 95.4433 41.669 95.0759 43.0551C95.2393 42.6765 95.4348 42.3143 95.6599 41.9729C95.3544 42.7086 95.059 43.8639 95 45.6431C95.0742 45.2749 95.169 44.9117 95.2839 44.5554C95.2311 45.7418 95.3618 47.2127 96.0708 48.8722C96.4918 49.8483 97.4609 51.8306 99.8288 53.3774C99.8288 53.3774 100.634 54.0119 102.019 54.4873C102.121 54.5266 102.225 54.5653 102.331 54.6028C102.297 54.5886 102.265 54.5737 102.234 54.5583C103.156 54.8505 104.113 54.9992 105.075 55C108.66 55.0032 109.718 53.4802 109.718 53.4802C109.718 53.4802 109.714 53.4832 109.707 53.4884C109.758 53.438 109.806 53.3856 109.853 53.3313C109.288 53.8963 107.997 53.9338 107.514 53.893C108.337 53.6373 108.879 53.4209 109.933 52.9942C110.056 52.9458 110.182 52.8907 110.311 52.8288C110.325 52.8223 110.339 52.8152 110.353 52.8085C110.378 52.7959 110.404 52.784 110.429 52.7707C110.943 52.5148 111.426 52.1952 111.867 51.8185C112.926 50.9243 113.156 50.0528 113.276 49.4781C113.259 49.5332 113.207 49.6616 113.17 49.7448C112.898 50.3614 112.294 50.7398 111.637 51.0643C111.95 50.6308 112.239 50.1796 112.505 49.7126C112.719 49.4878 112.786 49.1362 112.946 48.8999Z" fill="url(#paint6_radial_1522_15900)"/>
<path d="M111.577 51.2184C112.012 50.7188 112.402 50.1474 112.697 49.4994C113.458 47.8316 114.633 45.0586 113.707 42.1624C112.976 39.8734 111.971 38.6218 110.695 37.3991C108.623 35.4135 108.044 34.5271 108.044 34C108.044 34 105.652 36.7819 106.689 39.6833C107.727 42.5847 109.852 42.4784 111.258 45.5062C112.912 49.0691 109.919 52.9572 107.444 54.0455C107.596 54.0103 112.946 52.7474 113.227 49.5552C113.221 49.6139 113.1 50.4968 111.577 51.2184Z" fill="url(#paint7_radial_1522_15900)"/>
<path d="M104.523 40.9106C104.532 40.7469 104.435 40.637 102.897 40.51C102.264 40.4586 102.022 39.9439 101.948 39.7273C101.723 40.2417 101.63 40.7815 101.68 41.4345C101.714 41.8622 102.041 42.3214 102.197 42.5909C102.197 42.5909 102.231 42.5513 102.247 42.5366C102.541 42.2673 103.773 41.8569 103.889 41.7986C104.016 41.7277 104.502 41.4156 104.523 40.9106Z" fill="url(#paint8_linear_1522_15900)"/>
<path d="M98.2383 36.7957C98.2201 36.7635 98.2103 36.8621 98.1963 36.8304C98.0922 36.5858 98.0288 36.1894 98.0438 35.9092C98.0438 35.9092 97.8284 36.0086 97.6502 36.4238C97.6171 36.4984 97.5959 36.5396 97.5746 36.5808C97.5649 36.5928 97.5968 36.4444 97.5917 36.4525C97.5607 36.5056 97.4806 36.5798 97.4457 36.6716C97.4169 36.7467 97.3872 36.787 97.3651 36.8801C97.3583 36.9054 97.3719 36.7681 97.366 36.7848C96.9514 37.5962 96.8723 38.8231 96.916 38.7713C97.7986 37.8169 98.81 37.5905 98.81 37.5905C98.7024 37.5102 98.4686 37.2784 98.2383 36.7957Z" fill="url(#paint9_linear_1522_15900)"/>
<path d="M103.106 49.9642C101.51 49.2563 99.6951 48.2578 99.7636 45.9896C99.8569 43.0023 102.445 43.5928 102.445 43.5928C102.348 43.6175 102.087 43.8106 101.994 44.0165C101.896 44.274 101.718 44.8554 102.258 45.4647C103.107 46.4205 100.514 47.7323 104.517 50.2105C104.618 50.2676 103.579 50.1765 103.106 49.9642Z" fill="url(#paint10_linear_1522_15900)"/>
<path d="M101.454 47.1576C102.39 47.4708 103.481 47.4158 104.134 47.0692C104.571 46.8353 105.131 46.4607 105.476 46.5532C105.178 46.4397 104.951 46.3866 104.679 46.3737C104.633 46.3737 104.577 46.3727 104.527 46.3679C104.427 46.3676 104.328 46.3728 104.229 46.3836C104.06 46.3985 103.873 46.5006 103.703 46.4842C103.694 46.4834 103.868 46.4156 103.854 46.4186C103.764 46.4367 103.666 46.4406 103.563 46.4529C103.497 46.4599 103.441 46.4678 103.376 46.4704C101.426 46.6293 99.7783 45.4546 99.7783 45.4546C99.6381 45.9087 100.406 46.8069 101.454 47.1576Z" fill="url(#paint11_linear_1522_15900)"/>
<path d="M112.006 51.1819C114.24 49.0497 115.37 46.458 114.892 43.551C114.892 43.551 115.083 45.0417 114.359 46.5663C114.707 45.0778 114.747 43.2281 113.824 41.3127C112.591 38.756 110.563 37.4108 109.789 36.8495C108.617 35.9991 108.131 35.1333 108.122 34.9546C107.771 35.6526 106.712 38.0444 108.008 40.1042C109.222 42.034 111.135 42.6068 112.475 44.377C114.942 47.6381 112.006 51.1819 112.006 51.1819Z" fill="url(#paint12_linear_1522_15900)"/>
<path d="M111.666 45.4906C110.901 43.9715 109.946 43.3089 109.043 42.5908C109.148 42.7322 109.174 42.7821 109.232 42.8736C110.027 43.688 111.199 45.6745 110.348 48.1682C108.746 52.8623 102.338 50.6519 101.667 50.0309C101.938 52.7477 106.669 54.0477 109.749 52.2859C111.501 50.6911 112.919 47.98 111.666 45.4906Z" fill="url(#paint13_linear_1522_15900)"/>
<path d="M113.396 80.7686C108.793 86.7448 102.626 85.1954 100.201 83.8372C96.5036 81.7697 93.9129 76.9555 95.4522 72.1414C95.9049 70.7228 96.5941 69.5105 97.4543 68.5044C98.2944 68.5698 99.2904 68.5698 100.473 68.4843C107.515 67.9812 109.527 74.0178 109.024 75.5269C108.768 76.2965 107.857 76.543 107.027 76.5984C107.108 76.4877 107.208 76.3267 107.349 76.0853C107.787 75.3106 107.842 73.8266 106.479 72.9312C105.166 72.076 103.747 72.6042 103.018 73.5751C102.289 74.5409 102.575 75.9947 102.832 76.6386C103.939 79.4154 105.981 80.1348 107.369 80.5523C108.758 80.9698 110.82 80.9095 111.922 80.4567C113.019 79.999 113.33 79.7374 113.542 79.9688C113.758 80.2002 113.607 80.4668 113.396 80.7686Z" fill="#1E88E5"/>
<path d="M113.417 80.7685C111.666 83.0423 109.689 84.2245 107.778 84.7476C107.763 84.7527 107.748 84.7527 107.738 84.7577C106.631 84.969 105.751 84.7979 104.795 84.6118C103.24 84.31 101.097 82.5946 100.579 79.4908C100.137 76.8196 101.399 74.5559 103.391 73.1826C103.26 73.3033 103.145 73.4341 103.039 73.575C102.31 74.5408 102.596 75.9946 102.853 76.6385C103.96 79.4153 106.002 80.1347 107.39 80.5522C108.779 80.9698 110.841 80.9094 111.943 80.4567C113.04 79.9989 113.352 79.7373 113.563 79.9687C113.779 80.2001 113.628 80.4667 113.417 80.7685Z" fill="#0D47A1"/>
<path d="M106.479 65.0886C106.489 65.2194 106.494 65.3602 106.494 65.4961C106.494 67.3976 105.614 69.0878 104.24 70.1844C103.727 69.9229 103.129 69.7116 102.404 69.5707C100.357 69.1784 97.0573 70.1241 95.7141 72.4733C95.2715 73.243 95.0853 74.0327 95.0049 74.7622C95.025 73.902 95.1705 73.0217 95.4522 72.1414C97.1072 66.9802 101.911 64.4849 106.479 65.0886Z" fill="#00E5FF"/>
<path d="M113.753 76.9805C112.365 78.379 110.599 78.4192 109.392 78.3538C108.179 78.2935 107.586 77.9413 107.032 77.5993C106.474 77.2522 106.791 76.9101 106.846 76.8346C106.901 76.7592 107.037 76.6286 107.349 76.0853C107.495 75.8287 107.601 75.4915 107.621 75.1243C109.945 73.3988 111.625 70.8534 112.229 67.9106C113.698 69.3946 114.392 71.0345 114.638 71.7388C115.081 73.0065 115.418 75.3054 113.753 76.9805Z" fill="#00E676"/>
<path d="M112.229 67.9057L112.229 67.9106C111.625 70.8534 109.945 73.3988 107.621 75.1243C107.636 74.913 107.621 74.6867 107.571 74.4604C107.571 74.4503 107.565 74.4402 107.565 74.4352C107.44 73.6957 107.067 72.7601 106.449 72.0357C105.835 71.3113 105.181 70.6623 104.24 70.1844C105.614 69.0878 106.494 67.3976 106.494 65.4961C106.494 65.3602 106.489 65.2194 106.479 65.0886C106.68 65.1138 106.876 65.144 107.078 65.1842C109.397 65.6319 111.057 66.7185 112.229 67.9057Z" fill="#1DE9B6"/>
<g clip-path="url(#clip0_1522_15900)">
<path d="M235 174C235 175.5 234.8 176.9 234.5 178.3C234.1 180.1 233.4 181.8 232.6 183.3H199.4C199.2 182.9 199 182.4 198.8 182C197.7 179.7 197 177.1 197 174.3C197 174.2 197 174.1 197 174C197 163.5 205.5 155 216 155C220.9 155 225.3 156.8 228.7 159.9C229.9 161 231 162.2 231.9 163.6C233.9 166.6 235 170.2 235 174Z" fill="#F64942"/>
<path d="M235 174C235 175.5 234.8 176.9 234.5 178.3C234.1 180.1 233.4 181.8 232.6 183.3C231.8 184.7 230.9 185.9 229.9 187C227.8 186.7 225.4 186.6 220.7 188.5C216.6 190.2 216.4 189.8 212.1 188.4L208.5 186.6L205.5 186C205 185.1 204.8 184.2 204.6 183.2C204.5 182.7 204.5 182.2 204.5 181.8C204.5 181.4 204.6 180.9 204.7 180.5C204.7 180.3 204.8 180.2 204.8 180.1C204.8 180 204.9 179.9 204.9 179.7C205.4 178.3 206.2 177 207.4 176C208.5 175 210 174.3 211.7 173.8C214 173.4 215.9 173 217.6 172.6C218.3 172.4 218.9 172.2 219.5 172.1C219.8 172 220 171.9 220.3 171.9C223.8 170.7 225.9 169.4 227.3 168.1C227.4 168.1 227.4 168 227.5 167.9C227.9 167.6 228.2 167.2 228.5 166.9C229.7 165.6 230.6 164.4 232.1 163.5C233.9 166.6 235 170.2 235 174Z" fill="#F4CE45"/>
<path d="M228.7 159.9C227.4 161.1 226 162.2 224.3 163C223.9 163.2 223.5 163.4 223.1 163.6C223 163.6 223 163.6 222.9 163.7C219.7 165.1 216 165.8 212.6 165.9C211.4 165.9 209.1 166 206.7 166.5H206.6C205.6 166.7 204.5 167.1 203.5 167.5C201.5 168.4 199.5 169.8 198.2 172.2C197.8 173 197.4 173.7 197 174.3C197 174.2 197 174.1 197 174C197 163.5 205.5 155 216 155C220.9 155 225.3 156.8 228.7 159.9Z" fill="#5B95BF"/>
<path d="M234.5 178.3C234.1 180.1 233.4 181.8 232.6 183.3C231.8 184.7 230.9 185.9 229.9 187C226.4 190.7 221.5 193 216.1 193C209 193 202.8 189.1 199.5 183.3C199.2 182.9 199 182.4 198.8 182C200.4 181.5 202 181.1 203.6 180.8C203.9 180.7 204.3 180.7 204.6 180.6C204.7 180.6 204.8 180.6 204.9 180.6C205 180.6 205.1 180.6 205.1 180.6C206 180.5 206.8 180.4 207.6 180.3C208.2 180.3 208.8 180.2 209.4 180.2H209.6C209.9 180.2 210.2 180.2 210.5 180.2C213.6 180.5 218.3 182 223.1 181.6C223.8 181.6 224.4 181.5 225.1 181.4C225.3 181.4 225.4 181.3 225.6 181.3C225.7 181.3 225.9 181.2 226 181.2C226.2 181.1 226.5 181.1 226.7 181C227 180.9 227.3 180.8 227.7 180.7C228 180.6 228.2 180.5 228.5 180.4C230.9 179.4 232.3 178.7 234.5 178.3Z" fill="#EF90A4"/>
<path fill-rule="evenodd" clip-rule="evenodd" d="M216.2 161.1C216.9 161.1 217.4 161.5 217.7 162.1C217.7 162.2 217.8 162.2 217.8 162.2H217.9C218.2 161.8 218.6 161.6 219.1 161.6C219.2 161.6 219.4 161.6 219.5 161.7C220.1 161.9 220.6 162.4 220.7 163C220.6 163 220.7 163 220.8 163H220.9C221.2 162.8 221.5 162.7 221.8 162.7C222.1 162.7 222.3 162.8 222.6 162.9C223.2 163.2 223.5 163.8 223.4 164.5C223.4 164.6 223.5 164.7 223.5 164.7C223.7 164.6 223.9 164.6 224 164.6C224.4 164.6 224.8 164.8 225.1 165.1C225.6 165.6 225.7 166.2 225.5 166.8C225.5 166.9 225.5 167 225.6 167H225.7C226.2 167 226.8 167.3 227.1 167.8C227.4 168.4 227.4 169 227 169.5C226.9 169.6 227 169.7 227.1 169.7C227.7 169.8 228.2 170.2 228.4 170.9C228.6 171.5 228.3 172.2 227.9 172.6C227.8 172.7 227.8 172.8 227.9 172.8C228.4 173.1 228.8 173.6 228.8 174.2C228.8 174.9 228.4 175.4 227.8 175.7C227.7 175.7 227.7 175.9 227.8 175.9C228.3 176.3 228.5 176.9 228.3 177.5C228.1 178.1 227.6 178.6 227 178.7C226.9 178.7 226.8 178.8 226.9 178.9C227.2 179.4 227.3 180.1 227 180.6C226.7 181.1 226.2 181.4 225.6 181.4C225.5 181.4 225.5 181.4 225.4 181.4C225.3 181.4 225.2 181.5 225.3 181.6C225.5 182.2 225.4 182.8 224.9 183.3C224.6 183.6 224.2 183.8 223.8 183.8C223.6 183.8 223.4 183.8 223.2 183.7C223.2 183.7 223.2 183.7 223.1 183.7C223 183.7 223 183.8 223 183.9C223.1 184.5 222.8 185.1 222.2 185.4C222 185.5 221.7 185.6 221.4 185.6C221.1 185.6 220.7 185.5 220.5 185.3H220.4C220.3 185.3 220.3 185.3 220.3 185.4C220.2 186 219.8 186.5 219.1 186.7C219 186.7 218.8 186.8 218.7 186.8C218.2 186.8 217.8 186.6 217.5 186.2L217.4 186.1C217.3 186.1 217.3 186.1 217.3 186.2C217 186.7 216.5 187.1 215.9 187.1C215.2 187.1 214.7 186.7 214.4 186.1C214.4 186 214.3 186 214.3 186H214.2C213.9 186.4 213.5 186.6 213 186.6C212.9 186.6 212.7 186.6 212.6 186.5C212 186.3 211.5 185.8 211.4 185.2C211.4 185.1 211.3 185.1 211.3 185.1H211.2C210.9 185.3 210.6 185.4 210.3 185.4C210 185.4 209.8 185.3 209.5 185.2C208.9 184.9 208.6 184.3 208.7 183.6C208.7 183.5 208.6 183.4 208.6 183.4C208.4 183.5 208.2 183.5 208.1 183.5C207.7 183.5 207.3 183.3 207 183C206.5 182.5 206.4 181.9 206.6 181.3C206.6 181.2 206.6 181.1 206.5 181.1H206.4C205.9 181.1 205.3 180.8 205 180.3C204.7 179.7 204.7 179.1 205.1 178.6C205.2 178.5 205.1 178.4 205 178.4C204.4 178.3 203.9 177.9 203.7 177.2C203.5 176.6 203.8 175.9 204.2 175.5C204.3 175.4 204.3 175.3 204.2 175.3C203.7 175 203.3 174.5 203.3 173.9C203.3 173.2 203.7 172.7 204.3 172.4C204.4 172.4 204.4 172.2 204.3 172.2C203.8 171.8 203.6 171.2 203.8 170.6C204 170 204.5 169.5 205.1 169.4C205.2 169.4 205.3 169.3 205.2 169.2C204.9 168.7 204.8 168 205.1 167.5C205.4 167 205.9 166.7 206.5 166.7C206.6 166.7 206.6 166.7 206.7 166.7C206.8 166.7 206.9 166.6 206.8 166.5C206.6 165.9 206.7 165.3 207.2 164.8C207.5 164.5 207.9 164.3 208.3 164.3C208.5 164.3 208.7 164.3 208.9 164.4C208.9 164.4 208.9 164.4 209 164.4C209.1 164.4 209.2 164.3 209.1 164.2C209 163.6 209.3 163 209.9 162.7C210.1 162.6 210.4 162.5 210.7 162.5C211 162.5 211.4 162.6 211.6 162.8H211.7C211.8 162.8 211.8 162.8 211.8 162.7C211.9 162.1 212.3 161.6 213 161.4C213.1 161.4 213.3 161.3 213.4 161.3C213.9 161.3 214.3 161.5 214.6 161.9L214.7 162C214.8 162 214.8 162 214.8 161.9C215 161.5 215.5 161.1 216.2 161.1Z" fill="white"/>
<path fill-rule="evenodd" clip-rule="evenodd" d="M226.2 172.8H225.7C224.8 172.8 224.1 172.3 223.7 171.5C223.4 172.2 222.6 172.8 221.7 172.8C221 172.8 220.4 172.5 220 172C219.9 171.9 219.8 171.7 219.7 171.6C219.6 171.9 219.4 172.1 219.2 172.3C218.8 172.7 218.3 172.9 217.7 172.9C217.5 172.9 217.4 172.9 217.2 172.9C216.5 172.8 216 172.3 215.7 171.7C215.4 172.4 214.6 173 213.7 173C212.8 173 212.1 172.5 211.7 171.7C211.4 172.4 210.6 173 209.8 173C209 173 208.2 172.5 207.8 171.7C207.5 172.4 206.7 173 205.8 173V173C205.1 173.8 205.5 174.4 207.3 174.4V178.4C207.3 179.1 207.5 179.8 207.7 180.4C208.4 181.9 209.9 182.9 211.8 183.5C213.1 183.9 214.5 184.1 216 184.1C217.4 184.1 218.9 183.9 220.1 183.5C221.3 183.1 222.4 182.5 223.2 181.8C224.1 180.9 224.7 179.8 224.7 178.5V174.5C226.5 174.2 227 173.5 226.2 172.8ZM221.9 178.2C223.2 178.2 223.3 180.2 221.9 180.2C220.5 180.2 220.6 178.2 221.9 178.2ZM210.1 180.2C209.9 180.2 209.7 180.2 209.5 180.1C208.7 179.7 208.9 178.2 210.1 178.2C211.2 178.2 211.5 179.7 210.6 180.1C210.4 180.2 210.3 180.2 210.1 180.2Z" fill="black"/>
<path fill-rule="evenodd" clip-rule="evenodd" d="M230.2 174.1C230.2 173.5 230 172.9 229.6 172.3C229.8 171.7 229.9 171 229.7 170.4C229.5 169.8 229.2 169.2 228.7 168.8C228.8 168.2 228.6 167.5 228.3 166.9C228 166.4 227.5 165.9 227 165.7C226.9 165.1 226.6 164.5 226.1 164C225.6 163.5 225.1 163.2 224.5 163.1C224.5 163 224.4 162.9 224.4 162.9C224.1 162.4 223.8 162 223.3 161.7C222.8 161.4 222.3 161.3 221.8 161.3C221.7 161.3 221.6 161.3 221.5 161.3C221.1 160.8 220.5 160.4 219.9 160.2C219.6 160.1 219.4 160.1 219.1 160.1C218.7 160.1 218.4 160.2 218.1 160.3C217.6 159.9 216.9 159.7 216.3 159.7C215.7 159.7 215.1 159.9 214.5 160.2C214.1 160.1 213.8 160 213.4 160C213.1 160 212.9 160 212.6 160.1C212 160.3 211.5 160.6 211.1 161.1C211 161.1 210.9 161.1 210.8 161.1C210.3 161.1 209.7 161.2 209.3 161.5C208.8 161.8 208.3 162.3 208.1 162.9C207.5 163 206.9 163.3 206.4 163.8C205.9 164.3 205.7 164.8 205.5 165.4C204.9 165.7 204.4 166.1 204.1 166.7C204 166.9 203.9 167.2 203.8 167.4C203.7 167.7 203.7 168.1 203.7 168.5C203.2 168.9 202.8 169.5 202.7 170.1C202.5 170.7 202.6 171.4 202.8 171.9C202.4 172.4 202.2 173.1 202.2 173.7C202.2 174.3 202.4 174.9 202.7 175.5C202.5 176.1 202.4 176.8 202.6 177.4C202.8 178 203.1 178.5 203.6 178.9C203.5 179.5 203.6 180 203.9 180.6C203.9 180.7 204 180.7 204 180.8C204.2 181.1 204.5 181.4 204.8 181.7C204.6 182 204.8 182.1 205 182.2C205.1 182.6 205.2 183 205.4 183.3C205.5 183.5 205.7 183.7 205.9 183.9C206.4 184.3 206.9 184.7 207.5 184.8C207.8 185.4 208.2 185.9 208.8 186.2C209.3 186.5 209.8 186.6 210.3 186.6C210.4 186.6 210.5 186.6 210.6 186.6C211 187.1 211.6 187.5 212.2 187.6C212.5 187.7 212.7 187.7 213 187.7C213.4 187.7 213.7 187.6 214 187.5C214.5 187.9 215.2 188.1 215.8 188.1C216.4 188.1 217 187.9 217.6 187.5C218 187.6 218.3 187.7 218.7 187.7C219 187.7 219.2 187.7 219.5 187.6C220.1 187.4 220.6 187.1 221 186.6C221.1 186.6 221.2 186.6 221.3 186.6C221.8 186.6 222.4 186.5 222.8 186.2C223.3 185.9 223.8 185.4 224 184.8C224.6 184.7 225.2 184.4 225.7 183.9C225.9 183.7 226.1 183.4 226.3 183.1C226.4 182.9 226.5 182.6 226.6 182.3C227.2 182 227.7 181.6 228 181C228.2 180.7 228.3 180.4 228.3 180.1C228.4 179.8 228.4 179.5 228.4 179.2C228.9 178.8 229.3 178.2 229.4 177.6C229.6 177 229.5 176.3 229.3 175.8C229.9 175.4 230.2 174.8 230.2 174.1ZM227.7 175.6C227.6 175.6 227.6 175.8 227.7 175.8C228.2 176.2 228.4 176.8 228.2 177.4C228 178 227.5 178.4 226.9 178.5C226.8 178.5 226.7 178.6 226.8 178.7C227.1 179.2 227.2 179.8 226.9 180.4C226.7 180.7 226.5 180.9 226.1 181.1C226 181.2 225.8 181.2 225.7 181.2C225.7 181.2 225.6 181.2 225.5 181.2C225.4 181.2 225.4 181.2 225.3 181.2C225.2 181.2 225.2 181.2 225.2 181.3V181.4C225.4 181.9 225.3 182.6 224.8 183C224.7 183.1 224.6 183.2 224.5 183.2C224.3 183.3 224 183.4 223.7 183.4C223.5 183.4 223.3 183.4 223.1 183.3C223 183.3 223 183.4 223 183.5C223.1 184.1 222.8 184.7 222.2 185C222 185.1 221.7 185.2 221.4 185.2C221.1 185.2 220.7 185.1 220.5 184.9C220.5 184.9 220.5 184.9 220.4 184.9C220.3 184.9 220.3 184.9 220.3 185C220.2 185.6 219.8 186.1 219.2 186.2C219.1 186.2 218.9 186.2 218.8 186.2C218.3 186.2 217.9 186 217.6 185.6H217.5C217.4 185.6 217.4 185.6 217.4 185.7C217.2 186.2 216.6 186.6 216 186.6C215.4 186.6 214.8 186.2 214.6 185.7L214.5 185.6H214.4C214.1 186 213.7 186.2 213.2 186.2C213.1 186.2 212.9 186.2 212.8 186.1C212.2 185.9 211.7 185.4 211.7 184.8C211.7 184.7 211.6 184.7 211.6 184.7C211.6 184.7 211.6 184.7 211.5 184.7C211.2 184.9 210.9 185 210.6 185C210.3 185 210.1 184.9 209.8 184.8C209.2 184.5 209 183.9 209 183.3V183.2C209 183.1 208.9 183.1 208.9 183.1C208.9 183.1 208.9 183.1 208.8 183.1C208.7 183.1 208.6 183.2 208.5 183.2C208.4 183.2 208.4 183.2 208.3 183.2C208.2 183.2 208.2 183.2 208.1 183.2C207.8 183.2 207.4 183 207.2 182.8C206.7 182.3 206.6 181.7 206.9 181.1C206.9 181 206.9 180.9 206.8 180.9H206.7C206.3 180.9 205.8 180.7 205.5 180.4C205.1 180.4 205 180.3 205 180.2C204.9 180.1 204.9 179.9 204.8 179.8C204.7 179.3 204.8 178.9 205.1 178.5C205.2 178.4 205.1 178.3 205 178.3C204.4 178.2 203.9 177.8 203.8 177.2C203.6 176.6 203.9 176 204.3 175.6C204.4 175.5 204.4 175.4 204.3 175.4C203.8 175.2 203.4 174.6 203.4 174C203.4 173.4 203.8 172.8 204.3 172.6C204.4 172.6 204.4 172.4 204.3 172.4C203.8 172 203.6 171.4 203.8 170.8C204 170 204.5 169.5 205.1 169.5C205.2 169.5 205.3 169.4 205.2 169.3C204.9 168.8 204.8 168.2 205.1 167.6C205.4 167.1 205.9 166.8 206.5 166.8C206.6 166.8 206.6 166.8 206.7 166.8C206.8 166.8 206.9 166.7 206.8 166.6C206.8 166.5 206.8 166.5 206.8 166.5C206.7 166 206.8 165.4 207.2 165C207.5 164.7 207.9 164.5 208.3 164.5C208.5 164.5 208.7 164.5 208.9 164.6C209 164.6 209 164.6 209 164.5C209 163.9 209.3 163.3 209.8 163C210 162.9 210.3 162.8 210.6 162.8C210.9 162.8 211.3 162.9 211.5 163.1C211.5 163.1 211.5 163.1 211.6 163.1C211.7 163.1 211.7 163.1 211.7 163C211.8 162.4 212.2 161.9 212.8 161.8C212.9 161.8 213.1 161.7 213.2 161.7C213.7 161.7 214.1 161.9 214.4 162.3L214.5 162.4C214.6 162.4 214.6 162.4 214.6 162.3C214.8 161.8 215.4 161.4 216 161.4C216.6 161.4 217.2 161.8 217.4 162.3C217.4 162.4 217.5 162.4 217.5 162.4H217.6C218.1 162 218.5 161.8 219 161.8C219.1 161.8 219.3 161.8 219.4 161.9C220 162 220.5 162.5 220.5 163.1C220.5 163.2 220.6 163.2 220.6 163.2H220.7C221 163 221.3 162.9 221.7 162.9C222 162.9 222.2 163 222.5 163.1C222.7 163.2 222.9 163.4 223 163.6C223.2 163.9 223.3 164.3 223.2 164.6C223.2 164.7 223.3 164.8 223.3 164.8C223.3 164.8 223.3 164.8 223.4 164.8C223.6 164.7 223.7 164.7 223.9 164.7C224.3 164.7 224.7 164.8 225 165.2C225.5 165.7 225.6 166.3 225.3 166.9C225.3 167 225.3 167.1 225.4 167.1H225.5C226 167.1 226.6 167.4 226.9 167.9C227 168 227 168.1 227 168.2C227.2 168.7 227.1 169.2 226.8 169.6C226.7 169.7 226.8 169.8 226.9 169.8C227.5 169.9 228 170.3 228.1 170.9C228.3 171.5 228 172.1 227.6 172.5C227.5 172.6 227.5 172.7 227.6 172.7C228.1 172.9 228.5 173.5 228.5 174.1C228.6 174.8 228.2 175.3 227.7 175.6Z" fill="black"/>
</g>
<defs>
<radialGradient id="paint0_radial_1522_15900" cx="0" cy="0" r="1" gradientUnits="userSpaceOnUse" gradientTransform="translate(112.371 40.3058) scale(48.2492 50.6653)">
<stop offset="0.045" stop-color="#FFE900"/>
<stop offset="0.12" stop-color="#FFDC00"/>
<stop offset="0.254" stop-color="#FFBC00"/>
<stop offset="0.429" stop-color="#FF8600"/>
<stop offset="0.769" stop-color="#FF0015"/>
<stop offset="0.872" stop-color="#F40057"/>
<stop offset="0.953" stop-color="#DF0078"/>
<stop offset="1" stop-color="#D60085"/>
</radialGradient>
<radialGradient id="paint1_radial_1522_15900" cx="0" cy="0" r="1" gradientUnits="userSpaceOnUse" gradientTransform="translate(109.166 36.6025) scale(17.8338 18.7258)">
<stop stop-color="#00D0DD"/>
<stop offset="0.22" stop-color="#0086FF"/>
<stop offset="0.261" stop-color="#007CFF"/>
<stop offset="0.33" stop-color="#0062F1"/>
<stop offset="0.333" stop-color="#0061F0"/>
<stop offset="0.438" stop-color="#203AB4"/>
<stop offset="0.522" stop-color="#451C89"/>
<stop offset="0.566" stop-color="#510E7A"/>
</radialGradient>
<linearGradient id="paint2_linear_1522_15900" x1="113.31" y1="47.4659" x2="108.464" y2="33.2376" gradientUnits="userSpaceOnUse">
<stop stop-color="#000F46" stop-opacity="0.4"/>
<stop offset="0.485" stop-color="#001A66" stop-opacity="0.173"/>
<stop offset="1" stop-color="#00217E" stop-opacity="0.01"/>
</linearGradient>
<radialGradient id="paint3_radial_1522_15900" cx="0" cy="0" r="1" gradientUnits="userSpaceOnUse" gradientTransform="translate(124.543 29.4505) scale(25.8948 27.1916)">
<stop offset="0.003" stop-color="#FFE900"/>
<stop offset="0.497" stop-color="#FF0015"/>
<stop offset="1" stop-color="#D60085"/>
</radialGradient>
<radialGradient id="paint4_radial_1522_15900" cx="0" cy="0" r="1" gradientUnits="userSpaceOnUse" gradientTransform="translate(122.189 23.0522) scale(74.0794 77.7994)">
<stop offset="0.003" stop-color="#FFE800"/>
<stop offset="0.157" stop-color="#FFAB00"/>
<stop offset="0.316" stop-color="#FF7000"/>
<stop offset="0.472" stop-color="#FF3600"/>
<stop offset="0.621" stop-color="#FF0017"/>
<stop offset="0.762" stop-color="#FF0024"/>
<stop offset="0.892" stop-color="#FF002A"/>
<stop offset="1" stop-color="#FF002C"/>
</radialGradient>
<radialGradient id="paint5_radial_1522_15900" cx="0" cy="0" r="1" gradientUnits="userSpaceOnUse" gradientTransform="translate(137.376 34.4508) scale(32.8759 34.5211)">
<stop offset="0.003" stop-color="#FF0015"/>
<stop offset="0.497" stop-color="#D60085"/>
<stop offset="0.986" stop-color="#6C0000"/>
</radialGradient>
<radialGradient id="paint6_radial_1522_15900" cx="0" cy="0" r="1" gradientUnits="userSpaceOnUse" gradientTransform="translate(110.369 42.2277) scale(16.8091 17.6492)">
<stop offset="0.156" stop-color="#FFE900"/>
<stop offset="0.231" stop-color="#FFDC00"/>
<stop offset="0.365" stop-color="#FFBC00"/>
<stop offset="0.541" stop-color="#FF8600"/>
<stop offset="0.763" stop-color="#FF0015"/>
<stop offset="0.796" stop-color="#FF0022"/>
<stop offset="0.841" stop-color="#FE003E"/>
<stop offset="0.893" stop-color="#E20062"/>
<stop offset="0.935" stop-color="#C60082"/>
</radialGradient>
<radialGradient id="paint7_radial_1522_15900" cx="0" cy="0" r="1" gradientUnits="userSpaceOnUse" gradientTransform="translate(99.9919 34.029) scale(49.9636 52.4613)">
<stop offset="0.279" stop-color="#FFE900"/>
<stop offset="0.402" stop-color="#FFDB00"/>
<stop offset="0.63" stop-color="#FFB600"/>
<stop offset="0.856" stop-color="#FF8A00"/>
<stop offset="0.933" stop-color="#FF5900"/>
<stop offset="0.994" stop-color="#FF3000"/>
</radialGradient>
<linearGradient id="paint8_linear_1522_15900" x1="74.155" y1="75.2507" x2="127.035" y2="68.6114" gradientUnits="userSpaceOnUse">
<stop stop-color="#D60085" stop-opacity="0.5"/>
<stop offset="0.474" stop-color="#FF0015" stop-opacity="0.5"/>
<stop offset="0.486" stop-color="#FF0012" stop-opacity="0.513"/>
<stop offset="0.675" stop-color="#FF7000" stop-opacity="0.72"/>
<stop offset="0.829" stop-color="#FFAE00" stop-opacity="0.871"/>
<stop offset="0.942" stop-color="#FFD400" stop-opacity="0.964"/>
<stop offset="1" stop-color="#FFE200"/>
</linearGradient>
<linearGradient id="paint9_linear_1522_15900" x1="115.242" y1="50.0415" x2="107.203" y2="31.5417" gradientUnits="userSpaceOnUse">
<stop stop-color="#960052" stop-opacity="0.6"/>
<stop offset="1" stop-color="#D60085" stop-opacity="0.01"/>
</linearGradient>
<linearGradient id="paint10_linear_1522_15900" x1="92.488" y1="39.5909" x2="100.864" y2="47.8338" gradientUnits="userSpaceOnUse">
<stop offset="0.005" stop-color="#960052" stop-opacity="0.5"/>
<stop offset="0.484" stop-color="#FF0015" stop-opacity="0.5"/>
<stop offset="1" stop-color="#FF0015" stop-opacity="0.01"/>
</linearGradient>
<linearGradient id="paint11_linear_1522_15900" x1="111.595" y1="55.8247" x2="112.147" y2="40.9318" gradientUnits="userSpaceOnUse">
<stop stop-color="#D60085"/>
<stop offset="0.083" stop-color="#D60085" stop-opacity="0.81"/>
<stop offset="0.206" stop-color="#D60085" stop-opacity="0.565"/>
<stop offset="0.328" stop-color="#D60085" stop-opacity="0.362"/>
<stop offset="0.447" stop-color="#D60085" stop-opacity="0.204"/>
<stop offset="0.562" stop-color="#D60085" stop-opacity="0.091"/>
<stop offset="0.673" stop-color="#D60085" stop-opacity="0.023"/>
<stop offset="0.773" stop-color="#D60085" stop-opacity="0.01"/>
</linearGradient>
<linearGradient id="paint12_linear_1522_15900" x1="87.4846" y1="43.3777" x2="105.546" y2="60.9376" gradientUnits="userSpaceOnUse">
<stop stop-color="#FFF000"/>
<stop offset="0.268" stop-color="#FFED00"/>
<stop offset="0.452" stop-color="#FFE500"/>
<stop offset="0.612" stop-color="#FFD600"/>
<stop offset="0.757" stop-color="#FFC100"/>
<stop offset="0.892" stop-color="#FFA600"/>
<stop offset="0.902" stop-color="#FFA400"/>
<stop offset="0.949" stop-color="#FF9A00"/>
<stop offset="1" stop-color="#FF8A00"/>
</linearGradient>
<linearGradient id="paint13_linear_1522_15900" x1="105.27" y1="41.8177" x2="102.215" y2="49.6659" gradientUnits="userSpaceOnUse">
<stop stop-color="#FF8600"/>
<stop offset="0.04" stop-color="#FF8600" stop-opacity="0.858"/>
<stop offset="0.084" stop-color="#FF8600" stop-opacity="0.729"/>
<stop offset="0.13" stop-color="#FF8600" stop-opacity="0.628"/>
<stop offset="0.178" stop-color="#FF8600" stop-opacity="0.557"/>
<stop offset="0.227" stop-color="#FF8600" stop-opacity="0.514"/>
<stop offset="0.282" stop-color="#FF8600" stop-opacity="0.5"/>
<stop offset="0.389" stop-color="#FF8600" stop-opacity="0.478"/>
<stop offset="0.524" stop-color="#FF8600" stop-opacity="0.416"/>
<stop offset="0.676" stop-color="#FF8600" stop-opacity="0.314"/>
<stop offset="0.838" stop-color="#FF8600" stop-opacity="0.172"/>
<stop offset="1" stop-color="#FF8600" stop-opacity="0.01"/>
</linearGradient>
<clipPath id="clip0_1522_15900">
<rect width="38" height="38" fill="white" transform="translate(197 155)"/>
</clipPath>
</defs>
</svg>
