<?xml version="1.0" encoding="utf-8"?>
<!-- Generator: Adobe Illustrator 23.1.0, SVG Export Plug-In . SVG Version: 6.00 Build 0)  -->
<svg version="1.1" id="Layer_1" xmlns="http://www.w3.org/2000/svg" xmlns:xlink="http://www.w3.org/1999/xlink" x="0px" y="0px"
	 viewBox="0 0 396 1176" style="enable-background:new 0 0 396 1176;" xml:space="preserve">
<style type="text/css">
	.st0{fill:#FFFFFF;fill-opacity:0.6;}
</style>
<path class="st0" d="M81.5,989.8l-2-1.2L2,943.3l-1-0.6l-2,3.5l80.5,47.1l0.9-1.6l0.1-0.2L81.5,989.8L81.5,989.8L81.5,989.8z
	 M81.5,898.9v2.1l103.2,29.7v-2.1L81.5,898.9z M81.5,898.9v2.1l103.2,29.7v-2.1L81.5,898.9z M81.5,898.9v2.1l103.2,29.7v-2.1
	L81.5,898.9z M81.5,898.9v2.1l103.2,29.7v-2.1L81.5,898.9z M81.5,898.9v2.1l103.2,29.7v-2.1L81.5,898.9z M81.5,898.9v2.1l103.2,29.7
	v-2.1L81.5,898.9z M81.5,898.9v2.1l103.2,29.7v-2.1L81.5,898.9z M81.5,898.9v2.1l103.2,29.7v-2.1L81.5,898.9z M81.5,898.9v2.1
	l103.2,29.7v-2.1L81.5,898.9z M81.5,898.9v2.1l103.2,29.7v-2.1L81.5,898.9z M81.5,898.9v2.1l103.2,29.7v-2.1L81.5,898.9z
	 M81.5,898.9v2.1l103.2,29.7v-2.1L81.5,898.9z M81.5,898.9v2.1l103.2,29.7v-2.1L81.5,898.9z M81.5,898.9v2.1l103.2,29.7v-2.1
	L81.5,898.9z M81.5,898.9v2.1l103.2,29.7v-2.1L81.5,898.9z M81.5,898.9v2.1l103.2,29.7v-2.1L81.5,898.9z M396,1173.7l-2-1.2
	l-207.3-121.2l-2-1.2L81.5,989.8l0,0l-1,1.7l-0.1,0.2l-0.9,1.6L395,1177.7l2-3.5L396,1173.7z M184.7,928.6L81.5,898.9v2.1
	l103.2,29.7V928.6z M81.5,898.9v2.1l103.2,29.7v-2.1L81.5,898.9z M81.5,898.9v2.1l103.2,29.7v-2.1L81.5,898.9z M81.5,898.9v2.1
	l103.2,29.7v-2.1L81.5,898.9z M81.5,898.9v2.1l103.2,29.7v-2.1L81.5,898.9z M81.5,898.9v2.1l103.2,29.7v-2.1L81.5,898.9z
	 M81.5,898.9v2.1l103.2,29.7v-2.1L81.5,898.9z M81.5,898.9v2.1l103.2,29.7v-2.1L81.5,898.9z M81.5,898.9v2.1l103.2,29.7v-2.1
	L81.5,898.9z M81.5,898.9v2.1l103.2,29.7v-2.1L81.5,898.9z M81.5,898.9v2.1l103.2,29.7v-2.1L81.5,898.9z M81.5,898.9v2.1l103.2,29.7
	v-2.1L81.5,898.9z M81.5,898.9v2.1l103.2,29.7v-2.1L81.5,898.9z M81.5,898.9v2.1l103.2,29.7v-2.1L81.5,898.9z M81.5,898.9v2.1
	l103.2,29.7v-2.1L81.5,898.9z M81.5,898.9v2.1l103.2,29.7v-2.1L81.5,898.9z M81.5,898.9v2.1l103.2,29.7v-2.1L81.5,898.9z
	 M80.9,286.8l-1.4,0.7v99.2l0.7-0.2l0.3,0.9h1V286.6L80.9,286.8z M80.9,286.8l-1.4,0.7v99.2l0.7-0.2l0.3,0.9h1V286.6L80.9,286.8z
	 M80.9,286.8l-0.4-0.9h-1v-0.6L2,321.6v-90.1h-4v713h4v-66.4l77.5,22.3v88.2l2,1.2V589.3l0-99.6V286.6L80.9,286.8z M79.5,287.5v99.2
	L2,414v-90.2L79.5,287.5z M2,783.5v-90.4l77.5-0.2v99.4L2,783.5z M79.5,691L2,691.2v-90.4l77.5-9.2V691z M2,598.8v-90.3l77.5-18.3
	l0,99.4L2,598.8z M2,506.4v-90.3l77.5-27.3v99.3L2,506.4z M2,876v-90.5l77.5,8.8v104L2,876z M80.9,286.8l-1.4,0.7v99.2l0.7-0.2
	l0.3,0.9h1V286.6L80.9,286.8z M80.9,286.8l-1.4,0.7v99.2l0.7-0.2l0.3,0.9h1V286.6L80.9,286.8z M186.7,124.7l-2,1.2v110.8h1l-0.4-0.9
	l1.4-0.7V124.7z M186.7,124.7L186.7,124.7L186.7,124.7L186.7,124.7z M394,0v138.2h4V0H394z M186.7,124.7L186.7,124.7L186.7,124.7
	L186.7,124.7z M186.7,124.7l-2,1.2v110.8h1l-0.4-0.9l1.4-0.7V124.7z M186.7,124.7L186.7,124.7L186.7,124.7L186.7,124.7z
	 M186.7,124.7l-2,1.2v110.8h1l-0.4-0.9l1.4-0.7V124.7z M394,138.2V138l-207.3,97.1l-1.4,0.7l0.4,0.9h-1v113.7h1l-0.3-0.9l1.3-0.5
	V237.3L394,140.2v136.2h4V138.2H394z M394,276.4v-0.4l-207.3,73l-1.3,0.5l0.3,0.9h-1v-0.7L81.5,386v2.1l103.2-36.3v112.3h1l-0.2-1
	l1.2-0.3V351.1l207.3-73v136.5h4V276.4H394z M394,414.6v-0.6l-207.3,48.8l-1.2,0.3l0.2,1h-1v-0.8L81.5,487.7v2l103.2-24.3v112.5h1
	l-0.1-1l1.1-0.1V465L394,416.1v136.7h4V414.6H394z M394,552.8v-0.8l-207.3,24.7l-1.1,0.1l0.1,1h-1V577L81.5,589.3v2L184.7,579v112.6
	h1l0-1h1V578.8L394,554.1v137h4V552.8H394z M394,691v-1l-207.3,0.6h-1l0,1h-1v-1L81.5,691v2l103.2-0.3v112.7h1l0.1-1l0.9,0.1V692.7
	L394,692v137.2h4V691H394z M394,829.2V828l-207.3-23.5l-0.9-0.1l-0.1,1l-0.1,1l-0.9-0.1v123.7h1l0.3-1l0.7,0.2V806.5L394,830v160.5
	h4V829.2H394z M394,990.5v-1.6l-207.3-59.7L186,929l-0.3,1h-1v120.2l2,1.2v-120L394,991v185h4V990.5H394z M395-1.7l-210.3,123
	l0.5,0.9l0.5,0.8l1,1.7v0l0,0L394,3.5l2-1.2l1-0.6L395-1.7z M81.5,284.4v-98.2l-2,1.2v98.6h1l0.4,0.9l0.6-0.3l103.2-48.3v-2.2
	L81.5,284.4z M186.7,124.7l-1-1.7l-0.5-0.8l-0.5-0.9L79.5,182.7l1,1.6l0,0.1l1,1.7l103.2-60.3v110.2L81.5,284.4v1.6h-1l0.4,0.9
	l0.6-0.3l103.2-48.3v-1.6h1l-0.4-0.9l1.4-0.7V124.7L186.7,124.7L186.7,124.7z M81.5,284.4v1.6h-1l0.4,0.9l0.6-0.3l103.2-48.3v-2.2
	L81.5,284.4z M81.5,284.4v-98.2l-2,1.2v98.6h1l0.4,0.9l0.6-0.3l103.2-48.3v-2.2L81.5,284.4z M80.5,285.9h-1v-0.6L2,321.6v2.2
	l77.5-36.3l1.4-0.7L80.5,285.9z M80.5,184.4L80.5,184.4l-1-1.7L-1,229.8l0.4,0.6l0.6,1.1v0l1,1.7l1-0.6l77.5-45.3v98.6h2v-99.8
	L80.5,184.4z M-2,944.5v1.2l1,0.6l1-1.7H-2z M396,1176l-1,1.7l3,1.8v-3.5H396z M395-1.7l1,1.7h2v-3.5L395-1.7z M-0.6,230.4l-0.4-0.6
	l-1,0.6v1.1h2L-0.6,230.4z M-1,230.4v1.1h2v-1.1H-1z M79.5,184.3L79.5,184.3l2,0.1v-0.1H79.5z M79.5,184.4v101.5h2V184.4H79.5z
	 M79.5,285.9v101.5h2V285.9H79.5z M79.5,387.4v101.5h2V387.4H79.5z M79.5,488.9v1.3l0,99.4v0.9h2v-1.1l0-99.6v-0.8H79.5z
	 M79.5,590.5V692h2V590.5H79.5z M79.5,692v101.5h2V692H79.5z M79.5,793.5v106.2h2V793.5H79.5z M81.5,989.8v-90.2h-2v91.9h2V989.8
	L81.5,989.8L81.5,989.8z M79.5,991.6v0.2h2v-0.2H79.5z M184.7,122.1v0.8h2v-0.8H184.7z M184.7,123v113.7h2V123H184.7z M184.7,236.7
	v113.7h2V236.7H184.7z M184.7,350.4v-0.7L81.5,386v2.1l103.2-36.3v112.3h2V350.4H184.7z M184.7,464.2v-0.8L81.5,487.7v2l103.2-24.3
	v112.5h2V464.2H184.7z M184.7,577.9V577L81.5,589.3v2L184.7,579v112.6h2V577.9H184.7z M184.7,691.7v-1L81.5,691v2l103.2-0.3v112.7h2
	V691.7H184.7z M185.7,805.4l-0.1,1l-0.9-0.1v123.7h2V805.4H185.7z M184.7,929.9v122.8h2V929.9H184.7z M396,989.5l-2-0.6l-207.3-59.7
	L186,929l-0.3,1h-1v120.2l2,1.2v-120L394,991l1.7,0.5l0.6-1.9L396,989.5z M184.7,928.6L81.5,898.9l-0.7-0.2l-0.3,1l-0.3,1l1.3,0.4
	l103.2,29.7l0.7,0.2l0.3-1l0.3-1L184.7,928.6z M80.5,899.7l0.3-1l-1.3-0.4L2,876l-1.7-0.5l-0.3,1l-0.3,1l0.3,0.1l2,0.6l77.5,22.3
	v88.2l2,1.2v-90.2H80.5z M396,828.2l-2-0.2l-207.3-23.5l-0.9-0.1l-0.1,1l-0.1,1l-0.9-0.1v123.7h1l0.3-1l0.7,0.2V806.5L394,830
	l1.9,0.2l0.1-1v0l0.1-1L396,828.2z M80.6,792.5l-0.1,1l-0.1,1l1.1,0.1v-2L80.6,792.5z M184.7,804.3v1.1h1l0.1-1L184.7,804.3z
	 M80.5,793.5l0.1-1l-1.1-0.1L2,783.5l-1.9-0.2l-0.1,1l-0.1,1l0.1,0l2,0.2l77.5,8.8v104l1.3,0.4l-0.3,1h1V793.5H80.5z M394,690
	l-207.3,0.6h-1l0,1h-1v-1L81.5,691v2l103.2-0.3v112.7h1l0.1-1l0.9,0.1V692.7L394,692l2,0v-2L394,690z M185.7,690.7h-1L81.5,691h-1
	l0,1v1h1l103.2-0.3h1v-1L185.7,690.7z M80.5,590.5l0.1,1l-1.1,0.1V691L2,691.2l-2,0v2l2,0l77.5-0.2v99.4l1.1,0.1l-0.1,1h1v-203H80.5
	z M396,552.8l-0.1-1l-1.9,0.2l-207.3,24.7l-1.1,0.1l0.1,1h-1V577L81.5,589.3v2L184.7,579v112.6h1l0-1h1V578.8L394,554.1l2-0.2l0.1,0
	L396,552.8z M185.7,577.9l-0.1-1l-0.9,0.1L81.5,589.3l-1.1,0.1l0.1,1l0.1,1l0.9-0.1L184.7,579l1.1-0.1L185.7,577.9z M80.5,590.5
	l-0.1-1l-0.9,0.1L2,598.8L0,599l-0.1,0l0.1,1l0.1,1l1.9-0.2l77.5-9.2l1.1-0.1L80.5,590.5z M396,414.6l-0.2-1l-1.8,0.4l-207.3,48.8
	l-1.2,0.3l0.2,1h-1v-0.8L81.5,487.7v2l103.2-24.3v112.5h1l-0.1-1l1.1-0.1V465L394,416.1l2-0.5l0.2,0L396,414.6z M185.7,464.2l-0.2-1
	l-0.8,0.2L81.5,487.7l-1.2,0.3l0.2,1l0.2,1l0.8-0.2l103.2-24.3l1.2-0.3L185.7,464.2z M80.5,488.9l-0.2-1l-0.8,0.2L2,506.4l-2,0.5
	l-0.2,0l0.2,1l0.2,1l1.8-0.4l77.5-18.3l0,99.4l0.9-0.1l0.1,1h1v-1.1l0-99.6v-0.8H80.5z M396,276.4l-0.3-0.9l-1.7,0.6l-207.3,73
	l-1.3,0.5l0.3,0.9h-1v-0.7L81.5,386v2.1l103.2-36.3v112.3h1l-0.2-1l1.2-0.3V351.1l207.3-73l2-0.7l0.3-0.1L396,276.4z M185.7,350.4
	l-0.3-0.9l-0.7,0.2L81.5,386l-1.3,0.5l0.3,0.9l0.3,1l0.7-0.2l103.2-36.3l1.3-0.5L185.7,350.4z M80.9,286.8l-1.4,0.7v99.2L2,414
	l-2,0.7l-0.3,0.1l0.3,1l0.3,0.9l1.7-0.6l77.5-27.3v99.3l0.8-0.2l0.2,1h1V286.6L80.9,286.8z M396,138.2l-0.4-0.9L394,138l-207.3,97.1
	l-1.4,0.7l0.4,0.9h-1v113.7h1l-0.3-0.9l1.3-0.5V237.3L394,140.2l2-0.9l0.4-0.2L396,138.2z M185.7,236.7l-0.4-0.9l-0.6,0.3
	L81.5,284.4l-1.4,0.7l0.4,0.9l0.4,0.9l0.6-0.3l103.2-48.3l1.4-0.7L185.7,236.7z M80.5,285.9l-0.4-0.9l-0.6,0.3L2,321.6l-2,0.9
	l-0.4,0.2l0.4,0.9l0.4,0.9l1.6-0.7l77.5-36.3l1.4-0.7L80.5,285.9z M185.7,805.4l-0.1,1l-0.9-0.1L81.5,794.6v-2l103.2,11.7v1.1H185.7
	z"/>
</svg>
