<?xml version="1.0" encoding="utf-8"?>
<!-- Generator: Adobe Illustrator 23.1.0, SVG Export Plug-In . SVG Version: 6.00 Build 0)  -->
<svg version="1.1" id="Layer_1" xmlns="http://www.w3.org/2000/svg" xmlns:xlink="http://www.w3.org/1999/xlink" x="0px" y="0px"
	 viewBox="0 0 398 1176" style="enable-background:new 0 0 398 1176;" xml:space="preserve">
<style type="text/css">
	.st0{fill:#FFFFFF;fill-opacity:0.6;}
</style>
<path class="st0" d="M396,322.5l-2-0.9l-77.5-36.3v-98l-2-1.2v99.8h1l-0.4,0.9l1.4,0.7l77.5,36.3l1.6,0.7l0.4-0.9l0.4-0.9L396,322.5
	z M314.5,284.4l-103.2-48.3l-0.6-0.3l-0.4,0.9l-0.4,0.9l1.4,0.7l103.2,48.3l0.6,0.3l0.4-0.9l0.4-0.9L314.5,284.4z M209.3,235.1
	L2,138l-1.6-0.7L0,138.2l-0.4,0.9l0.4,0.2l2,0.9l207.3,97.1l0.6,0.3l0.4-0.9l0.4-0.9L209.3,235.1z M396,414.7l-2-0.7l-77.5-27.3
	v-99.2l-1.4-0.7l0.4-0.9h-1v101.5h1l-0.3,1l1.3,0.5l77.5,27.3l1.7,0.6l0.3-0.9l0.3-1L396,414.7z M314.5,386l-103.2-36.3l-0.7-0.2
	l-0.3,0.9l-0.3,1l1.3,0.5l103.2,36.3l0.7,0.2l0.3-1l0.3-0.9L314.5,386z M209.9,237.6l-0.6-0.3V349L2,276.1l-1.7-0.6L0,276.4
	l-0.3,0.9l0.3,0.1l2,0.7l207.3,73l0.7,0.2l0.3-1h1V238.3L209.9,237.6z M396,506.9l-2-0.5l-77.5-18.2v-99.3l-1.3-0.5l0.3-1h-1V386
	l-103.2-36.3v2.1l103.2,36.3v100.8h1l-0.2,1l1.2,0.3l77.5,18.3l1.8,0.4l0.2-1l0.2-1L396,506.9z M314.5,487.7l-103.2-24.3l-0.8-0.2
	l-0.2,1l-0.2,1l1.2,0.3l103.2,24.3l0.8,0.2l0.2-1l0.2-1L314.5,487.7z M210.3,350.4l-0.3,1l-0.7-0.2v111.8L2,414.1l-1.8-0.4l-0.2,1
	l-0.2,1l0.2,0l2,0.5L209.3,465l0.8,0.2l0.2-1h1V350.4H210.3z M396,599l-2-0.2l-77.5-9.2l0-99.4l-1.2-0.3l0.2-1h-1v-1.3l-103.2-24.3
	v2.1l103.2,24.3l0,99.6v1.1h1l-0.1,1l1.1,0.1l77.5,9.2l1.9,0.2l0.1-1l0.1-1L396,599z M314.5,589.3L211.3,577l-0.9-0.1l-0.1,1l-0.1,1
	l1.1,0.1l103.2,12.3l0.9,0.1l0.1-1l0.1-1L314.5,589.3z M210.3,464.2l-0.2,1l-0.8-0.2v111.8L2,552.1l-1.9-0.2l-0.1,1l-0.1,1l0.1,0
	l2,0.2l207.3,24.7l0.9,0.1l0.1-1h1V464.2H210.3z M394,691.2l-77.5-0.2v-99.4l-1.1-0.1l0.1-1h-1v-1.1L211.3,577v2l103.2,12.3V692h1
	l0,1h1l77.5,0.2l2,0v-2L394,691.2z M314.5,691l-103.2-0.3h-1v1l0,1h1l103.2,0.3h1l0-1v-1H314.5z M210.3,577.9l-0.1,1l-0.9-0.1v111.9
	L2,690l-2,0v2l2,0l207.3,0.6h1l0-1h1V577.9H210.3z M396,784.3l-0.1-1l-1.9,0.2l-77.5,8.8V693h-1l0-1h-1v-1l-103.2-0.3v2l103.2,0.3
	v100.5h1l0.1,1l0.9-0.1l77.5-8.8l2-0.2l0.1,0L396,784.3z M315.5,793.5l-0.1-1l-0.9,0.1l-103.2,11.7l-1.1,0.1l0.1,1l0.1,1l0.9-0.1
	l103.2-11.7l1.1-0.1L315.5,793.5z M210.3,691.7l0,1h-1v111.8L2,828l-2,0.2l-0.1,0l0.1,1v0l0.1,1L2,830l207.3-23.5l1.1-0.1l-0.1-1h1
	V691.7H210.3z M396,876.5l-0.3-1L394,876l-77.5,22.3v-104l-0.9,0.1l-0.1-1h-1v-0.9l-103.2,11.7v2l103.2-11.7v195.2l2-1.2v-88.2
	l77.5-22.3l2-0.6l0.3-0.1L396,876.5z M315.5,899.7l-0.3-1l-0.7,0.2l-103.2,29.7L210,929l0.3,1l0.3,1l0.7-0.2L314.5,901l1.3-0.4
	L315.5,899.7z M210.3,805.4l0.1,1l-1.1,0.1v122.7L2,988.9l-2,0.6l-0.3,0.1l0.3,1l0.3,1L2,991l207.3-59.7l1.3-0.4l-0.3-1h1V805.4
	H210.3z M209.3,929.9v122.8h2V929.9H209.3z M209.3,805.4v124.5h2V805.4H209.3z M209.3,691.7v113.7h2V691.7H209.3z M209.3,577.9
	v113.7h2V577.9H209.3z M209.3,464.2v113.8h2V464.2H209.3z M209.3,350.4v113.7h2V350.4H209.3z M209.3,236.7v113.7h2V236.7H209.3z
	 M211.3,236.1V123h-2v1.7l0,0l0,0v112h1l-0.4,0.9l1.4,0.7l103.2,48.3v-2.2L211.3,236.1z M209.3,122.1v0.8h2v-0.8H209.3z
	 M314.5,991.6v0.2h2v-0.2H314.5z M314.5,899.7v91.9h2v-91.9H314.5z M314.5,793.5v-0.9l-103.2,11.7v2l103.2-11.7v105.1h2V793.5H314.5
	z M314.5,692v-1l-103.2-0.3v2l103.2,0.3v100.5h2V692H314.5z M314.5,590.5v-1.1L211.3,577v2l103.2,12.3V692h2V590.5H314.5z
	 M316.5,490.2v-1.3h-2v-1.3l-103.2-24.3v2.1l103.2,24.3l0,99.6v1.1h2v-0.9L316.5,490.2z M314.5,387.4V386l-103.2-36.3v2.1
	l103.2,36.3v100.8h2V387.4H314.5z M314.5,285.9v101.5h2V285.9H314.5z M314.5,184.4v101.5h2V184.4H314.5z M314.5,184.3L314.5,184.3
	l2,0.1v-0.1H314.5z M395,230.4v1.1h2v-1.1H395z M397,229.8l-0.4,0.6l-0.6,1.1h2v-1.1L397,229.8z M-2-3.5V0h2l1-1.7L-2-3.5z M0,1176
	h-2v3.5l3-1.8L0,1176z M396,944.5l1,1.7l1-0.6v-1.2H396z M316.5,182.7l-1,1.6l0,0.1l-1,1.7l2,1.2l77.5,45.3l1,0.6l1-1.7v0l0.6-1.1
	l0.4-0.6L316.5,182.7z M211.3,121.2l-0.5,0.9l-0.5,0.8l-1,1.7l0,0l0,0v112h1l-0.4,0.9l1.4,0.7l103.2,48.3v-2.2l-103.2-48.3V125.9
	l103.2,60.3l1-1.7l0-0.1l1-1.6L211.3,121.2z M209.3,236.7v-1.6L2,138v2.2l207.3,97.1l0.6,0.3l0.4-0.9H209.3z M1-1.7l-2,3.5l1,0.6
	l2,1.2l207.3,121.2l0,0l1-1.7l0.5-0.8l0.5-0.9L1-1.7z M210.3,929.9l0.3,1l-1.3,0.4v120l2-1.2V929.9H210.3z M210.3,929.9l0.3,1
	l-1.3,0.4v120l2-1.2V929.9H210.3z M210.3,929.9l0.3,1l-1.3,0.4v120l2-1.2V929.9H210.3z M210.3,929.9l0.3,1l-1.3,0.4v120l2-1.2V929.9
	H210.3z M210.3,929.9l0.3,1l-1.3,0.4v120l2-1.2V929.9H210.3z M210.3,929.9l0.3,1l-1.3,0.4v120l2-1.2V929.9H210.3z M210.3,929.9
	l0.3,1l-1.3,0.4v120l2-1.2V929.9H210.3z M210.3,929.9l0.3,1l-1.3,0.4v120l2-1.2V929.9H210.3z M210.3,929.9l0.3,1l-1.3,0.4v120l2-1.2
	V929.9H210.3z M210.3,929.9l0.3,1l-1.3,0.4v120l2-1.2V929.9H210.3z M210.3,929.9l0.3,1l-1.3,0.4v120l2-1.2V929.9H210.3z
	 M210.3,929.9l0.3,1l-1.3,0.4v120l2-1.2V929.9H210.3z M-2,990.5V1176h4V990.5H-2z M210.3,929.9l0.3,1l-1.3,0.4v120l2-1.2V929.9
	H210.3z M210.3,929.9l0.3,1l-1.3,0.4v120l2-1.2V929.9H210.3z M210.3,929.9l0.3,1l-1.3,0.4v120l2-1.2V929.9H210.3z M210.3,929.9
	l0.3,1l-1.3,0.4v120l2-1.2V929.9H210.3z M210.3,929.9l0.3,1l-1.3,0.4v120l2-1.2V929.9H210.3z M210.3,929.9l0.3,1l-1.3,0.4v120l2-1.2
	V929.9H210.3z M210.3,929.9l0.3,1l-1.3,0.4v120l2-1.2V929.9H210.3z M210.3,929.9l0.3,1l-1.3,0.4v120l2-1.2V929.9H210.3z
	 M210.3,929.9l0.3,1l-1.3,0.4v120l2-1.2V929.9H210.3z M210.3,929.9l0.3,1l-1.3,0.4v120l2-1.2V929.9H210.3z M210.3,929.9l0.3,1
	l-1.3,0.4v120l2-1.2V929.9H210.3z M210.3,929.9l0.3,1l-1.3,0.4v120l2-1.2V929.9H210.3z M210.3,805.4l0.1,1l-1.1,0.1v122.7L2,988.9
	V829.2h-4v161.2h4v0.5l207.3-59.7l1.3-0.4l-0.3-1h1V805.4H210.3z M210.3,691.7l0,1h-1v111.8L2,828V691h-4v138.2h4v0.8l207.3-23.5
	l1.1-0.1l-0.1-1h1V691.7H210.3z M210.3,577.9l-0.1,1l-0.9-0.1v111.9L2,690V552.8h-4V691h4v1l207.3,0.6h1l0-1h1V577.9H210.3z
	 M210.3,464.2l-0.2,1l-0.8-0.2v111.8L2,552.1V414.6h-4v138.2h4v1.2l207.3,24.7l0.9,0.1l0.1-1h1V464.2H210.3z M210.3,350.4l-0.3,1
	l-0.7-0.2v111.8L2,414.1V276.4h-4v138.2h4v1.5L209.3,465l0.8,0.2l0.2-1h1V350.4H210.3z M209.9,237.6l-0.6-0.3V349L2,276.1V138.2h-4
	v138.2h4v1.8l207.3,73l0.7,0.2l0.3-1h1V238.3L209.9,237.6z M209.3,236.7v-1.6L2,138V0h-4v138.2h4v2l207.3,97.1l0.6,0.3l0.4-0.9
	H209.3z M394,231.5v90.1l-77.5-36.3v-98l-2-1.2V386l-103.2-36.3v2.1l103.2,36.3v99.5l-103.2-24.3v2.1l103.2,24.3l0,99.6L211.3,577v2
	l103.2,12.3V691l-103.2-0.3v2l103.2,0.3v99.6l-103.2,11.7v2l103.2-11.7v195.2l2-1.2v-88.2l77.5-22.3v66.4h4v-713H394z M394,416.1
	v90.3l-77.5-18.2v-99.3L394,416.1z M394,508.5v90.3l-77.5-9.2l0-99.4L394,508.5z M394,600.8v90.4l-77.5-0.2v-99.4L394,600.8z
	 M316.5,693l77.5,0.2v90.4l-77.5,8.8V693z M394,323.8V414l-77.5-27.3v-99.2L394,323.8z M316.5,898.3v-104l77.5-8.8V876L316.5,898.3z
	 M211.3,928.6v2.1L314.5,901v-2.1L211.3,928.6z M211.3,928.6v2.1L314.5,901v-2.1L211.3,928.6z M211.3,928.6v2.1L314.5,901v-2.1
	L211.3,928.6z M211.3,928.6v2.1L314.5,901v-2.1L211.3,928.6z M211.3,928.6v2.1L314.5,901v-2.1L211.3,928.6z M211.3,928.6v2.1
	L314.5,901v-2.1L211.3,928.6z M211.3,928.6v2.1L314.5,901v-2.1L211.3,928.6z M211.3,928.6v2.1L314.5,901v-2.1L211.3,928.6z
	 M211.3,928.6v2.1L314.5,901v-2.1L211.3,928.6z M211.3,928.6v2.1L314.5,901v-2.1L211.3,928.6z M211.3,928.6v2.1L314.5,901v-2.1
	L211.3,928.6z M211.3,928.6v2.1L314.5,901v-2.1L211.3,928.6z M315.6,991.7l-0.1-0.2l-1-1.7v0l0,0l-103.2,60.3l-2,1.2L2,1172.5
	l-2,1.2l-1,0.6l2,3.5l315.5-184.4L315.6,991.7z M314.5,898.9l-103.2,29.7v2.1L314.5,901V898.9z M211.3,928.6v2.1L314.5,901v-2.1
	L211.3,928.6z M211.3,928.6v2.1L314.5,901v-2.1L211.3,928.6z M211.3,928.6v2.1L314.5,901v-2.1L211.3,928.6z M211.3,928.6v2.1
	L314.5,901v-2.1L211.3,928.6z M211.3,928.6v2.1L314.5,901v-2.1L211.3,928.6z M211.3,928.6v2.1L314.5,901v-2.1L211.3,928.6z
	 M211.3,928.6v2.1L314.5,901v-2.1L211.3,928.6z M211.3,928.6v2.1L314.5,901v-2.1L211.3,928.6z M211.3,928.6v2.1L314.5,901v-2.1
	L211.3,928.6z M211.3,928.6v2.1L314.5,901v-2.1L211.3,928.6z M211.3,928.6v2.1L314.5,901v-2.1L211.3,928.6z M395,942.8l-1,0.6
	l-77.5,45.3l-2,1.2l0,0l0,0l1,1.7l0.1,0.2l0.9,1.6l80.5-47.1L395,942.8z"/>
</svg>
