<svg width="20" height="20" viewBox="0 0 20 20" fill="none" xmlns="http://www.w3.org/2000/svg">
<g clip-path="url(#clip0_6607_1439)">
<path fill-rule="evenodd" clip-rule="evenodd" d="M1.57865 7.96212C1.52356 8.58047 1.49633 9.25788 1.49633 10C1.49633 13.4282 2.07741 15.4754 3.30109 16.6991C4.03102 17.429 5.05392 17.9302 6.48801 18.2158V7.98085H1.74572C1.68829 7.98085 1.63237 7.97437 1.57865 7.96212ZM1.78492 6.48444H6.48801V1.78421C5.05392 2.06984 4.03102 2.57103 3.30109 3.30093C2.57178 4.03022 2.07073 5.05205 1.78492 6.48444ZM7.9664 1.5783C7.97815 1.63096 7.98434 1.68571 7.98434 1.74191V6.48444H18.2151C17.9293 5.05206 17.4282 4.03024 16.6988 3.30095C15.475 2.07728 13.4276 1.49641 9.9995 1.49641C9.25929 1.49641 8.58346 1.5235 7.9664 1.5783ZM18.423 7.98085H7.98434V18.4233C8.59656 18.477 9.26646 18.5036 9.9995 18.5036C13.4276 18.5036 15.475 17.9227 16.6988 16.699C17.9226 15.4754 18.5037 13.4282 18.5037 10C18.5037 9.26536 18.477 8.59414 18.423 7.98085ZM2.24307 2.24276C3.91054 0.575362 6.48907 0 9.9995 0C13.5104 0 16.0892 0.575354 17.7568 2.24274C19.4244 3.91016 20 6.48886 20 10C20 13.5111 19.4244 16.0898 17.7568 17.7573C16.0892 19.4246 13.5104 20 9.9995 20C6.48907 20 3.91054 19.4246 2.24307 17.7572C0.575595 16.0898 0 13.5111 0 10C0 6.48886 0.575595 3.91018 2.24307 2.24276Z" fill="white"/>
</g>
<defs>
<clipPath id="clip0_6607_1439">
<rect width="20" height="20" fill="white"/>
</clipPath>
</defs>
</svg>
