<svg width="20" height="20" viewBox="0 0 20 20" fill="none" xmlns="http://www.w3.org/2000/svg">
<g clip-path="url(#clip0_6607_1443)">
<path fill-rule="evenodd" clip-rule="evenodd" d="M3.30109 3.30093C2.07741 4.52458 1.49633 6.57179 1.49633 10C1.49633 13.4282 2.07741 15.4754 3.30109 16.6991C4.5248 17.9227 6.57193 18.5036 9.9995 18.5036C13.4276 18.5036 15.475 17.9227 16.6988 16.699C17.9226 15.4754 18.5037 13.4282 18.5037 10C18.5037 6.57179 17.9226 4.52459 16.6988 3.30095C15.475 2.07728 13.4276 1.49641 9.9995 1.49641C6.57193 1.49641 4.5248 2.07727 3.30109 3.30093ZM2.24307 2.24276C3.91054 0.575362 6.48907 0 9.9995 0C13.5104 0 16.0892 0.575354 17.7568 2.24274C19.4244 3.91016 20 6.48886 20 10C20 13.5111 19.4244 16.0898 17.7568 17.7573C16.0892 19.4246 13.5104 20 9.9995 20C6.48907 20 3.91054 19.4246 2.24307 17.7572C0.575595 16.0898 0 13.5111 0 10C0 6.48886 0.575595 3.91018 2.24307 2.24276Z" fill="white"/>
<path fill-rule="evenodd" clip-rule="evenodd" d="M0.997559 7.23257C0.997559 6.81935 1.33253 6.48438 1.74573 6.48438H18.7122C19.1254 6.48438 19.4604 6.81935 19.4604 7.23257C19.4604 7.64579 19.1254 7.98079 18.7122 7.98079H1.74573C1.33253 7.98079 0.997559 7.64579 0.997559 7.23257Z" fill="white"/>
<path d="M5.73633 11.4778C5.73633 11.0618 6.05587 10.7246 6.45004 10.7246H6.45775C6.85192 10.7246 7.17146 11.0618 7.17146 11.4778C7.17146 11.8938 6.85192 12.231 6.45775 12.231H6.45004C6.05587 12.231 5.73633 11.8938 5.73633 11.4778Z" fill="white"/>
<path d="M9.51123 11.4778C9.51123 11.0618 9.83077 10.7246 10.225 10.7246H10.2327C10.6269 10.7246 10.9464 11.0618 10.9464 11.4778C10.9464 11.8938 10.6269 12.231 10.2327 12.231H10.225C9.83077 12.231 9.51123 11.8938 9.51123 11.4778Z" fill="white"/>
<path d="M13.2793 11.4778C13.2793 11.0618 13.5988 10.7246 13.993 10.7246H14.0007C14.3949 10.7246 14.7144 11.0618 14.7144 11.4778C14.7144 11.8938 14.3949 12.231 14.0007 12.231H13.993C13.5988 12.231 13.2793 11.8938 13.2793 11.4778Z" fill="white"/>
<path d="M5.73633 14.9593C5.73633 14.5433 6.05587 14.2061 6.45004 14.2061H6.45775C6.85192 14.2061 7.17146 14.5433 7.17146 14.9593C7.17146 15.3753 6.85192 15.7125 6.45775 15.7125H6.45004C6.05587 15.7125 5.73633 15.3753 5.73633 14.9593Z" fill="white"/>
<path d="M9.51123 14.9593C9.51123 14.5433 9.83077 14.2061 10.225 14.2061H10.2327C10.6269 14.2061 10.9464 14.5433 10.9464 14.9593C10.9464 15.3753 10.6269 15.7125 10.2327 15.7125H10.225C9.83077 15.7125 9.51123 15.3753 9.51123 14.9593Z" fill="white"/>
<path d="M13.2793 14.9593C13.2793 14.5433 13.5988 14.2061 13.993 14.2061H14.0007C14.3949 14.2061 14.7144 14.5433 14.7144 14.9593C14.7144 15.3753 14.3949 15.7125 14.0007 15.7125H13.993C13.5988 15.7125 13.2793 15.3753 13.2793 14.9593Z" fill="white"/>
</g>
<defs>
<clipPath id="clip0_6607_1443">
<rect width="20" height="20" fill="white"/>
</clipPath>
</defs>
</svg>
