<svg width="20" height="20" viewBox="0 0 20 20" fill="none" xmlns="http://www.w3.org/2000/svg">
<path fill-rule="evenodd" clip-rule="evenodd" d="M15.9996 1.75C14.7579 1.75 13.75 2.75764 13.75 4C13.75 5.24236 14.7579 6.25 15.9996 6.25C17.2429 6.25 18.25 5.24236 18.25 4C18.25 2.75764 17.2429 1.75 15.9996 1.75ZM12.25 4C12.25 1.92928 13.9294 0.25 15.9996 0.25C18.0714 0.25 19.75 1.92928 19.75 4C19.75 6.07072 18.0714 7.75 15.9996 7.75C14.5639 7.75 13.3162 6.94236 12.6862 5.75663C11.0428 5.82724 10.1017 6.45217 9.55252 7.14153C8.94266 7.90712 8.75 8.8377 8.75 9.42987C8.74966 9.99881 9.02403 10.9733 9.71213 11.7989C10.331 12.5413 11.281 13.1609 12.6873 13.2412C13.3177 12.0567 14.5648 11.25 15.9996 11.25C18.0714 11.25 19.75 12.9293 19.75 15C19.75 17.0707 18.0714 18.75 15.9996 18.75C13.9294 18.75 12.25 17.0707 12.25 15C12.25 14.9026 12.2537 14.8061 12.261 14.7106C10.5896 14.5282 9.37216 13.7338 8.5599 12.7593C7.65687 11.6759 7.24943 10.3649 7.25 9.42942C7.25009 8.57968 7.51203 7.2956 8.37928 6.20692C9.17152 5.2124 10.4197 4.44386 12.2604 4.28168C12.2535 4.18869 12.25 4.09475 12.25 4ZM3.49969 7.75C2.53393 7.75 1.75 8.53373 1.75 9.5C1.75 10.4663 2.53393 11.25 3.49969 11.25C4.46668 11.25 5.25 10.4663 5.25 9.5C5.25 8.53373 4.46668 7.75 3.49969 7.75ZM0.25 9.5C0.25 7.70537 1.70544 6.25 3.49969 6.25C5.29517 6.25 6.75 7.70537 6.75 9.5C6.75 11.2946 5.29517 12.75 3.49969 12.75C1.70544 12.75 0.25 11.2946 0.25 9.5ZM15.9996 12.75C14.7579 12.75 13.75 13.7576 13.75 15C13.75 16.2424 14.7579 17.25 15.9996 17.25C17.2429 17.25 18.25 16.2424 18.25 15C18.25 13.7576 17.2429 12.75 15.9996 12.75Z" fill="white"/>
</svg>
