<svg width="20" height="20" viewBox="0 0 20 20" fill="none" xmlns="http://www.w3.org/2000/svg">
<g clip-path="url(#clip0_6607_1458)">
<path fill-rule="evenodd" clip-rule="evenodd" d="M9.73246 2H9.76769C12.0028 2 13.7014 2 14.981 2.04739C16.2447 2.09419 17.1867 2.1883 17.8622 2.41349C18.2128 2.53033 18.5271 2.69329 18.785 2.9321C19.0489 3.17645 19.2168 3.46597 19.321 3.77845C19.5009 4.3182 19.5005 4.98917 19.5001 5.65764C19.5001 5.68844 19.5001 5.71923 19.5001 5.75C19.5001 5.78077 19.5001 5.81156 19.5001 5.84235C19.5005 6.51083 19.5009 7.1818 19.321 7.72155C19.2168 8.03403 19.0489 8.32355 18.785 8.5679C18.5271 8.80671 18.2128 8.96967 17.8622 9.08651C17.1867 9.3117 16.2447 9.40581 14.981 9.45261C13.7014 9.5 12.0029 9.5 9.76775 9.5H9.73245C7.4973 9.5 5.7987 9.5 4.51919 9.45261C3.25545 9.40581 2.31346 9.3117 1.6379 9.08651C1.28736 8.96967 0.973042 8.80671 0.715124 8.5679C0.451231 8.32355 0.283345 8.03403 0.179183 7.72155C-0.000731707 7.1818 -0.000347489 6.51083 3.52916e-05 5.84236C5.29346e-05 5.81157 7.05776e-05 5.78077 7.05776e-05 5.75C7.05776e-05 5.71923 5.29346e-05 5.68843 3.52916e-05 5.65764C-0.000347549 4.98917 -0.000731826 4.3182 0.179183 3.77845C0.283345 3.46597 0.451231 3.17645 0.715124 2.9321C0.973042 2.69329 1.28736 2.53033 1.6379 2.41349C2.31346 2.1883 3.25545 2.09419 4.51919 2.04739C5.7987 2 7.49731 2 9.73246 2ZM1.60221 4.2528C1.50916 4.53193 1.50007 4.94873 1.50007 5.75C1.50007 6.55127 1.50916 6.96807 1.60221 7.2472C1.63867 7.35659 1.68172 7.41863 1.73424 7.46726C1.79272 7.52141 1.90028 7.59283 2.11224 7.66349C2.56169 7.8133 3.30719 7.90669 4.5747 7.95364C5.82308 7.99987 7.49391 8 9.75007 8C12.0062 8 13.6771 7.99987 14.9254 7.95364C16.193 7.90669 16.9385 7.8133 17.3879 7.66349C17.5999 7.59283 17.7074 7.52141 17.7659 7.46726C17.8184 7.41863 17.8615 7.35659 17.8979 7.2472C17.991 6.96807 18.0001 6.55127 18.0001 5.75C18.0001 4.94873 17.991 4.53193 17.8979 4.2528C17.8615 4.14341 17.8184 4.08137 17.7659 4.03274C17.7074 3.97859 17.5999 3.90717 17.3879 3.83651C16.9385 3.6867 16.193 3.59331 14.9254 3.54636C13.6771 3.50012 12.0062 3.5 9.75007 3.5C7.49391 3.5 5.82308 3.50013 4.5747 3.54636C3.30719 3.59331 2.56169 3.6867 2.11224 3.83651C1.90028 3.90717 1.79272 3.97859 1.73424 4.03274C1.68172 4.08137 1.63867 4.14341 1.60221 4.2528ZM7.7278 11H7.77244C9.50358 11 10.8304 11 11.8326 11.0477C12.8172 11.0946 13.5963 11.1895 14.1705 11.4356C14.4752 11.5662 14.7427 11.7471 14.9552 12C15.1668 12.2519 15.2913 12.5367 15.3667 12.8274C15.5005 13.3435 15.5003 13.9896 15.5001 14.669C15.5001 14.6959 15.5001 14.7229 15.5001 14.75C15.5001 14.7771 15.5001 14.8041 15.5001 14.831C15.5003 15.5104 15.5005 16.1565 15.3667 16.6726C15.2913 16.9633 15.1668 17.2481 14.9552 17.5C14.7427 17.7529 14.4752 17.9338 14.1705 18.0644C13.5963 18.3105 12.8172 18.4054 11.8326 18.4523C10.8304 18.5 9.50353 18.5 7.77234 18.5H7.7277C5.99656 18.5 4.66975 18.5 3.66752 18.4523C2.68291 18.4054 1.90389 18.3105 1.32963 18.0644C1.02491 17.9338 0.757409 17.7529 0.544933 17.5C0.333327 17.2481 0.208824 16.9633 0.133448 16.6726C-0.000356197 16.1565 -0.000156278 15.5104 5.38883e-05 14.831C6.22329e-05 14.8041 7.05776e-05 14.7771 7.05776e-05 14.75C7.05776e-05 14.7229 6.22329e-05 14.6959 5.38883e-05 14.669C-0.000156337 13.9896 -0.000356317 13.3435 0.133448 12.8274C0.208824 12.5367 0.333326 12.2519 0.544932 12C0.757409 11.7471 1.02491 11.5662 1.32963 11.4356C1.90389 11.1895 2.68291 11.0946 3.66752 11.0477C4.66977 11 5.99661 11 7.7278 11ZM1.58544 13.2038C1.50581 13.511 1.50007 13.9589 1.50007 14.75C1.50007 15.5411 1.50581 15.989 1.58544 16.2962C1.61944 16.4273 1.659 16.4941 1.69349 16.5352C1.72711 16.5752 1.78773 16.6287 1.92051 16.6856C2.22125 16.8145 2.75473 16.9071 3.73887 16.954C4.70108 16.9998 5.99216 17 7.75007 17C9.50798 17 10.7991 16.9998 11.7613 16.954C12.7454 16.9071 13.2789 16.8145 13.5796 16.6856C13.7124 16.6287 13.773 16.5752 13.8067 16.5352C13.8411 16.4941 13.8807 16.4273 13.9147 16.2962C13.9943 15.989 14.0001 15.5411 14.0001 14.75C14.0001 13.9589 13.9943 13.511 13.9147 13.2038C13.8807 13.0727 13.8411 13.0059 13.8067 12.9648C13.773 12.9248 13.7124 12.8713 13.5796 12.8144C13.2789 12.6855 12.7454 12.5929 11.7613 12.546C10.7991 12.5002 9.50798 12.5 7.75007 12.5C5.99216 12.5 4.70108 12.5002 3.73887 12.546C2.75473 12.5929 2.22125 12.6855 1.92051 12.8144C1.78773 12.8713 1.72711 12.9248 1.69349 12.9648C1.659 13.0059 1.61944 13.0727 1.58544 13.2038Z" fill="white"/>
</g>
<defs>
<clipPath id="clip0_6607_1458">
<rect width="20" height="20" fill="white"/>
</clipPath>
</defs>
</svg>
