<svg width="20" height="20" viewBox="0 0 20 20" fill="none" xmlns="http://www.w3.org/2000/svg">
<g clip-path="url(#clip0_6607_1441)">
<path fill-rule="evenodd" clip-rule="evenodd" d="M15.166 1.00001C15.1939 1.00002 15.2219 1.00002 15.25 1.00002C15.2781 1.00002 15.306 1.00002 15.334 1.00001C16.1361 0.999836 16.8736 0.999671 17.4581 1.1481C17.7823 1.23044 18.0956 1.36524 18.3721 1.59276C18.6502 1.82161 18.8521 2.11215 18.9996 2.44941C19.2791 3.08814 19.3897 3.96309 19.4444 5.08861C19.5 6.23183 19.5 7.74643 19.5 9.72711V9.77293C19.5 11.7536 19.5 13.2682 19.4444 14.4114C19.3897 15.537 19.2791 16.4119 18.9996 17.0506C18.8521 17.3879 18.6502 17.6784 18.3721 17.9073C18.0956 18.1348 17.7823 18.2696 17.4581 18.3519C16.8736 18.5004 16.1361 18.5002 15.334 18.5C15.306 18.5 15.2781 18.5 15.25 18.5C15.2219 18.5 15.1939 18.5 15.166 18.5C14.3639 18.5002 13.6264 18.5004 13.0419 18.3519C12.7177 18.2696 12.4044 18.1348 12.1279 17.9073C11.8498 17.6784 11.6479 17.3879 11.5004 17.0506C11.2209 16.4119 11.1103 15.537 11.0556 14.4114C11 13.2682 11 11.7536 11 9.77293V9.72711C11 7.74643 11 6.23183 11.0556 5.08861C11.1103 3.96309 11.2209 3.08814 11.5004 2.44941C11.6479 2.11216 11.8498 1.82161 12.1279 1.59276C12.4044 1.36524 12.7177 1.23044 13.0419 1.1481C13.6264 0.999671 14.3639 0.999835 15.166 1.00001ZM12.5538 5.16144C12.5002 6.26382 12.5 7.74195 12.5 9.75002C12.5 11.7581 12.5002 13.2362 12.5538 14.3386C12.6085 15.4631 12.7166 16.0881 12.8746 16.4494C12.9458 16.6122 13.0174 16.6966 13.081 16.749C13.1463 16.8027 13.2432 16.8554 13.4112 16.8981C13.7908 16.9945 14.3346 17 15.25 17C16.1654 17 16.7092 16.9945 17.0888 16.8981C17.2568 16.8554 17.3537 16.8027 17.419 16.749C17.4826 16.6966 17.5542 16.6122 17.6254 16.4494C17.7834 16.0881 17.8915 15.4631 17.9462 14.3386C17.9998 13.2362 18 11.7581 18 9.75002C18 7.74195 17.9998 6.26382 17.9462 5.16144C17.8915 4.03696 17.7834 3.41191 17.6254 3.05064C17.5542 2.88789 17.4826 2.80344 17.419 2.75104C17.3537 2.69731 17.2568 2.64461 17.0888 2.60195C16.7092 2.50554 16.1654 2.50002 15.25 2.50002C14.3346 2.50002 13.7908 2.50554 13.4112 2.60195C13.2432 2.64461 13.1463 2.69731 13.081 2.75104C13.0174 2.80344 12.9458 2.88789 12.8746 3.05064C12.7166 3.41191 12.6085 4.03696 12.5538 5.16144ZM4.18933 1.00002C4.20949 1.00002 4.22971 1.00002 4.25 1.00002C4.27029 1.00002 4.29052 1.00002 4.31067 1.00002C5.13373 0.999972 5.83978 0.999928 6.39101 1.08742C6.9855 1.18179 7.54457 1.39871 7.92692 1.94493C8.27001 2.43506 8.38717 3.08277 8.44305 3.80124C8.50001 4.53352 8.50001 5.49468 8.5 6.71526V6.78479C8.50001 8.00537 8.50001 8.96653 8.44305 9.69881C8.38717 10.4173 8.27002 11.065 7.92692 11.5551C7.54457 12.1013 6.9855 12.3183 6.39101 12.4126C5.83978 12.5001 5.13373 12.5001 4.31068 12.5H4.18932C3.36626 12.5001 2.66022 12.5001 2.10899 12.4126C1.5145 12.3183 0.955426 12.1013 0.573075 11.5551C0.229984 11.065 0.112827 10.4173 0.0569461 9.69881C-8.41916e-06 8.96653 -4.66283e-06 8.00538 1.05538e-07 6.7848V6.71527C-5.31848e-06 5.49468 -9.61125e-06 4.53352 0.0569451 3.80124C0.112826 3.08277 0.229983 2.43506 0.573075 1.94493C0.955426 1.39871 1.5145 1.18179 2.10899 1.08742C2.66022 0.999927 3.36627 0.999972 4.18933 1.00002ZM1.55243 3.91756C1.50055 4.58459 1.5 5.48714 1.5 6.75002C1.5 8.01291 1.50055 8.91546 1.55243 9.58249C1.60592 10.2703 1.70752 10.5601 1.80192 10.6949C1.85707 10.7737 1.95425 10.8693 2.34414 10.9312C2.76378 10.9978 3.34906 11 4.25 11C5.15094 11 5.73622 10.9978 6.15586 10.9312C6.54575 10.8693 6.64293 10.7737 6.69808 10.6949C6.79248 10.5601 6.89408 10.2703 6.94757 9.58249C6.99945 8.91546 7 8.01291 7 6.75002C7 5.48714 6.99945 4.58459 6.94757 3.91756C6.89408 3.22978 6.79248 2.93999 6.69808 2.80512C6.64293 2.72634 6.54575 2.63076 6.15586 2.56888C5.73622 2.50227 5.15094 2.50002 4.25 2.50002C3.34906 2.50002 2.76378 2.50227 2.34414 2.56888C1.95425 2.63076 1.85707 2.72634 1.80192 2.80512C1.70751 2.93999 1.60592 3.22978 1.55243 3.91756Z" fill="white"/>
</g>
<defs>
<clipPath id="clip0_6607_1441">
<rect width="20" height="20" fill="white"/>
</clipPath>
</defs>
</svg>
