<svg width="20" height="20" viewBox="0 0 20 20" fill="none" xmlns="http://www.w3.org/2000/svg">
<path fill-rule="evenodd" clip-rule="evenodd" d="M10.467 1.25H10.533C11.6301 1.25 12.4964 1.24999 13.157 1.29892C13.8026 1.34675 14.3977 1.44706 14.8535 1.75096C15.3722 2.09673 15.5805 2.60833 15.6695 3.14233C15.7501 3.62621 15.7501 4.24145 15.75 4.93919V5.06081C15.7501 5.75855 15.7501 6.37379 15.6695 6.85768C15.5805 7.39167 15.3722 7.90327 14.8535 8.24904C14.3977 8.55294 13.8026 8.65325 13.157 8.70108C12.4964 8.75001 11.6301 8.75 10.533 8.75H10.467C9.36994 8.75001 8.50363 8.75001 7.84303 8.70108C7.19744 8.65326 6.60233 8.55294 6.14648 8.24904C5.62782 7.90327 5.41952 7.39167 5.33052 6.85768C5.24987 6.37379 5.24993 5.75855 5.25 5.06081C5.25 5.04061 5.25 5.02034 5.25 5C5.25 4.97966 5.25 4.95939 5.25 4.93919C5.24993 4.24145 5.24987 3.62621 5.33052 3.14233C5.41952 2.60833 5.62782 2.09673 6.14648 1.75096C6.60233 1.44706 7.19744 1.34675 7.84303 1.29892C8.50363 1.24999 9.36994 1.25 10.467 1.25ZM6.81011 3.38892C6.75247 3.73478 6.75 4.22282 6.75 5C6.75 5.77719 6.75247 6.26522 6.81011 6.61108C6.86174 6.92084 6.93468 6.97173 6.97853 7.00096C7.08517 7.07206 7.33381 7.15925 7.95384 7.20517C8.55227 7.2495 9.36272 7.25 10.5 7.25C11.6373 7.25 12.4477 7.2495 13.0462 7.20517C13.6662 7.15925 13.9148 7.07206 14.0215 7.00096C14.0653 6.97173 14.1383 6.92084 14.1899 6.61108C14.2475 6.26522 14.25 5.77719 14.25 5C14.25 4.22282 14.2475 3.73478 14.1899 3.38892C14.1383 3.07917 14.0653 3.02827 14.0215 2.99904C13.9148 2.92794 13.6662 2.84075 13.0462 2.79483C12.4477 2.7505 11.6373 2.75 10.5 2.75C9.36272 2.75 8.55227 2.7505 7.95384 2.79483C7.33381 2.84075 7.08517 2.92794 6.97853 2.99904C6.93468 3.02827 6.86174 3.07917 6.81011 3.38892ZM4.9585 10.25H5.04151C6.00628 10.25 6.78615 10.25 7.38508 10.3082C7.97925 10.366 8.55783 10.4915 8.99388 10.8731C9.451 11.273 9.61094 11.8262 9.68153 12.3821C9.75006 12.9217 9.75003 13.6175 9.75 14.4491V14.5509C9.75003 15.3825 9.75006 16.0783 9.68153 16.6179C9.61094 17.1738 9.451 17.727 8.99388 18.1269C8.55783 18.5085 7.97925 18.634 7.38508 18.6918C6.78615 18.75 6.00628 18.75 5.04151 18.75H4.9585C3.99373 18.75 3.21385 18.75 2.61493 18.6918C2.02076 18.634 1.44217 18.5085 1.00612 18.1269C0.549005 17.727 0.389059 17.1738 0.318477 16.6179C0.249949 16.0783 0.249973 15.3825 0.250001 14.5509V14.4491C0.249973 13.6175 0.249949 12.9217 0.318477 12.3821C0.389059 11.8262 0.549005 11.273 1.00612 10.8731C1.44217 10.4915 2.02076 10.366 2.61493 10.3082C3.21385 10.25 3.99373 10.25 4.9585 10.25ZM1.80653 12.571C1.75145 13.0048 1.75 13.6041 1.75 14.5C1.75 15.3959 1.75145 15.9952 1.80653 16.429C1.86095 16.8575 1.951 16.9605 1.99388 16.9981C2.05783 17.054 2.22925 17.1472 2.76008 17.1988C3.27759 17.2491 3.98393 17.25 5 17.25C6.01607 17.25 6.72242 17.2491 7.23993 17.1988C7.77076 17.1472 7.94217 17.054 8.00612 16.9981C8.04901 16.9605 8.13906 16.8575 8.19348 16.429C8.24855 15.9952 8.25 15.3959 8.25 14.5C8.25 13.6041 8.24855 13.0048 8.19348 12.571C8.13906 12.1425 8.04901 12.0395 8.00612 12.0019C7.94217 11.946 7.77076 11.8528 7.23993 11.8012C6.72242 11.7509 6.01607 11.75 5 11.75C3.98394 11.75 3.27759 11.7509 2.76008 11.8012C2.22925 11.8528 2.05783 11.946 1.99388 12.0019C1.951 12.0395 1.86095 12.1425 1.80653 12.571ZM15.9617 10.25H16.0384C16.7557 10.25 17.3469 10.25 17.8035 10.2923C18.2528 10.3339 18.7326 10.4259 19.1051 10.7363C19.5067 11.071 19.6402 11.5328 19.6965 11.9556C19.7501 12.3571 19.75 12.868 19.75 13.4505V13.5495C19.75 14.132 19.7501 14.6429 19.6965 15.0444C19.6402 15.4672 19.5067 15.929 19.1051 16.2637C18.7326 16.5741 18.2528 16.6661 17.8035 16.7077C17.3469 16.75 16.7557 16.75 16.0384 16.75H15.9616C15.2443 16.75 14.6531 16.75 14.1965 16.7077C13.7472 16.6661 13.2674 16.5741 12.8949 16.2637C12.4933 15.929 12.3598 15.4672 12.3035 15.0444C12.2499 14.6429 12.25 14.132 12.25 13.5495V13.4505C12.25 12.868 12.2499 12.3571 12.3035 11.9556C12.3598 11.5328 12.4933 11.071 12.8949 10.7363C13.2674 10.4259 13.7472 10.3339 14.1965 10.2923C14.6531 10.25 15.2443 10.25 15.9617 10.25ZM13.7903 12.1538C13.7516 12.4441 13.75 12.8531 13.75 13.5C13.75 14.1469 13.7516 14.5559 13.7903 14.8462C13.8143 15.0263 13.8452 15.0936 13.8572 15.1128C13.8644 15.1176 13.8895 15.1323 13.9479 15.1498C14.0283 15.1739 14.1498 15.197 14.3348 15.2141C14.7138 15.2492 15.2347 15.25 16 15.25C16.7653 15.25 17.2862 15.2492 17.6652 15.2141C17.8502 15.197 17.9717 15.1739 18.0521 15.1498C18.1105 15.1323 18.1356 15.1176 18.1428 15.1128C18.1548 15.0936 18.1857 15.0263 18.2097 14.8462C18.2484 14.5559 18.25 14.1469 18.25 13.5C18.25 12.8531 18.2484 12.4441 18.2097 12.1538C18.1857 11.9737 18.1548 11.9064 18.1428 11.8872C18.1356 11.8824 18.1105 11.8677 18.0521 11.8502C17.9717 11.8261 17.8502 11.803 17.6652 11.7859C17.2862 11.7508 16.7653 11.75 16 11.75C15.2347 11.75 14.7138 11.7508 14.3348 11.7859C14.1498 11.803 14.0283 11.8261 13.9479 11.8502C13.8895 11.8677 13.8644 11.8824 13.8572 11.8872C13.8452 11.9064 13.8143 11.9737 13.7903 12.1538ZM13.8622 11.8808C13.8624 11.8812 13.8604 11.8841 13.8572 11.8872C13.8599 11.8829 13.8621 11.8805 13.8622 11.8808ZM18.1378 11.8808C18.1379 11.8805 18.1401 11.8829 18.1428 11.8872C18.1396 11.8841 18.1377 11.8812 18.1378 11.8808ZM18.1378 15.1192C18.1377 15.1188 18.1396 15.1159 18.1428 15.1128C18.1401 15.1171 18.1379 15.1195 18.1378 15.1192ZM13.8622 15.1191C13.8621 15.1195 13.86 15.1171 13.8572 15.1128C13.8604 15.1158 13.8623 15.1188 13.8622 15.1191Z" fill="white"/>
</svg>
